<?xml version="1.0" encoding="utf-8" standalone="no"?>
<!DOCTYPE svg PUBLIC "-//W3C//DTD SVG 1.1//EN"
  "http://www.w3.org/Graphics/SVG/1.1/DTD/svg11.dtd">
<!-- Created with matplotlib (https://matplotlib.org/) -->
<svg height="432pt" version="1.1" viewBox="0 0 1152 432" width="1152pt" xmlns="http://www.w3.org/2000/svg" xmlns:xlink="http://www.w3.org/1999/xlink">
 <defs>
  <style type="text/css">
*{stroke-linecap:butt;stroke-linejoin:round;}
  </style>
 </defs>
 <g id="figure_1">
  <g id="patch_1">
   <path d="M 0 432 
L 1152 432 
L 1152 0 
L 0 0 
z
" style="fill:#f0f0f0;"/>
  </g>
  <g id="axes_1">
   <g id="patch_2">
    <path d="M 92.16 401.76 
L 1094.4 401.76 
L 1094.4 51.84 
L 92.16 51.84 
z
" style="fill:#f0f0f0;"/>
   </g>
   <g id="matplotlib.axis_1">
    <g id="xtick_1">
     <g id="line2d_1">
      <path clip-path="url(#pc11bf931c9)" d="M 137.716364 401.76 
L 137.716364 51.84 
" style="fill:none;stroke:#cbcbcb;"/>
     </g>
     <g id="line2d_2"/>
     <g id="text_1">
      <!-- 0 -->
      <defs>
       <path d="M 31.78125 66.40625 
Q 24.171875 66.40625 20.328125 58.90625 
Q 16.5 51.421875 16.5 36.375 
Q 16.5 21.390625 20.328125 13.890625 
Q 24.171875 6.390625 31.78125 6.390625 
Q 39.453125 6.390625 43.28125 13.890625 
Q 47.125 21.390625 47.125 36.375 
Q 47.125 51.421875 43.28125 58.90625 
Q 39.453125 66.40625 31.78125 66.40625 
z
M 31.78125 74.21875 
Q 44.046875 74.21875 50.515625 64.515625 
Q 56.984375 54.828125 56.984375 36.375 
Q 56.984375 17.96875 50.515625 8.265625 
Q 44.046875 -1.421875 31.78125 -1.421875 
Q 19.53125 -1.421875 13.0625 8.265625 
Q 6.59375 17.96875 6.59375 36.375 
Q 6.59375 54.828125 13.0625 64.515625 
Q 19.53125 74.21875 31.78125 74.21875 
z
" id="DejaVuSans-48"/>
      </defs>
      <g transform="translate(133.262614 415.897813)scale(0.14 -0.14)">
       <use xlink:href="#DejaVuSans-48"/>
      </g>
     </g>
    </g>
    <g id="xtick_2">
     <g id="line2d_3">
      <path clip-path="url(#pc11bf931c9)" d="M 264.261818 401.76 
L 264.261818 51.84 
" style="fill:none;stroke:#cbcbcb;"/>
     </g>
     <g id="line2d_4"/>
     <g id="text_2">
      <!-- 20 -->
      <defs>
       <path d="M 19.1875 8.296875 
L 53.609375 8.296875 
L 53.609375 0 
L 7.328125 0 
L 7.328125 8.296875 
Q 12.9375 14.109375 22.625 23.890625 
Q 32.328125 33.6875 34.8125 36.53125 
Q 39.546875 41.84375 41.421875 45.53125 
Q 43.3125 49.21875 43.3125 52.78125 
Q 43.3125 58.59375 39.234375 62.25 
Q 35.15625 65.921875 28.609375 65.921875 
Q 23.96875 65.921875 18.8125 64.3125 
Q 13.671875 62.703125 7.8125 59.421875 
L 7.8125 69.390625 
Q 13.765625 71.78125 18.9375 73 
Q 24.125 74.21875 28.421875 74.21875 
Q 39.75 74.21875 46.484375 68.546875 
Q 53.21875 62.890625 53.21875 53.421875 
Q 53.21875 48.921875 51.53125 44.890625 
Q 49.859375 40.875 45.40625 35.40625 
Q 44.1875 33.984375 37.640625 27.21875 
Q 31.109375 20.453125 19.1875 8.296875 
z
" id="DejaVuSans-50"/>
      </defs>
      <g transform="translate(255.354318 415.897813)scale(0.14 -0.14)">
       <use xlink:href="#DejaVuSans-50"/>
       <use x="63.623047" xlink:href="#DejaVuSans-48"/>
      </g>
     </g>
    </g>
    <g id="xtick_3">
     <g id="line2d_5">
      <path clip-path="url(#pc11bf931c9)" d="M 390.807273 401.76 
L 390.807273 51.84 
" style="fill:none;stroke:#cbcbcb;"/>
     </g>
     <g id="line2d_6"/>
     <g id="text_3">
      <!-- 40 -->
      <defs>
       <path d="M 37.796875 64.3125 
L 12.890625 25.390625 
L 37.796875 25.390625 
z
M 35.203125 72.90625 
L 47.609375 72.90625 
L 47.609375 25.390625 
L 58.015625 25.390625 
L 58.015625 17.1875 
L 47.609375 17.1875 
L 47.609375 0 
L 37.796875 0 
L 37.796875 17.1875 
L 4.890625 17.1875 
L 4.890625 26.703125 
z
" id="DejaVuSans-52"/>
      </defs>
      <g transform="translate(381.899773 415.897813)scale(0.14 -0.14)">
       <use xlink:href="#DejaVuSans-52"/>
       <use x="63.623047" xlink:href="#DejaVuSans-48"/>
      </g>
     </g>
    </g>
    <g id="xtick_4">
     <g id="line2d_7">
      <path clip-path="url(#pc11bf931c9)" d="M 517.352727 401.76 
L 517.352727 51.84 
" style="fill:none;stroke:#cbcbcb;"/>
     </g>
     <g id="line2d_8"/>
     <g id="text_4">
      <!-- 60 -->
      <defs>
       <path d="M 33.015625 40.375 
Q 26.375 40.375 22.484375 35.828125 
Q 18.609375 31.296875 18.609375 23.390625 
Q 18.609375 15.53125 22.484375 10.953125 
Q 26.375 6.390625 33.015625 6.390625 
Q 39.65625 6.390625 43.53125 10.953125 
Q 47.40625 15.53125 47.40625 23.390625 
Q 47.40625 31.296875 43.53125 35.828125 
Q 39.65625 40.375 33.015625 40.375 
z
M 52.59375 71.296875 
L 52.59375 62.3125 
Q 48.875 64.0625 45.09375 64.984375 
Q 41.3125 65.921875 37.59375 65.921875 
Q 27.828125 65.921875 22.671875 59.328125 
Q 17.53125 52.734375 16.796875 39.40625 
Q 19.671875 43.65625 24.015625 45.921875 
Q 28.375 48.1875 33.59375 48.1875 
Q 44.578125 48.1875 50.953125 41.515625 
Q 57.328125 34.859375 57.328125 23.390625 
Q 57.328125 12.15625 50.6875 5.359375 
Q 44.046875 -1.421875 33.015625 -1.421875 
Q 20.359375 -1.421875 13.671875 8.265625 
Q 6.984375 17.96875 6.984375 36.375 
Q 6.984375 53.65625 15.1875 63.9375 
Q 23.390625 74.21875 37.203125 74.21875 
Q 40.921875 74.21875 44.703125 73.484375 
Q 48.484375 72.75 52.59375 71.296875 
z
" id="DejaVuSans-54"/>
      </defs>
      <g transform="translate(508.445227 415.897813)scale(0.14 -0.14)">
       <use xlink:href="#DejaVuSans-54"/>
       <use x="63.623047" xlink:href="#DejaVuSans-48"/>
      </g>
     </g>
    </g>
    <g id="xtick_5">
     <g id="line2d_9">
      <path clip-path="url(#pc11bf931c9)" d="M 643.898182 401.76 
L 643.898182 51.84 
" style="fill:none;stroke:#cbcbcb;"/>
     </g>
     <g id="line2d_10"/>
     <g id="text_5">
      <!-- 80 -->
      <defs>
       <path d="M 31.78125 34.625 
Q 24.75 34.625 20.71875 30.859375 
Q 16.703125 27.09375 16.703125 20.515625 
Q 16.703125 13.921875 20.71875 10.15625 
Q 24.75 6.390625 31.78125 6.390625 
Q 38.8125 6.390625 42.859375 10.171875 
Q 46.921875 13.96875 46.921875 20.515625 
Q 46.921875 27.09375 42.890625 30.859375 
Q 38.875 34.625 31.78125 34.625 
z
M 21.921875 38.8125 
Q 15.578125 40.375 12.03125 44.71875 
Q 8.5 49.078125 8.5 55.328125 
Q 8.5 64.0625 14.71875 69.140625 
Q 20.953125 74.21875 31.78125 74.21875 
Q 42.671875 74.21875 48.875 69.140625 
Q 55.078125 64.0625 55.078125 55.328125 
Q 55.078125 49.078125 51.53125 44.71875 
Q 48 40.375 41.703125 38.8125 
Q 48.828125 37.15625 52.796875 32.3125 
Q 56.78125 27.484375 56.78125 20.515625 
Q 56.78125 9.90625 50.3125 4.234375 
Q 43.84375 -1.421875 31.78125 -1.421875 
Q 19.734375 -1.421875 13.25 4.234375 
Q 6.78125 9.90625 6.78125 20.515625 
Q 6.78125 27.484375 10.78125 32.3125 
Q 14.796875 37.15625 21.921875 38.8125 
z
M 18.3125 54.390625 
Q 18.3125 48.734375 21.84375 45.5625 
Q 25.390625 42.390625 31.78125 42.390625 
Q 38.140625 42.390625 41.71875 45.5625 
Q 45.3125 48.734375 45.3125 54.390625 
Q 45.3125 60.0625 41.71875 63.234375 
Q 38.140625 66.40625 31.78125 66.40625 
Q 25.390625 66.40625 21.84375 63.234375 
Q 18.3125 60.0625 18.3125 54.390625 
z
" id="DejaVuSans-56"/>
      </defs>
      <g transform="translate(634.990682 415.897813)scale(0.14 -0.14)">
       <use xlink:href="#DejaVuSans-56"/>
       <use x="63.623047" xlink:href="#DejaVuSans-48"/>
      </g>
     </g>
    </g>
    <g id="xtick_6">
     <g id="line2d_11">
      <path clip-path="url(#pc11bf931c9)" d="M 770.443636 401.76 
L 770.443636 51.84 
" style="fill:none;stroke:#cbcbcb;"/>
     </g>
     <g id="line2d_12"/>
     <g id="text_6">
      <!-- 100 -->
      <defs>
       <path d="M 12.40625 8.296875 
L 28.515625 8.296875 
L 28.515625 63.921875 
L 10.984375 60.40625 
L 10.984375 69.390625 
L 28.421875 72.90625 
L 38.28125 72.90625 
L 38.28125 8.296875 
L 54.390625 8.296875 
L 54.390625 0 
L 12.40625 0 
z
" id="DejaVuSans-49"/>
      </defs>
      <g transform="translate(757.082386 415.897813)scale(0.14 -0.14)">
       <use xlink:href="#DejaVuSans-49"/>
       <use x="63.623047" xlink:href="#DejaVuSans-48"/>
       <use x="127.246094" xlink:href="#DejaVuSans-48"/>
      </g>
     </g>
    </g>
    <g id="xtick_7">
     <g id="line2d_13">
      <path clip-path="url(#pc11bf931c9)" d="M 896.989091 401.76 
L 896.989091 51.84 
" style="fill:none;stroke:#cbcbcb;"/>
     </g>
     <g id="line2d_14"/>
     <g id="text_7">
      <!-- 120 -->
      <g transform="translate(883.627841 415.897813)scale(0.14 -0.14)">
       <use xlink:href="#DejaVuSans-49"/>
       <use x="63.623047" xlink:href="#DejaVuSans-50"/>
       <use x="127.246094" xlink:href="#DejaVuSans-48"/>
      </g>
     </g>
    </g>
    <g id="xtick_8">
     <g id="line2d_15">
      <path clip-path="url(#pc11bf931c9)" d="M 1023.534545 401.76 
L 1023.534545 51.84 
" style="fill:none;stroke:#cbcbcb;"/>
     </g>
     <g id="line2d_16"/>
     <g id="text_8">
      <!-- 140 -->
      <g transform="translate(1010.173295 415.897813)scale(0.14 -0.14)">
       <use xlink:href="#DejaVuSans-49"/>
       <use x="63.623047" xlink:href="#DejaVuSans-52"/>
       <use x="127.246094" xlink:href="#DejaVuSans-48"/>
      </g>
     </g>
    </g>
    <g id="text_9">
     <!-- Days since january 30th -->
     <defs>
      <path d="M 19.671875 64.796875 
L 19.671875 8.109375 
L 31.59375 8.109375 
Q 46.6875 8.109375 53.6875 14.9375 
Q 60.6875 21.78125 60.6875 36.53125 
Q 60.6875 51.171875 53.6875 57.984375 
Q 46.6875 64.796875 31.59375 64.796875 
z
M 9.8125 72.90625 
L 30.078125 72.90625 
Q 51.265625 72.90625 61.171875 64.09375 
Q 71.09375 55.28125 71.09375 36.53125 
Q 71.09375 17.671875 61.125 8.828125 
Q 51.171875 0 30.078125 0 
L 9.8125 0 
z
" id="DejaVuSans-68"/>
      <path d="M 34.28125 27.484375 
Q 23.390625 27.484375 19.1875 25 
Q 14.984375 22.515625 14.984375 16.5 
Q 14.984375 11.71875 18.140625 8.90625 
Q 21.296875 6.109375 26.703125 6.109375 
Q 34.1875 6.109375 38.703125 11.40625 
Q 43.21875 16.703125 43.21875 25.484375 
L 43.21875 27.484375 
z
M 52.203125 31.203125 
L 52.203125 0 
L 43.21875 0 
L 43.21875 8.296875 
Q 40.140625 3.328125 35.546875 0.953125 
Q 30.953125 -1.421875 24.3125 -1.421875 
Q 15.921875 -1.421875 10.953125 3.296875 
Q 6 8.015625 6 15.921875 
Q 6 25.140625 12.171875 29.828125 
Q 18.359375 34.515625 30.609375 34.515625 
L 43.21875 34.515625 
L 43.21875 35.40625 
Q 43.21875 41.609375 39.140625 45 
Q 35.0625 48.390625 27.6875 48.390625 
Q 23 48.390625 18.546875 47.265625 
Q 14.109375 46.140625 10.015625 43.890625 
L 10.015625 52.203125 
Q 14.9375 54.109375 19.578125 55.046875 
Q 24.21875 56 28.609375 56 
Q 40.484375 56 46.34375 49.84375 
Q 52.203125 43.703125 52.203125 31.203125 
z
" id="DejaVuSans-97"/>
      <path d="M 32.171875 -5.078125 
Q 28.375 -14.84375 24.75 -17.8125 
Q 21.140625 -20.796875 15.09375 -20.796875 
L 7.90625 -20.796875 
L 7.90625 -13.28125 
L 13.1875 -13.28125 
Q 16.890625 -13.28125 18.9375 -11.515625 
Q 21 -9.765625 23.484375 -3.21875 
L 25.09375 0.875 
L 2.984375 54.6875 
L 12.5 54.6875 
L 29.59375 11.921875 
L 46.6875 54.6875 
L 56.203125 54.6875 
z
" id="DejaVuSans-121"/>
      <path d="M 44.28125 53.078125 
L 44.28125 44.578125 
Q 40.484375 46.53125 36.375 47.5 
Q 32.28125 48.484375 27.875 48.484375 
Q 21.1875 48.484375 17.84375 46.4375 
Q 14.5 44.390625 14.5 40.28125 
Q 14.5 37.15625 16.890625 35.375 
Q 19.28125 33.59375 26.515625 31.984375 
L 29.59375 31.296875 
Q 39.15625 29.25 43.1875 25.515625 
Q 47.21875 21.78125 47.21875 15.09375 
Q 47.21875 7.46875 41.1875 3.015625 
Q 35.15625 -1.421875 24.609375 -1.421875 
Q 20.21875 -1.421875 15.453125 -0.5625 
Q 10.6875 0.296875 5.421875 2 
L 5.421875 11.28125 
Q 10.40625 8.6875 15.234375 7.390625 
Q 20.0625 6.109375 24.8125 6.109375 
Q 31.15625 6.109375 34.5625 8.28125 
Q 37.984375 10.453125 37.984375 14.40625 
Q 37.984375 18.0625 35.515625 20.015625 
Q 33.0625 21.96875 24.703125 23.78125 
L 21.578125 24.515625 
Q 13.234375 26.265625 9.515625 29.90625 
Q 5.8125 33.546875 5.8125 39.890625 
Q 5.8125 47.609375 11.28125 51.796875 
Q 16.75 56 26.8125 56 
Q 31.78125 56 36.171875 55.265625 
Q 40.578125 54.546875 44.28125 53.078125 
z
" id="DejaVuSans-115"/>
      <path id="DejaVuSans-32"/>
      <path d="M 9.421875 54.6875 
L 18.40625 54.6875 
L 18.40625 0 
L 9.421875 0 
z
M 9.421875 75.984375 
L 18.40625 75.984375 
L 18.40625 64.59375 
L 9.421875 64.59375 
z
" id="DejaVuSans-105"/>
      <path d="M 54.890625 33.015625 
L 54.890625 0 
L 45.90625 0 
L 45.90625 32.71875 
Q 45.90625 40.484375 42.875 44.328125 
Q 39.84375 48.1875 33.796875 48.1875 
Q 26.515625 48.1875 22.3125 43.546875 
Q 18.109375 38.921875 18.109375 30.90625 
L 18.109375 0 
L 9.078125 0 
L 9.078125 54.6875 
L 18.109375 54.6875 
L 18.109375 46.1875 
Q 21.34375 51.125 25.703125 53.5625 
Q 30.078125 56 35.796875 56 
Q 45.21875 56 50.046875 50.171875 
Q 54.890625 44.34375 54.890625 33.015625 
z
" id="DejaVuSans-110"/>
      <path d="M 48.78125 52.59375 
L 48.78125 44.1875 
Q 44.96875 46.296875 41.140625 47.34375 
Q 37.3125 48.390625 33.40625 48.390625 
Q 24.65625 48.390625 19.8125 42.84375 
Q 14.984375 37.3125 14.984375 27.296875 
Q 14.984375 17.28125 19.8125 11.734375 
Q 24.65625 6.203125 33.40625 6.203125 
Q 37.3125 6.203125 41.140625 7.25 
Q 44.96875 8.296875 48.78125 10.40625 
L 48.78125 2.09375 
Q 45.015625 0.34375 40.984375 -0.53125 
Q 36.96875 -1.421875 32.421875 -1.421875 
Q 20.0625 -1.421875 12.78125 6.34375 
Q 5.515625 14.109375 5.515625 27.296875 
Q 5.515625 40.671875 12.859375 48.328125 
Q 20.21875 56 33.015625 56 
Q 37.15625 56 41.109375 55.140625 
Q 45.0625 54.296875 48.78125 52.59375 
z
" id="DejaVuSans-99"/>
      <path d="M 56.203125 29.59375 
L 56.203125 25.203125 
L 14.890625 25.203125 
Q 15.484375 15.921875 20.484375 11.0625 
Q 25.484375 6.203125 34.421875 6.203125 
Q 39.59375 6.203125 44.453125 7.46875 
Q 49.3125 8.734375 54.109375 11.28125 
L 54.109375 2.78125 
Q 49.265625 0.734375 44.1875 -0.34375 
Q 39.109375 -1.421875 33.890625 -1.421875 
Q 20.796875 -1.421875 13.15625 6.1875 
Q 5.515625 13.8125 5.515625 26.8125 
Q 5.515625 40.234375 12.765625 48.109375 
Q 20.015625 56 32.328125 56 
Q 43.359375 56 49.78125 48.890625 
Q 56.203125 41.796875 56.203125 29.59375 
z
M 47.21875 32.234375 
Q 47.125 39.59375 43.09375 43.984375 
Q 39.0625 48.390625 32.421875 48.390625 
Q 24.90625 48.390625 20.390625 44.140625 
Q 15.875 39.890625 15.1875 32.171875 
z
" id="DejaVuSans-101"/>
      <path d="M 9.421875 54.6875 
L 18.40625 54.6875 
L 18.40625 -0.984375 
Q 18.40625 -11.421875 14.421875 -16.109375 
Q 10.453125 -20.796875 1.609375 -20.796875 
L -1.8125 -20.796875 
L -1.8125 -13.1875 
L 0.59375 -13.1875 
Q 5.71875 -13.1875 7.5625 -10.8125 
Q 9.421875 -8.453125 9.421875 -0.984375 
z
M 9.421875 75.984375 
L 18.40625 75.984375 
L 18.40625 64.59375 
L 9.421875 64.59375 
z
" id="DejaVuSans-106"/>
      <path d="M 8.5 21.578125 
L 8.5 54.6875 
L 17.484375 54.6875 
L 17.484375 21.921875 
Q 17.484375 14.15625 20.5 10.265625 
Q 23.53125 6.390625 29.59375 6.390625 
Q 36.859375 6.390625 41.078125 11.03125 
Q 45.3125 15.671875 45.3125 23.6875 
L 45.3125 54.6875 
L 54.296875 54.6875 
L 54.296875 0 
L 45.3125 0 
L 45.3125 8.40625 
Q 42.046875 3.421875 37.71875 1 
Q 33.40625 -1.421875 27.6875 -1.421875 
Q 18.265625 -1.421875 13.375 4.4375 
Q 8.5 10.296875 8.5 21.578125 
z
M 31.109375 56 
z
" id="DejaVuSans-117"/>
      <path d="M 41.109375 46.296875 
Q 39.59375 47.171875 37.8125 47.578125 
Q 36.03125 48 33.890625 48 
Q 26.265625 48 22.1875 43.046875 
Q 18.109375 38.09375 18.109375 28.8125 
L 18.109375 0 
L 9.078125 0 
L 9.078125 54.6875 
L 18.109375 54.6875 
L 18.109375 46.1875 
Q 20.953125 51.171875 25.484375 53.578125 
Q 30.03125 56 36.53125 56 
Q 37.453125 56 38.578125 55.875 
Q 39.703125 55.765625 41.0625 55.515625 
z
" id="DejaVuSans-114"/>
      <path d="M 40.578125 39.3125 
Q 47.65625 37.796875 51.625 33 
Q 55.609375 28.21875 55.609375 21.1875 
Q 55.609375 10.40625 48.1875 4.484375 
Q 40.765625 -1.421875 27.09375 -1.421875 
Q 22.515625 -1.421875 17.65625 -0.515625 
Q 12.796875 0.390625 7.625 2.203125 
L 7.625 11.71875 
Q 11.71875 9.328125 16.59375 8.109375 
Q 21.484375 6.890625 26.8125 6.890625 
Q 36.078125 6.890625 40.9375 10.546875 
Q 45.796875 14.203125 45.796875 21.1875 
Q 45.796875 27.640625 41.28125 31.265625 
Q 36.765625 34.90625 28.71875 34.90625 
L 20.21875 34.90625 
L 20.21875 43.015625 
L 29.109375 43.015625 
Q 36.375 43.015625 40.234375 45.921875 
Q 44.09375 48.828125 44.09375 54.296875 
Q 44.09375 59.90625 40.109375 62.90625 
Q 36.140625 65.921875 28.71875 65.921875 
Q 24.65625 65.921875 20.015625 65.03125 
Q 15.375 64.15625 9.8125 62.3125 
L 9.8125 71.09375 
Q 15.4375 72.65625 20.34375 73.4375 
Q 25.25 74.21875 29.59375 74.21875 
Q 40.828125 74.21875 47.359375 69.109375 
Q 53.90625 64.015625 53.90625 55.328125 
Q 53.90625 49.265625 50.4375 45.09375 
Q 46.96875 40.921875 40.578125 39.3125 
z
" id="DejaVuSans-51"/>
      <path d="M 18.3125 70.21875 
L 18.3125 54.6875 
L 36.8125 54.6875 
L 36.8125 47.703125 
L 18.3125 47.703125 
L 18.3125 18.015625 
Q 18.3125 11.328125 20.140625 9.421875 
Q 21.96875 7.515625 27.59375 7.515625 
L 36.8125 7.515625 
L 36.8125 0 
L 27.59375 0 
Q 17.1875 0 13.234375 3.875 
Q 9.28125 7.765625 9.28125 18.015625 
L 9.28125 47.703125 
L 2.6875 47.703125 
L 2.6875 54.6875 
L 9.28125 54.6875 
L 9.28125 70.21875 
z
" id="DejaVuSans-116"/>
      <path d="M 54.890625 33.015625 
L 54.890625 0 
L 45.90625 0 
L 45.90625 32.71875 
Q 45.90625 40.484375 42.875 44.328125 
Q 39.84375 48.1875 33.796875 48.1875 
Q 26.515625 48.1875 22.3125 43.546875 
Q 18.109375 38.921875 18.109375 30.90625 
L 18.109375 0 
L 9.078125 0 
L 9.078125 75.984375 
L 18.109375 75.984375 
L 18.109375 46.1875 
Q 21.34375 51.125 25.703125 53.5625 
Q 30.078125 56 35.796875 56 
Q 45.21875 56 50.046875 50.171875 
Q 54.890625 44.34375 54.890625 33.015625 
z
" id="DejaVuSans-104"/>
     </defs>
     <g transform="translate(491.481187 435.57475)scale(0.168 -0.168)">
      <use xlink:href="#DejaVuSans-68"/>
      <use x="77.001953" xlink:href="#DejaVuSans-97"/>
      <use x="138.28125" xlink:href="#DejaVuSans-121"/>
      <use x="197.460938" xlink:href="#DejaVuSans-115"/>
      <use x="249.560547" xlink:href="#DejaVuSans-32"/>
      <use x="281.347656" xlink:href="#DejaVuSans-115"/>
      <use x="333.447266" xlink:href="#DejaVuSans-105"/>
      <use x="361.230469" xlink:href="#DejaVuSans-110"/>
      <use x="424.609375" xlink:href="#DejaVuSans-99"/>
      <use x="479.589844" xlink:href="#DejaVuSans-101"/>
      <use x="541.113281" xlink:href="#DejaVuSans-32"/>
      <use x="572.900391" xlink:href="#DejaVuSans-106"/>
      <use x="600.683594" xlink:href="#DejaVuSans-97"/>
      <use x="661.962891" xlink:href="#DejaVuSans-110"/>
      <use x="725.341797" xlink:href="#DejaVuSans-117"/>
      <use x="788.720703" xlink:href="#DejaVuSans-97"/>
      <use x="850" xlink:href="#DejaVuSans-114"/>
      <use x="891.113281" xlink:href="#DejaVuSans-121"/>
      <use x="950.292969" xlink:href="#DejaVuSans-32"/>
      <use x="982.080078" xlink:href="#DejaVuSans-51"/>
      <use x="1045.703125" xlink:href="#DejaVuSans-48"/>
      <use x="1109.326172" xlink:href="#DejaVuSans-116"/>
      <use x="1148.535156" xlink:href="#DejaVuSans-104"/>
     </g>
    </g>
   </g>
   <g id="matplotlib.axis_2">
    <g id="ytick_1">
     <g id="line2d_17">
      <path clip-path="url(#pc11bf931c9)" d="M 92.16 385.854952 
L 1094.4 385.854952 
" style="fill:none;stroke:#cbcbcb;"/>
     </g>
     <g id="line2d_18"/>
     <g id="text_10">
      <!-- 0 -->
      <g transform="translate(79.7525 391.173858)scale(0.14 -0.14)">
       <use xlink:href="#DejaVuSans-48"/>
      </g>
     </g>
    </g>
    <g id="ytick_2">
     <g id="line2d_19">
      <path clip-path="url(#pc11bf931c9)" d="M 92.16 345.226201 
L 1094.4 345.226201 
" style="fill:none;stroke:#cbcbcb;"/>
     </g>
     <g id="line2d_20"/>
     <g id="text_11">
      <!-- 100000 -->
      <g transform="translate(35.215 350.545107)scale(0.14 -0.14)">
       <use xlink:href="#DejaVuSans-49"/>
       <use x="63.623047" xlink:href="#DejaVuSans-48"/>
       <use x="127.246094" xlink:href="#DejaVuSans-48"/>
       <use x="190.869141" xlink:href="#DejaVuSans-48"/>
       <use x="254.492188" xlink:href="#DejaVuSans-48"/>
       <use x="318.115234" xlink:href="#DejaVuSans-48"/>
      </g>
     </g>
    </g>
    <g id="ytick_3">
     <g id="line2d_21">
      <path clip-path="url(#pc11bf931c9)" d="M 92.16 304.597451 
L 1094.4 304.597451 
" style="fill:none;stroke:#cbcbcb;"/>
     </g>
     <g id="line2d_22"/>
     <g id="text_12">
      <!-- 200000 -->
      <g transform="translate(35.215 309.916357)scale(0.14 -0.14)">
       <use xlink:href="#DejaVuSans-50"/>
       <use x="63.623047" xlink:href="#DejaVuSans-48"/>
       <use x="127.246094" xlink:href="#DejaVuSans-48"/>
       <use x="190.869141" xlink:href="#DejaVuSans-48"/>
       <use x="254.492188" xlink:href="#DejaVuSans-48"/>
       <use x="318.115234" xlink:href="#DejaVuSans-48"/>
      </g>
     </g>
    </g>
    <g id="ytick_4">
     <g id="line2d_23">
      <path clip-path="url(#pc11bf931c9)" d="M 92.16 263.9687 
L 1094.4 263.9687 
" style="fill:none;stroke:#cbcbcb;"/>
     </g>
     <g id="line2d_24"/>
     <g id="text_13">
      <!-- 300000 -->
      <g transform="translate(35.215 269.287606)scale(0.14 -0.14)">
       <use xlink:href="#DejaVuSans-51"/>
       <use x="63.623047" xlink:href="#DejaVuSans-48"/>
       <use x="127.246094" xlink:href="#DejaVuSans-48"/>
       <use x="190.869141" xlink:href="#DejaVuSans-48"/>
       <use x="254.492188" xlink:href="#DejaVuSans-48"/>
       <use x="318.115234" xlink:href="#DejaVuSans-48"/>
      </g>
     </g>
    </g>
    <g id="ytick_5">
     <g id="line2d_25">
      <path clip-path="url(#pc11bf931c9)" d="M 92.16 223.33995 
L 1094.4 223.33995 
" style="fill:none;stroke:#cbcbcb;"/>
     </g>
     <g id="line2d_26"/>
     <g id="text_14">
      <!-- 400000 -->
      <g transform="translate(35.215 228.658856)scale(0.14 -0.14)">
       <use xlink:href="#DejaVuSans-52"/>
       <use x="63.623047" xlink:href="#DejaVuSans-48"/>
       <use x="127.246094" xlink:href="#DejaVuSans-48"/>
       <use x="190.869141" xlink:href="#DejaVuSans-48"/>
       <use x="254.492188" xlink:href="#DejaVuSans-48"/>
       <use x="318.115234" xlink:href="#DejaVuSans-48"/>
      </g>
     </g>
    </g>
    <g id="ytick_6">
     <g id="line2d_27">
      <path clip-path="url(#pc11bf931c9)" d="M 92.16 182.711199 
L 1094.4 182.711199 
" style="fill:none;stroke:#cbcbcb;"/>
     </g>
     <g id="line2d_28"/>
     <g id="text_15">
      <!-- 500000 -->
      <defs>
       <path d="M 10.796875 72.90625 
L 49.515625 72.90625 
L 49.515625 64.59375 
L 19.828125 64.59375 
L 19.828125 46.734375 
Q 21.96875 47.46875 24.109375 47.828125 
Q 26.265625 48.1875 28.421875 48.1875 
Q 40.625 48.1875 47.75 41.5 
Q 54.890625 34.8125 54.890625 23.390625 
Q 54.890625 11.625 47.5625 5.09375 
Q 40.234375 -1.421875 26.90625 -1.421875 
Q 22.3125 -1.421875 17.546875 -0.640625 
Q 12.796875 0.140625 7.71875 1.703125 
L 7.71875 11.625 
Q 12.109375 9.234375 16.796875 8.0625 
Q 21.484375 6.890625 26.703125 6.890625 
Q 35.15625 6.890625 40.078125 11.328125 
Q 45.015625 15.765625 45.015625 23.390625 
Q 45.015625 31 40.078125 35.4375 
Q 35.15625 39.890625 26.703125 39.890625 
Q 22.75 39.890625 18.8125 39.015625 
Q 14.890625 38.140625 10.796875 36.28125 
z
" id="DejaVuSans-53"/>
      </defs>
      <g transform="translate(35.215 188.030105)scale(0.14 -0.14)">
       <use xlink:href="#DejaVuSans-53"/>
       <use x="63.623047" xlink:href="#DejaVuSans-48"/>
       <use x="127.246094" xlink:href="#DejaVuSans-48"/>
       <use x="190.869141" xlink:href="#DejaVuSans-48"/>
       <use x="254.492188" xlink:href="#DejaVuSans-48"/>
       <use x="318.115234" xlink:href="#DejaVuSans-48"/>
      </g>
     </g>
    </g>
    <g id="ytick_7">
     <g id="line2d_29">
      <path clip-path="url(#pc11bf931c9)" d="M 92.16 142.082449 
L 1094.4 142.082449 
" style="fill:none;stroke:#cbcbcb;"/>
     </g>
     <g id="line2d_30"/>
     <g id="text_16">
      <!-- 600000 -->
      <g transform="translate(35.215 147.401355)scale(0.14 -0.14)">
       <use xlink:href="#DejaVuSans-54"/>
       <use x="63.623047" xlink:href="#DejaVuSans-48"/>
       <use x="127.246094" xlink:href="#DejaVuSans-48"/>
       <use x="190.869141" xlink:href="#DejaVuSans-48"/>
       <use x="254.492188" xlink:href="#DejaVuSans-48"/>
       <use x="318.115234" xlink:href="#DejaVuSans-48"/>
      </g>
     </g>
    </g>
    <g id="ytick_8">
     <g id="line2d_31">
      <path clip-path="url(#pc11bf931c9)" d="M 92.16 101.453698 
L 1094.4 101.453698 
" style="fill:none;stroke:#cbcbcb;"/>
     </g>
     <g id="line2d_32"/>
     <g id="text_17">
      <!-- 700000 -->
      <defs>
       <path d="M 8.203125 72.90625 
L 55.078125 72.90625 
L 55.078125 68.703125 
L 28.609375 0 
L 18.3125 0 
L 43.21875 64.59375 
L 8.203125 64.59375 
z
" id="DejaVuSans-55"/>
      </defs>
      <g transform="translate(35.215 106.772604)scale(0.14 -0.14)">
       <use xlink:href="#DejaVuSans-55"/>
       <use x="63.623047" xlink:href="#DejaVuSans-48"/>
       <use x="127.246094" xlink:href="#DejaVuSans-48"/>
       <use x="190.869141" xlink:href="#DejaVuSans-48"/>
       <use x="254.492188" xlink:href="#DejaVuSans-48"/>
       <use x="318.115234" xlink:href="#DejaVuSans-48"/>
      </g>
     </g>
    </g>
    <g id="ytick_9">
     <g id="line2d_33">
      <path clip-path="url(#pc11bf931c9)" d="M 92.16 60.824947 
L 1094.4 60.824947 
" style="fill:none;stroke:#cbcbcb;"/>
     </g>
     <g id="line2d_34"/>
     <g id="text_18">
      <!-- 800000 -->
      <g transform="translate(35.215 66.143854)scale(0.14 -0.14)">
       <use xlink:href="#DejaVuSans-56"/>
       <use x="63.623047" xlink:href="#DejaVuSans-48"/>
       <use x="127.246094" xlink:href="#DejaVuSans-48"/>
       <use x="190.869141" xlink:href="#DejaVuSans-48"/>
       <use x="254.492188" xlink:href="#DejaVuSans-48"/>
       <use x="318.115234" xlink:href="#DejaVuSans-48"/>
      </g>
     </g>
    </g>
    <g id="text_19">
     <!-- Confirmed cases -->
     <defs>
      <path d="M 64.40625 67.28125 
L 64.40625 56.890625 
Q 59.421875 61.53125 53.78125 63.8125 
Q 48.140625 66.109375 41.796875 66.109375 
Q 29.296875 66.109375 22.65625 58.46875 
Q 16.015625 50.828125 16.015625 36.375 
Q 16.015625 21.96875 22.65625 14.328125 
Q 29.296875 6.6875 41.796875 6.6875 
Q 48.140625 6.6875 53.78125 8.984375 
Q 59.421875 11.28125 64.40625 15.921875 
L 64.40625 5.609375 
Q 59.234375 2.09375 53.4375 0.328125 
Q 47.65625 -1.421875 41.21875 -1.421875 
Q 24.65625 -1.421875 15.125 8.703125 
Q 5.609375 18.84375 5.609375 36.375 
Q 5.609375 53.953125 15.125 64.078125 
Q 24.65625 74.21875 41.21875 74.21875 
Q 47.75 74.21875 53.53125 72.484375 
Q 59.328125 70.75 64.40625 67.28125 
z
" id="DejaVuSans-67"/>
      <path d="M 30.609375 48.390625 
Q 23.390625 48.390625 19.1875 42.75 
Q 14.984375 37.109375 14.984375 27.296875 
Q 14.984375 17.484375 19.15625 11.84375 
Q 23.34375 6.203125 30.609375 6.203125 
Q 37.796875 6.203125 41.984375 11.859375 
Q 46.1875 17.53125 46.1875 27.296875 
Q 46.1875 37.015625 41.984375 42.703125 
Q 37.796875 48.390625 30.609375 48.390625 
z
M 30.609375 56 
Q 42.328125 56 49.015625 48.375 
Q 55.71875 40.765625 55.71875 27.296875 
Q 55.71875 13.875 49.015625 6.21875 
Q 42.328125 -1.421875 30.609375 -1.421875 
Q 18.84375 -1.421875 12.171875 6.21875 
Q 5.515625 13.875 5.515625 27.296875 
Q 5.515625 40.765625 12.171875 48.375 
Q 18.84375 56 30.609375 56 
z
" id="DejaVuSans-111"/>
      <path d="M 37.109375 75.984375 
L 37.109375 68.5 
L 28.515625 68.5 
Q 23.6875 68.5 21.796875 66.546875 
Q 19.921875 64.59375 19.921875 59.515625 
L 19.921875 54.6875 
L 34.71875 54.6875 
L 34.71875 47.703125 
L 19.921875 47.703125 
L 19.921875 0 
L 10.890625 0 
L 10.890625 47.703125 
L 2.296875 47.703125 
L 2.296875 54.6875 
L 10.890625 54.6875 
L 10.890625 58.5 
Q 10.890625 67.625 15.140625 71.796875 
Q 19.390625 75.984375 28.609375 75.984375 
z
" id="DejaVuSans-102"/>
      <path d="M 52 44.1875 
Q 55.375 50.25 60.0625 53.125 
Q 64.75 56 71.09375 56 
Q 79.640625 56 84.28125 50.015625 
Q 88.921875 44.046875 88.921875 33.015625 
L 88.921875 0 
L 79.890625 0 
L 79.890625 32.71875 
Q 79.890625 40.578125 77.09375 44.375 
Q 74.3125 48.1875 68.609375 48.1875 
Q 61.625 48.1875 57.5625 43.546875 
Q 53.515625 38.921875 53.515625 30.90625 
L 53.515625 0 
L 44.484375 0 
L 44.484375 32.71875 
Q 44.484375 40.625 41.703125 44.40625 
Q 38.921875 48.1875 33.109375 48.1875 
Q 26.21875 48.1875 22.15625 43.53125 
Q 18.109375 38.875 18.109375 30.90625 
L 18.109375 0 
L 9.078125 0 
L 9.078125 54.6875 
L 18.109375 54.6875 
L 18.109375 46.1875 
Q 21.1875 51.21875 25.484375 53.609375 
Q 29.78125 56 35.6875 56 
Q 41.65625 56 45.828125 52.96875 
Q 50 49.953125 52 44.1875 
z
" id="DejaVuSans-109"/>
      <path d="M 45.40625 46.390625 
L 45.40625 75.984375 
L 54.390625 75.984375 
L 54.390625 0 
L 45.40625 0 
L 45.40625 8.203125 
Q 42.578125 3.328125 38.25 0.953125 
Q 33.9375 -1.421875 27.875 -1.421875 
Q 17.96875 -1.421875 11.734375 6.484375 
Q 5.515625 14.40625 5.515625 27.296875 
Q 5.515625 40.1875 11.734375 48.09375 
Q 17.96875 56 27.875 56 
Q 33.9375 56 38.25 53.625 
Q 42.578125 51.265625 45.40625 46.390625 
z
M 14.796875 27.296875 
Q 14.796875 17.390625 18.875 11.75 
Q 22.953125 6.109375 30.078125 6.109375 
Q 37.203125 6.109375 41.296875 11.75 
Q 45.40625 17.390625 45.40625 27.296875 
Q 45.40625 37.203125 41.296875 42.84375 
Q 37.203125 48.484375 30.078125 48.484375 
Q 22.953125 48.484375 18.875 42.84375 
Q 14.796875 37.203125 14.796875 27.296875 
z
" id="DejaVuSans-100"/>
     </defs>
     <g transform="translate(27.721125 296.765437)rotate(-90)scale(0.168 -0.168)">
      <use xlink:href="#DejaVuSans-67"/>
      <use x="69.824219" xlink:href="#DejaVuSans-111"/>
      <use x="131.005859" xlink:href="#DejaVuSans-110"/>
      <use x="194.384766" xlink:href="#DejaVuSans-102"/>
      <use x="229.589844" xlink:href="#DejaVuSans-105"/>
      <use x="257.373047" xlink:href="#DejaVuSans-114"/>
      <use x="296.736328" xlink:href="#DejaVuSans-109"/>
      <use x="394.148438" xlink:href="#DejaVuSans-101"/>
      <use x="455.671875" xlink:href="#DejaVuSans-100"/>
      <use x="519.148438" xlink:href="#DejaVuSans-32"/>
      <use x="550.935547" xlink:href="#DejaVuSans-99"/>
      <use x="605.916016" xlink:href="#DejaVuSans-97"/>
      <use x="667.195312" xlink:href="#DejaVuSans-115"/>
      <use x="719.294922" xlink:href="#DejaVuSans-101"/>
      <use x="780.818359" xlink:href="#DejaVuSans-115"/>
     </g>
    </g>
   </g>
   <g id="line2d_35">
    <path clip-path="url(#pc11bf931c9)" d="M 137.716364 385.854545 
L 144.043636 385.854545 
L 150.370909 385.854545 
L 156.698182 385.854139 
L 163.025455 385.853733 
L 169.352727 385.853733 
L 175.68 385.853733 
L 182.007273 385.853733 
L 188.334545 385.853733 
L 194.661818 385.853733 
L 200.989091 385.853733 
L 207.316364 385.853733 
L 213.643636 385.853733 
L 219.970909 385.853733 
L 226.298182 385.853733 
L 232.625455 385.853733 
L 238.952727 385.853733 
L 245.28 385.853733 
L 251.607273 385.853733 
L 257.934545 385.853733 
L 264.261818 385.853733 
L 270.589091 385.853733 
L 276.916364 385.853733 
L 283.243636 385.853733 
L 289.570909 385.853733 
L 295.898182 385.853733 
L 302.225455 385.853733 
L 308.552727 385.853733 
L 314.88 385.853733 
L 321.207273 385.853733 
L 327.534545 385.853733 
L 333.861818 385.853733 
L 340.189091 385.85292 
L 346.516364 385.852514 
L 352.843636 385.843576 
L 359.170909 385.842763 
L 365.498182 385.842357 
L 371.825455 385.841138 
L 378.152727 385.839107 
L 384.48 385.83545 
L 390.807273 385.829356 
L 397.134545 385.826105 
L 403.461818 385.822042 
L 409.789091 385.81798 
L 416.116364 385.81351 
L 422.443636 385.809448 
L 428.770909 385.80376 
L 435.098182 385.795634 
L 441.425455 385.785477 
L 447.752727 385.774507 
L 454.08 385.750942 
L 460.407273 385.719252 
L 466.734545 385.691218 
L 473.061818 385.653027 
L 479.389091 385.622962 
L 485.716364 385.588021 
L 492.043636 385.558362 
L 498.370909 385.4962 
L 504.698182 385.440945 
L 511.025455 385.39219 
L 517.352727 385.316215 
L 523.68 385.190672 
L 530.007273 385.018406 
L 536.334545 384.82095 
L 542.661818 384.593429 
L 548.989091 384.358189 
L 555.316364 384.110759 
L 561.643636 383.914116 
L 567.970909 383.681314 
L 574.298182 383.451761 
L 580.625455 383.121449 
L 586.952727 382.767573 
L 593.28 382.420603 
L 599.607273 382.112638 
L 605.934545 381.607622 
L 612.261818 381.18874 
L 618.589091 380.828769 
L 624.916364 380.397698 
L 631.243636 380.023101 
L 637.570909 379.466081 
L 643.898182 378.824146 
L 650.225455 378.320756 
L 656.552727 377.696292 
L 662.88 377.171369 
L 669.207273 376.494088 
L 675.534545 375.922035 
L 681.861818 375.176497 
L 688.189091 374.523593 
L 694.516364 373.886534 
L 700.843636 373.113776 
L 707.170909 372.421055 
L 713.498182 371.689332 
L 719.825455 370.715867 
L 726.152727 369.674146 
L 732.48 368.474785 
L 738.807273 366.989398 
L 745.134545 365.782318 
L 751.461818 364.31887 
L 757.789091 362.960245 
L 764.116364 361.603651 
L 770.443636 360.313688 
L 776.770909 358.562182 
L 783.098182 357.102798 
L 789.425455 355.655601 
L 795.752727 354.141774 
L 802.08 352.520281 
L 808.407273 350.973138 
L 814.734545 349.025396 
L 821.061818 346.97405 
L 827.389091 345.093751 
L 833.716364 342.593458 
L 840.043636 340.269494 
L 846.370909 337.822424 
L 852.698182 335.166929 
L 859.025455 332.459835 
" style="fill:none;stroke:#2980b9;"/>
    <defs>
     <path d="M 0 4 
C 1.060812 4 2.078319 3.578535 2.828427 2.828427 
C 3.578535 2.078319 4 1.060812 4 0 
C 4 -1.060812 3.578535 -2.078319 2.828427 -2.828427 
C 2.078319 -3.578535 1.060812 -4 0 -4 
C -1.060812 -4 -2.078319 -3.578535 -2.828427 -2.828427 
C -3.578535 -2.078319 -4 -1.060812 -4 0 
C -4 1.060812 -3.578535 2.078319 -2.828427 2.828427 
C -2.078319 3.578535 -1.060812 4 0 4 
z
" id="m5a41eb635b" style="stroke:#2980b9;stroke-width:0.75;"/>
    </defs>
    <g clip-path="url(#pc11bf931c9)">
     <use style="fill:#2980b9;stroke:#2980b9;stroke-width:0.75;" x="137.716364" xlink:href="#m5a41eb635b" y="385.854545"/>
     <use style="fill:#2980b9;stroke:#2980b9;stroke-width:0.75;" x="144.043636" xlink:href="#m5a41eb635b" y="385.854545"/>
     <use style="fill:#2980b9;stroke:#2980b9;stroke-width:0.75;" x="150.370909" xlink:href="#m5a41eb635b" y="385.854545"/>
     <use style="fill:#2980b9;stroke:#2980b9;stroke-width:0.75;" x="156.698182" xlink:href="#m5a41eb635b" y="385.854139"/>
     <use style="fill:#2980b9;stroke:#2980b9;stroke-width:0.75;" x="163.025455" xlink:href="#m5a41eb635b" y="385.853733"/>
     <use style="fill:#2980b9;stroke:#2980b9;stroke-width:0.75;" x="169.352727" xlink:href="#m5a41eb635b" y="385.853733"/>
     <use style="fill:#2980b9;stroke:#2980b9;stroke-width:0.75;" x="175.68" xlink:href="#m5a41eb635b" y="385.853733"/>
     <use style="fill:#2980b9;stroke:#2980b9;stroke-width:0.75;" x="182.007273" xlink:href="#m5a41eb635b" y="385.853733"/>
     <use style="fill:#2980b9;stroke:#2980b9;stroke-width:0.75;" x="188.334545" xlink:href="#m5a41eb635b" y="385.853733"/>
     <use style="fill:#2980b9;stroke:#2980b9;stroke-width:0.75;" x="194.661818" xlink:href="#m5a41eb635b" y="385.853733"/>
     <use style="fill:#2980b9;stroke:#2980b9;stroke-width:0.75;" x="200.989091" xlink:href="#m5a41eb635b" y="385.853733"/>
     <use style="fill:#2980b9;stroke:#2980b9;stroke-width:0.75;" x="207.316364" xlink:href="#m5a41eb635b" y="385.853733"/>
     <use style="fill:#2980b9;stroke:#2980b9;stroke-width:0.75;" x="213.643636" xlink:href="#m5a41eb635b" y="385.853733"/>
     <use style="fill:#2980b9;stroke:#2980b9;stroke-width:0.75;" x="219.970909" xlink:href="#m5a41eb635b" y="385.853733"/>
     <use style="fill:#2980b9;stroke:#2980b9;stroke-width:0.75;" x="226.298182" xlink:href="#m5a41eb635b" y="385.853733"/>
     <use style="fill:#2980b9;stroke:#2980b9;stroke-width:0.75;" x="232.625455" xlink:href="#m5a41eb635b" y="385.853733"/>
     <use style="fill:#2980b9;stroke:#2980b9;stroke-width:0.75;" x="238.952727" xlink:href="#m5a41eb635b" y="385.853733"/>
     <use style="fill:#2980b9;stroke:#2980b9;stroke-width:0.75;" x="245.28" xlink:href="#m5a41eb635b" y="385.853733"/>
     <use style="fill:#2980b9;stroke:#2980b9;stroke-width:0.75;" x="251.607273" xlink:href="#m5a41eb635b" y="385.853733"/>
     <use style="fill:#2980b9;stroke:#2980b9;stroke-width:0.75;" x="257.934545" xlink:href="#m5a41eb635b" y="385.853733"/>
     <use style="fill:#2980b9;stroke:#2980b9;stroke-width:0.75;" x="264.261818" xlink:href="#m5a41eb635b" y="385.853733"/>
     <use style="fill:#2980b9;stroke:#2980b9;stroke-width:0.75;" x="270.589091" xlink:href="#m5a41eb635b" y="385.853733"/>
     <use style="fill:#2980b9;stroke:#2980b9;stroke-width:0.75;" x="276.916364" xlink:href="#m5a41eb635b" y="385.853733"/>
     <use style="fill:#2980b9;stroke:#2980b9;stroke-width:0.75;" x="283.243636" xlink:href="#m5a41eb635b" y="385.853733"/>
     <use style="fill:#2980b9;stroke:#2980b9;stroke-width:0.75;" x="289.570909" xlink:href="#m5a41eb635b" y="385.853733"/>
     <use style="fill:#2980b9;stroke:#2980b9;stroke-width:0.75;" x="295.898182" xlink:href="#m5a41eb635b" y="385.853733"/>
     <use style="fill:#2980b9;stroke:#2980b9;stroke-width:0.75;" x="302.225455" xlink:href="#m5a41eb635b" y="385.853733"/>
     <use style="fill:#2980b9;stroke:#2980b9;stroke-width:0.75;" x="308.552727" xlink:href="#m5a41eb635b" y="385.853733"/>
     <use style="fill:#2980b9;stroke:#2980b9;stroke-width:0.75;" x="314.88" xlink:href="#m5a41eb635b" y="385.853733"/>
     <use style="fill:#2980b9;stroke:#2980b9;stroke-width:0.75;" x="321.207273" xlink:href="#m5a41eb635b" y="385.853733"/>
     <use style="fill:#2980b9;stroke:#2980b9;stroke-width:0.75;" x="327.534545" xlink:href="#m5a41eb635b" y="385.853733"/>
     <use style="fill:#2980b9;stroke:#2980b9;stroke-width:0.75;" x="333.861818" xlink:href="#m5a41eb635b" y="385.853733"/>
     <use style="fill:#2980b9;stroke:#2980b9;stroke-width:0.75;" x="340.189091" xlink:href="#m5a41eb635b" y="385.85292"/>
     <use style="fill:#2980b9;stroke:#2980b9;stroke-width:0.75;" x="346.516364" xlink:href="#m5a41eb635b" y="385.852514"/>
     <use style="fill:#2980b9;stroke:#2980b9;stroke-width:0.75;" x="352.843636" xlink:href="#m5a41eb635b" y="385.843576"/>
     <use style="fill:#2980b9;stroke:#2980b9;stroke-width:0.75;" x="359.170909" xlink:href="#m5a41eb635b" y="385.842763"/>
     <use style="fill:#2980b9;stroke:#2980b9;stroke-width:0.75;" x="365.498182" xlink:href="#m5a41eb635b" y="385.842357"/>
     <use style="fill:#2980b9;stroke:#2980b9;stroke-width:0.75;" x="371.825455" xlink:href="#m5a41eb635b" y="385.841138"/>
     <use style="fill:#2980b9;stroke:#2980b9;stroke-width:0.75;" x="378.152727" xlink:href="#m5a41eb635b" y="385.839107"/>
     <use style="fill:#2980b9;stroke:#2980b9;stroke-width:0.75;" x="384.48" xlink:href="#m5a41eb635b" y="385.83545"/>
     <use style="fill:#2980b9;stroke:#2980b9;stroke-width:0.75;" x="390.807273" xlink:href="#m5a41eb635b" y="385.829356"/>
     <use style="fill:#2980b9;stroke:#2980b9;stroke-width:0.75;" x="397.134545" xlink:href="#m5a41eb635b" y="385.826105"/>
     <use style="fill:#2980b9;stroke:#2980b9;stroke-width:0.75;" x="403.461818" xlink:href="#m5a41eb635b" y="385.822042"/>
     <use style="fill:#2980b9;stroke:#2980b9;stroke-width:0.75;" x="409.789091" xlink:href="#m5a41eb635b" y="385.81798"/>
     <use style="fill:#2980b9;stroke:#2980b9;stroke-width:0.75;" x="416.116364" xlink:href="#m5a41eb635b" y="385.81351"/>
     <use style="fill:#2980b9;stroke:#2980b9;stroke-width:0.75;" x="422.443636" xlink:href="#m5a41eb635b" y="385.809448"/>
     <use style="fill:#2980b9;stroke:#2980b9;stroke-width:0.75;" x="428.770909" xlink:href="#m5a41eb635b" y="385.80376"/>
     <use style="fill:#2980b9;stroke:#2980b9;stroke-width:0.75;" x="435.098182" xlink:href="#m5a41eb635b" y="385.795634"/>
     <use style="fill:#2980b9;stroke:#2980b9;stroke-width:0.75;" x="441.425455" xlink:href="#m5a41eb635b" y="385.785477"/>
     <use style="fill:#2980b9;stroke:#2980b9;stroke-width:0.75;" x="447.752727" xlink:href="#m5a41eb635b" y="385.774507"/>
     <use style="fill:#2980b9;stroke:#2980b9;stroke-width:0.75;" x="454.08" xlink:href="#m5a41eb635b" y="385.750942"/>
     <use style="fill:#2980b9;stroke:#2980b9;stroke-width:0.75;" x="460.407273" xlink:href="#m5a41eb635b" y="385.719252"/>
     <use style="fill:#2980b9;stroke:#2980b9;stroke-width:0.75;" x="466.734545" xlink:href="#m5a41eb635b" y="385.691218"/>
     <use style="fill:#2980b9;stroke:#2980b9;stroke-width:0.75;" x="473.061818" xlink:href="#m5a41eb635b" y="385.653027"/>
     <use style="fill:#2980b9;stroke:#2980b9;stroke-width:0.75;" x="479.389091" xlink:href="#m5a41eb635b" y="385.622962"/>
     <use style="fill:#2980b9;stroke:#2980b9;stroke-width:0.75;" x="485.716364" xlink:href="#m5a41eb635b" y="385.588021"/>
     <use style="fill:#2980b9;stroke:#2980b9;stroke-width:0.75;" x="492.043636" xlink:href="#m5a41eb635b" y="385.558362"/>
     <use style="fill:#2980b9;stroke:#2980b9;stroke-width:0.75;" x="498.370909" xlink:href="#m5a41eb635b" y="385.4962"/>
     <use style="fill:#2980b9;stroke:#2980b9;stroke-width:0.75;" x="504.698182" xlink:href="#m5a41eb635b" y="385.440945"/>
     <use style="fill:#2980b9;stroke:#2980b9;stroke-width:0.75;" x="511.025455" xlink:href="#m5a41eb635b" y="385.39219"/>
     <use style="fill:#2980b9;stroke:#2980b9;stroke-width:0.75;" x="517.352727" xlink:href="#m5a41eb635b" y="385.316215"/>
     <use style="fill:#2980b9;stroke:#2980b9;stroke-width:0.75;" x="523.68" xlink:href="#m5a41eb635b" y="385.190672"/>
     <use style="fill:#2980b9;stroke:#2980b9;stroke-width:0.75;" x="530.007273" xlink:href="#m5a41eb635b" y="385.018406"/>
     <use style="fill:#2980b9;stroke:#2980b9;stroke-width:0.75;" x="536.334545" xlink:href="#m5a41eb635b" y="384.82095"/>
     <use style="fill:#2980b9;stroke:#2980b9;stroke-width:0.75;" x="542.661818" xlink:href="#m5a41eb635b" y="384.593429"/>
     <use style="fill:#2980b9;stroke:#2980b9;stroke-width:0.75;" x="548.989091" xlink:href="#m5a41eb635b" y="384.358189"/>
     <use style="fill:#2980b9;stroke:#2980b9;stroke-width:0.75;" x="555.316364" xlink:href="#m5a41eb635b" y="384.110759"/>
     <use style="fill:#2980b9;stroke:#2980b9;stroke-width:0.75;" x="561.643636" xlink:href="#m5a41eb635b" y="383.914116"/>
     <use style="fill:#2980b9;stroke:#2980b9;stroke-width:0.75;" x="567.970909" xlink:href="#m5a41eb635b" y="383.681314"/>
     <use style="fill:#2980b9;stroke:#2980b9;stroke-width:0.75;" x="574.298182" xlink:href="#m5a41eb635b" y="383.451761"/>
     <use style="fill:#2980b9;stroke:#2980b9;stroke-width:0.75;" x="580.625455" xlink:href="#m5a41eb635b" y="383.121449"/>
     <use style="fill:#2980b9;stroke:#2980b9;stroke-width:0.75;" x="586.952727" xlink:href="#m5a41eb635b" y="382.767573"/>
     <use style="fill:#2980b9;stroke:#2980b9;stroke-width:0.75;" x="593.28" xlink:href="#m5a41eb635b" y="382.420603"/>
     <use style="fill:#2980b9;stroke:#2980b9;stroke-width:0.75;" x="599.607273" xlink:href="#m5a41eb635b" y="382.112638"/>
     <use style="fill:#2980b9;stroke:#2980b9;stroke-width:0.75;" x="605.934545" xlink:href="#m5a41eb635b" y="381.607622"/>
     <use style="fill:#2980b9;stroke:#2980b9;stroke-width:0.75;" x="612.261818" xlink:href="#m5a41eb635b" y="381.18874"/>
     <use style="fill:#2980b9;stroke:#2980b9;stroke-width:0.75;" x="618.589091" xlink:href="#m5a41eb635b" y="380.828769"/>
     <use style="fill:#2980b9;stroke:#2980b9;stroke-width:0.75;" x="624.916364" xlink:href="#m5a41eb635b" y="380.397698"/>
     <use style="fill:#2980b9;stroke:#2980b9;stroke-width:0.75;" x="631.243636" xlink:href="#m5a41eb635b" y="380.023101"/>
     <use style="fill:#2980b9;stroke:#2980b9;stroke-width:0.75;" x="637.570909" xlink:href="#m5a41eb635b" y="379.466081"/>
     <use style="fill:#2980b9;stroke:#2980b9;stroke-width:0.75;" x="643.898182" xlink:href="#m5a41eb635b" y="378.824146"/>
     <use style="fill:#2980b9;stroke:#2980b9;stroke-width:0.75;" x="650.225455" xlink:href="#m5a41eb635b" y="378.320756"/>
     <use style="fill:#2980b9;stroke:#2980b9;stroke-width:0.75;" x="656.552727" xlink:href="#m5a41eb635b" y="377.696292"/>
     <use style="fill:#2980b9;stroke:#2980b9;stroke-width:0.75;" x="662.88" xlink:href="#m5a41eb635b" y="377.171369"/>
     <use style="fill:#2980b9;stroke:#2980b9;stroke-width:0.75;" x="669.207273" xlink:href="#m5a41eb635b" y="376.494088"/>
     <use style="fill:#2980b9;stroke:#2980b9;stroke-width:0.75;" x="675.534545" xlink:href="#m5a41eb635b" y="375.922035"/>
     <use style="fill:#2980b9;stroke:#2980b9;stroke-width:0.75;" x="681.861818" xlink:href="#m5a41eb635b" y="375.176497"/>
     <use style="fill:#2980b9;stroke:#2980b9;stroke-width:0.75;" x="688.189091" xlink:href="#m5a41eb635b" y="374.523593"/>
     <use style="fill:#2980b9;stroke:#2980b9;stroke-width:0.75;" x="694.516364" xlink:href="#m5a41eb635b" y="373.886534"/>
     <use style="fill:#2980b9;stroke:#2980b9;stroke-width:0.75;" x="700.843636" xlink:href="#m5a41eb635b" y="373.113776"/>
     <use style="fill:#2980b9;stroke:#2980b9;stroke-width:0.75;" x="707.170909" xlink:href="#m5a41eb635b" y="372.421055"/>
     <use style="fill:#2980b9;stroke:#2980b9;stroke-width:0.75;" x="713.498182" xlink:href="#m5a41eb635b" y="371.689332"/>
     <use style="fill:#2980b9;stroke:#2980b9;stroke-width:0.75;" x="719.825455" xlink:href="#m5a41eb635b" y="370.715867"/>
     <use style="fill:#2980b9;stroke:#2980b9;stroke-width:0.75;" x="726.152727" xlink:href="#m5a41eb635b" y="369.674146"/>
     <use style="fill:#2980b9;stroke:#2980b9;stroke-width:0.75;" x="732.48" xlink:href="#m5a41eb635b" y="368.474785"/>
     <use style="fill:#2980b9;stroke:#2980b9;stroke-width:0.75;" x="738.807273" xlink:href="#m5a41eb635b" y="366.989398"/>
     <use style="fill:#2980b9;stroke:#2980b9;stroke-width:0.75;" x="745.134545" xlink:href="#m5a41eb635b" y="365.782318"/>
     <use style="fill:#2980b9;stroke:#2980b9;stroke-width:0.75;" x="751.461818" xlink:href="#m5a41eb635b" y="364.31887"/>
     <use style="fill:#2980b9;stroke:#2980b9;stroke-width:0.75;" x="757.789091" xlink:href="#m5a41eb635b" y="362.960245"/>
     <use style="fill:#2980b9;stroke:#2980b9;stroke-width:0.75;" x="764.116364" xlink:href="#m5a41eb635b" y="361.603651"/>
     <use style="fill:#2980b9;stroke:#2980b9;stroke-width:0.75;" x="770.443636" xlink:href="#m5a41eb635b" y="360.313688"/>
     <use style="fill:#2980b9;stroke:#2980b9;stroke-width:0.75;" x="776.770909" xlink:href="#m5a41eb635b" y="358.562182"/>
     <use style="fill:#2980b9;stroke:#2980b9;stroke-width:0.75;" x="783.098182" xlink:href="#m5a41eb635b" y="357.102798"/>
     <use style="fill:#2980b9;stroke:#2980b9;stroke-width:0.75;" x="789.425455" xlink:href="#m5a41eb635b" y="355.655601"/>
     <use style="fill:#2980b9;stroke:#2980b9;stroke-width:0.75;" x="795.752727" xlink:href="#m5a41eb635b" y="354.141774"/>
     <use style="fill:#2980b9;stroke:#2980b9;stroke-width:0.75;" x="802.08" xlink:href="#m5a41eb635b" y="352.520281"/>
     <use style="fill:#2980b9;stroke:#2980b9;stroke-width:0.75;" x="808.407273" xlink:href="#m5a41eb635b" y="350.973138"/>
     <use style="fill:#2980b9;stroke:#2980b9;stroke-width:0.75;" x="814.734545" xlink:href="#m5a41eb635b" y="349.025396"/>
     <use style="fill:#2980b9;stroke:#2980b9;stroke-width:0.75;" x="821.061818" xlink:href="#m5a41eb635b" y="346.97405"/>
     <use style="fill:#2980b9;stroke:#2980b9;stroke-width:0.75;" x="827.389091" xlink:href="#m5a41eb635b" y="345.093751"/>
     <use style="fill:#2980b9;stroke:#2980b9;stroke-width:0.75;" x="833.716364" xlink:href="#m5a41eb635b" y="342.593458"/>
     <use style="fill:#2980b9;stroke:#2980b9;stroke-width:0.75;" x="840.043636" xlink:href="#m5a41eb635b" y="340.269494"/>
     <use style="fill:#2980b9;stroke:#2980b9;stroke-width:0.75;" x="846.370909" xlink:href="#m5a41eb635b" y="337.822424"/>
     <use style="fill:#2980b9;stroke:#2980b9;stroke-width:0.75;" x="852.698182" xlink:href="#m5a41eb635b" y="335.166929"/>
     <use style="fill:#2980b9;stroke:#2980b9;stroke-width:0.75;" x="859.025455" xlink:href="#m5a41eb635b" y="332.459835"/>
    </g>
   </g>
   <g id="line2d_36">
    <path clip-path="url(#pc11bf931c9)" d="M 707.170909 372.421055 
L 713.498182 371.689332 
L 719.825455 370.715867 
L 726.152727 369.674146 
L 732.48 368.474785 
L 738.807273 366.989398 
L 745.134545 365.782318 
L 751.461818 364.31887 
L 757.789091 362.960245 
L 764.116364 361.603651 
L 770.443636 360.313688 
L 776.770909 358.562182 
L 783.098182 357.102798 
L 789.425455 355.655601 
L 795.752727 354.141774 
L 802.08 352.520281 
L 808.407273 350.973138 
L 814.734545 349.025396 
L 821.061818 346.97405 
L 827.389091 345.093751 
L 833.716364 342.593458 
L 840.043636 340.269494 
" style="fill:none;stroke:#3498db;"/>
    <defs>
     <path d="M 0 4 
C 1.060812 4 2.078319 3.578535 2.828427 2.828427 
C 3.578535 2.078319 4 1.060812 4 0 
C 4 -1.060812 3.578535 -2.078319 2.828427 -2.828427 
C 2.078319 -3.578535 1.060812 -4 0 -4 
C -1.060812 -4 -2.078319 -3.578535 -2.828427 -2.828427 
C -3.578535 -2.078319 -4 -1.060812 -4 0 
C -4 1.060812 -3.578535 2.078319 -2.828427 2.828427 
C -2.078319 3.578535 -1.060812 4 0 4 
z
" id="m159f604366" style="stroke:#3498db;stroke-width:0.75;"/>
    </defs>
    <g clip-path="url(#pc11bf931c9)">
     <use style="fill:#3498db;stroke:#3498db;stroke-width:0.75;" x="707.170909" xlink:href="#m159f604366" y="372.421055"/>
     <use style="fill:#3498db;stroke:#3498db;stroke-width:0.75;" x="713.498182" xlink:href="#m159f604366" y="371.689332"/>
     <use style="fill:#3498db;stroke:#3498db;stroke-width:0.75;" x="719.825455" xlink:href="#m159f604366" y="370.715867"/>
     <use style="fill:#3498db;stroke:#3498db;stroke-width:0.75;" x="726.152727" xlink:href="#m159f604366" y="369.674146"/>
     <use style="fill:#3498db;stroke:#3498db;stroke-width:0.75;" x="732.48" xlink:href="#m159f604366" y="368.474785"/>
     <use style="fill:#3498db;stroke:#3498db;stroke-width:0.75;" x="738.807273" xlink:href="#m159f604366" y="366.989398"/>
     <use style="fill:#3498db;stroke:#3498db;stroke-width:0.75;" x="745.134545" xlink:href="#m159f604366" y="365.782318"/>
     <use style="fill:#3498db;stroke:#3498db;stroke-width:0.75;" x="751.461818" xlink:href="#m159f604366" y="364.31887"/>
     <use style="fill:#3498db;stroke:#3498db;stroke-width:0.75;" x="757.789091" xlink:href="#m159f604366" y="362.960245"/>
     <use style="fill:#3498db;stroke:#3498db;stroke-width:0.75;" x="764.116364" xlink:href="#m159f604366" y="361.603651"/>
     <use style="fill:#3498db;stroke:#3498db;stroke-width:0.75;" x="770.443636" xlink:href="#m159f604366" y="360.313688"/>
     <use style="fill:#3498db;stroke:#3498db;stroke-width:0.75;" x="776.770909" xlink:href="#m159f604366" y="358.562182"/>
     <use style="fill:#3498db;stroke:#3498db;stroke-width:0.75;" x="783.098182" xlink:href="#m159f604366" y="357.102798"/>
     <use style="fill:#3498db;stroke:#3498db;stroke-width:0.75;" x="789.425455" xlink:href="#m159f604366" y="355.655601"/>
     <use style="fill:#3498db;stroke:#3498db;stroke-width:0.75;" x="795.752727" xlink:href="#m159f604366" y="354.141774"/>
     <use style="fill:#3498db;stroke:#3498db;stroke-width:0.75;" x="802.08" xlink:href="#m159f604366" y="352.520281"/>
     <use style="fill:#3498db;stroke:#3498db;stroke-width:0.75;" x="808.407273" xlink:href="#m159f604366" y="350.973138"/>
     <use style="fill:#3498db;stroke:#3498db;stroke-width:0.75;" x="814.734545" xlink:href="#m159f604366" y="349.025396"/>
     <use style="fill:#3498db;stroke:#3498db;stroke-width:0.75;" x="821.061818" xlink:href="#m159f604366" y="346.97405"/>
     <use style="fill:#3498db;stroke:#3498db;stroke-width:0.75;" x="827.389091" xlink:href="#m159f604366" y="345.093751"/>
     <use style="fill:#3498db;stroke:#3498db;stroke-width:0.75;" x="833.716364" xlink:href="#m159f604366" y="342.593458"/>
     <use style="fill:#3498db;stroke:#3498db;stroke-width:0.75;" x="840.043636" xlink:href="#m159f604366" y="340.269494"/>
    </g>
   </g>
   <g id="line2d_37">
    <path clip-path="url(#pc11bf931c9)" d="M 846.370909 337.822424 
L 852.698182 335.166929 
L 859.025455 332.459835 
" style="fill:none;stroke:#e67e22;"/>
    <defs>
     <path d="M 0 4 
C 1.060812 4 2.078319 3.578535 2.828427 2.828427 
C 3.578535 2.078319 4 1.060812 4 0 
C 4 -1.060812 3.578535 -2.078319 2.828427 -2.828427 
C 2.078319 -3.578535 1.060812 -4 0 -4 
C -1.060812 -4 -2.078319 -3.578535 -2.828427 -2.828427 
C -3.578535 -2.078319 -4 -1.060812 -4 0 
C -4 1.060812 -3.578535 2.078319 -2.828427 2.828427 
C -2.078319 3.578535 -1.060812 4 0 4 
z
" id="m1176be5ce1" style="stroke:#e67e22;stroke-width:0.75;"/>
    </defs>
    <g clip-path="url(#pc11bf931c9)">
     <use style="fill:#e67e22;stroke:#e67e22;stroke-width:0.75;" x="846.370909" xlink:href="#m1176be5ce1" y="337.822424"/>
     <use style="fill:#e67e22;stroke:#e67e22;stroke-width:0.75;" x="852.698182" xlink:href="#m1176be5ce1" y="335.166929"/>
     <use style="fill:#e67e22;stroke:#e67e22;stroke-width:0.75;" x="859.025455" xlink:href="#m1176be5ce1" y="332.459835"/>
    </g>
   </g>
   <g id="line2d_38">
    <path clip-path="url(#pc11bf931c9)" d="M 846.370909 336.045234 
L 852.698182 333.07384 
L 859.025455 329.925187 
" style="fill:none;stroke:#f1c40f;"/>
    <defs>
     <path d="M 0 4 
C 1.060812 4 2.078319 3.578535 2.828427 2.828427 
C 3.578535 2.078319 4 1.060812 4 0 
C 4 -1.060812 3.578535 -2.078319 2.828427 -2.828427 
C 2.078319 -3.578535 1.060812 -4 0 -4 
C -1.060812 -4 -2.078319 -3.578535 -2.828427 -2.828427 
C -3.578535 -2.078319 -4 -1.060812 -4 0 
C -4 1.060812 -3.578535 2.078319 -2.828427 2.828427 
C -2.078319 3.578535 -1.060812 4 0 4 
z
" id="mfb67e2b04e" style="stroke:#f1c40f;stroke-width:0.75;"/>
    </defs>
    <g clip-path="url(#pc11bf931c9)">
     <use style="fill:#f1c40f;stroke:#f1c40f;stroke-width:0.75;" x="846.370909" xlink:href="#mfb67e2b04e" y="336.045234"/>
     <use style="fill:#f1c40f;stroke:#f1c40f;stroke-width:0.75;" x="852.698182" xlink:href="#mfb67e2b04e" y="333.07384"/>
     <use style="fill:#f1c40f;stroke:#f1c40f;stroke-width:0.75;" x="859.025455" xlink:href="#mfb67e2b04e" y="329.925187"/>
    </g>
   </g>
   <g id="line2d_39">
    <path clip-path="url(#pc11bf931c9)" d="M 865.352727 326.588702 
L 871.68 323.05318 
L 878.007273 319.306746 
L 884.334545 315.336818 
L 890.661818 311.130065 
L 896.989091 306.672359 
L 903.316364 301.948729 
L 909.643636 296.94331 
L 915.970909 291.639294 
L 922.298182 286.018868 
L 928.625455 280.063155 
L 934.952727 273.752155 
L 941.28 267.064673 
L 947.607273 259.978249 
L 953.934545 252.469086 
L 960.261818 244.511964 
L 966.589091 236.080161 
L 972.916364 227.145359 
L 979.243636 217.677553 
L 985.570909 207.644945 
L 991.898182 197.013843 
L 998.225455 185.748544 
L 1004.552727 173.811214 
L 1010.88 161.161764 
L 1017.207273 147.757712 
L 1023.534545 133.554042 
L 1029.861818 118.503054 
L 1036.189091 102.554201 
L 1042.516364 85.65392 
L 1048.843636 67.745455 
" style="fill:none;stroke:#2ecc71;"/>
    <defs>
     <path d="M 0 4 
C 1.060812 4 2.078319 3.578535 2.828427 2.828427 
C 3.578535 2.078319 4 1.060812 4 0 
C 4 -1.060812 3.578535 -2.078319 2.828427 -2.828427 
C 2.078319 -3.578535 1.060812 -4 0 -4 
C -1.060812 -4 -2.078319 -3.578535 -2.828427 -2.828427 
C -3.578535 -2.078319 -4 -1.060812 -4 0 
C -4 1.060812 -3.578535 2.078319 -2.828427 2.828427 
C -2.078319 3.578535 -1.060812 4 0 4 
z
" id="m490170bb23" style="stroke:#2ecc71;stroke-width:0.75;"/>
    </defs>
    <g clip-path="url(#pc11bf931c9)">
     <use style="fill:#2ecc71;stroke:#2ecc71;stroke-width:0.75;" x="865.352727" xlink:href="#m490170bb23" y="326.588702"/>
     <use style="fill:#2ecc71;stroke:#2ecc71;stroke-width:0.75;" x="871.68" xlink:href="#m490170bb23" y="323.05318"/>
     <use style="fill:#2ecc71;stroke:#2ecc71;stroke-width:0.75;" x="878.007273" xlink:href="#m490170bb23" y="319.306746"/>
     <use style="fill:#2ecc71;stroke:#2ecc71;stroke-width:0.75;" x="884.334545" xlink:href="#m490170bb23" y="315.336818"/>
     <use style="fill:#2ecc71;stroke:#2ecc71;stroke-width:0.75;" x="890.661818" xlink:href="#m490170bb23" y="311.130065"/>
     <use style="fill:#2ecc71;stroke:#2ecc71;stroke-width:0.75;" x="896.989091" xlink:href="#m490170bb23" y="306.672359"/>
     <use style="fill:#2ecc71;stroke:#2ecc71;stroke-width:0.75;" x="903.316364" xlink:href="#m490170bb23" y="301.948729"/>
     <use style="fill:#2ecc71;stroke:#2ecc71;stroke-width:0.75;" x="909.643636" xlink:href="#m490170bb23" y="296.94331"/>
     <use style="fill:#2ecc71;stroke:#2ecc71;stroke-width:0.75;" x="915.970909" xlink:href="#m490170bb23" y="291.639294"/>
     <use style="fill:#2ecc71;stroke:#2ecc71;stroke-width:0.75;" x="922.298182" xlink:href="#m490170bb23" y="286.018868"/>
     <use style="fill:#2ecc71;stroke:#2ecc71;stroke-width:0.75;" x="928.625455" xlink:href="#m490170bb23" y="280.063155"/>
     <use style="fill:#2ecc71;stroke:#2ecc71;stroke-width:0.75;" x="934.952727" xlink:href="#m490170bb23" y="273.752155"/>
     <use style="fill:#2ecc71;stroke:#2ecc71;stroke-width:0.75;" x="941.28" xlink:href="#m490170bb23" y="267.064673"/>
     <use style="fill:#2ecc71;stroke:#2ecc71;stroke-width:0.75;" x="947.607273" xlink:href="#m490170bb23" y="259.978249"/>
     <use style="fill:#2ecc71;stroke:#2ecc71;stroke-width:0.75;" x="953.934545" xlink:href="#m490170bb23" y="252.469086"/>
     <use style="fill:#2ecc71;stroke:#2ecc71;stroke-width:0.75;" x="960.261818" xlink:href="#m490170bb23" y="244.511964"/>
     <use style="fill:#2ecc71;stroke:#2ecc71;stroke-width:0.75;" x="966.589091" xlink:href="#m490170bb23" y="236.080161"/>
     <use style="fill:#2ecc71;stroke:#2ecc71;stroke-width:0.75;" x="972.916364" xlink:href="#m490170bb23" y="227.145359"/>
     <use style="fill:#2ecc71;stroke:#2ecc71;stroke-width:0.75;" x="979.243636" xlink:href="#m490170bb23" y="217.677553"/>
     <use style="fill:#2ecc71;stroke:#2ecc71;stroke-width:0.75;" x="985.570909" xlink:href="#m490170bb23" y="207.644945"/>
     <use style="fill:#2ecc71;stroke:#2ecc71;stroke-width:0.75;" x="991.898182" xlink:href="#m490170bb23" y="197.013843"/>
     <use style="fill:#2ecc71;stroke:#2ecc71;stroke-width:0.75;" x="998.225455" xlink:href="#m490170bb23" y="185.748544"/>
     <use style="fill:#2ecc71;stroke:#2ecc71;stroke-width:0.75;" x="1004.552727" xlink:href="#m490170bb23" y="173.811214"/>
     <use style="fill:#2ecc71;stroke:#2ecc71;stroke-width:0.75;" x="1010.88" xlink:href="#m490170bb23" y="161.161764"/>
     <use style="fill:#2ecc71;stroke:#2ecc71;stroke-width:0.75;" x="1017.207273" xlink:href="#m490170bb23" y="147.757712"/>
     <use style="fill:#2ecc71;stroke:#2ecc71;stroke-width:0.75;" x="1023.534545" xlink:href="#m490170bb23" y="133.554042"/>
     <use style="fill:#2ecc71;stroke:#2ecc71;stroke-width:0.75;" x="1029.861818" xlink:href="#m490170bb23" y="118.503054"/>
     <use style="fill:#2ecc71;stroke:#2ecc71;stroke-width:0.75;" x="1036.189091" xlink:href="#m490170bb23" y="102.554201"/>
     <use style="fill:#2ecc71;stroke:#2ecc71;stroke-width:0.75;" x="1042.516364" xlink:href="#m490170bb23" y="85.65392"/>
     <use style="fill:#2ecc71;stroke:#2ecc71;stroke-width:0.75;" x="1048.843636" xlink:href="#m490170bb23" y="67.745455"/>
    </g>
   </g>
   <g id="patch_3">
    <path d="M 92.16 401.76 
L 92.16 51.84 
" style="fill:none;stroke:#f0f0f0;stroke-linecap:square;stroke-linejoin:miter;stroke-width:3;"/>
   </g>
   <g id="patch_4">
    <path d="M 1094.4 401.76 
L 1094.4 51.84 
" style="fill:none;stroke:#f0f0f0;stroke-linecap:square;stroke-linejoin:miter;stroke-width:3;"/>
   </g>
   <g id="patch_5">
    <path d="M 92.16 401.76 
L 1094.4 401.76 
" style="fill:none;stroke:#f0f0f0;stroke-linecap:square;stroke-linejoin:miter;stroke-width:3;"/>
   </g>
   <g id="patch_6">
    <path d="M 92.16 51.84 
L 1094.4 51.84 
" style="fill:none;stroke:#f0f0f0;stroke-linecap:square;stroke-linejoin:miter;stroke-width:3;"/>
   </g>
   <g id="legend_1">
    <g id="patch_7">
     <path d="M 101.96 166.565625 
L 272.565312 166.565625 
Q 275.365312 166.565625 275.365312 163.765625 
L 275.365312 61.64 
Q 275.365312 58.84 272.565312 58.84 
L 101.96 58.84 
Q 99.16 58.84 99.16 61.64 
L 99.16 163.765625 
Q 99.16 166.565625 101.96 166.565625 
z
" style="fill:#f0f0f0;opacity:0.8;stroke:#cccccc;stroke-linejoin:miter;stroke-width:0.5;"/>
    </g>
    <g id="line2d_40">
     <path d="M 104.76 70.177812 
L 132.76 70.177812 
" style="fill:none;stroke:#2980b9;"/>
    </g>
    <g id="line2d_41">
     <g>
      <use style="fill:#2980b9;stroke:#2980b9;stroke-width:0.75;" x="118.76" xlink:href="#m5a41eb635b" y="70.177812"/>
     </g>
    </g>
    <g id="text_20">
     <!-- Unused train data -->
     <defs>
      <path d="M 8.6875 72.90625 
L 18.609375 72.90625 
L 18.609375 28.609375 
Q 18.609375 16.890625 22.84375 11.734375 
Q 27.09375 6.59375 36.625 6.59375 
Q 46.09375 6.59375 50.34375 11.734375 
Q 54.59375 16.890625 54.59375 28.609375 
L 54.59375 72.90625 
L 64.5 72.90625 
L 64.5 27.390625 
Q 64.5 13.140625 57.4375 5.859375 
Q 50.390625 -1.421875 36.625 -1.421875 
Q 22.796875 -1.421875 15.734375 5.859375 
Q 8.6875 13.140625 8.6875 27.390625 
z
" id="DejaVuSans-85"/>
     </defs>
     <g transform="translate(143.96 75.077812)scale(0.14 -0.14)">
      <use xlink:href="#DejaVuSans-85"/>
      <use x="73.193359" xlink:href="#DejaVuSans-110"/>
      <use x="136.572266" xlink:href="#DejaVuSans-117"/>
      <use x="199.951172" xlink:href="#DejaVuSans-115"/>
      <use x="252.050781" xlink:href="#DejaVuSans-101"/>
      <use x="313.574219" xlink:href="#DejaVuSans-100"/>
      <use x="377.050781" xlink:href="#DejaVuSans-32"/>
      <use x="408.837891" xlink:href="#DejaVuSans-116"/>
      <use x="448.046875" xlink:href="#DejaVuSans-114"/>
      <use x="489.160156" xlink:href="#DejaVuSans-97"/>
      <use x="550.439453" xlink:href="#DejaVuSans-105"/>
      <use x="578.222656" xlink:href="#DejaVuSans-110"/>
      <use x="641.601562" xlink:href="#DejaVuSans-32"/>
      <use x="673.388672" xlink:href="#DejaVuSans-100"/>
      <use x="736.865234" xlink:href="#DejaVuSans-97"/>
      <use x="798.144531" xlink:href="#DejaVuSans-116"/>
      <use x="837.353516" xlink:href="#DejaVuSans-97"/>
     </g>
    </g>
    <g id="line2d_42">
     <path d="M 104.76 90.727187 
L 132.76 90.727187 
" style="fill:none;stroke:#3498db;"/>
    </g>
    <g id="line2d_43">
     <g>
      <use style="fill:#3498db;stroke:#3498db;stroke-width:0.75;" x="118.76" xlink:href="#m159f604366" y="90.727187"/>
     </g>
    </g>
    <g id="text_21">
     <!-- Train data -->
     <defs>
      <path d="M -0.296875 72.90625 
L 61.375 72.90625 
L 61.375 64.59375 
L 35.5 64.59375 
L 35.5 0 
L 25.59375 0 
L 25.59375 64.59375 
L -0.296875 64.59375 
z
" id="DejaVuSans-84"/>
     </defs>
     <g transform="translate(143.96 95.627187)scale(0.14 -0.14)">
      <use xlink:href="#DejaVuSans-84"/>
      <use x="46.333984" xlink:href="#DejaVuSans-114"/>
      <use x="87.447266" xlink:href="#DejaVuSans-97"/>
      <use x="148.726562" xlink:href="#DejaVuSans-105"/>
      <use x="176.509766" xlink:href="#DejaVuSans-110"/>
      <use x="239.888672" xlink:href="#DejaVuSans-32"/>
      <use x="271.675781" xlink:href="#DejaVuSans-100"/>
      <use x="335.152344" xlink:href="#DejaVuSans-97"/>
      <use x="396.431641" xlink:href="#DejaVuSans-116"/>
      <use x="435.640625" xlink:href="#DejaVuSans-97"/>
     </g>
    </g>
    <g id="line2d_44">
     <path d="M 104.76 111.276562 
L 132.76 111.276562 
" style="fill:none;stroke:#e67e22;"/>
    </g>
    <g id="line2d_45">
     <g>
      <use style="fill:#e67e22;stroke:#e67e22;stroke-width:0.75;" x="118.76" xlink:href="#m1176be5ce1" y="111.276562"/>
     </g>
    </g>
    <g id="text_22">
     <!-- Test data -->
     <g transform="translate(143.96 116.176562)scale(0.14 -0.14)">
      <use xlink:href="#DejaVuSans-84"/>
      <use x="44.083984" xlink:href="#DejaVuSans-101"/>
      <use x="105.607422" xlink:href="#DejaVuSans-115"/>
      <use x="157.707031" xlink:href="#DejaVuSans-116"/>
      <use x="196.916016" xlink:href="#DejaVuSans-32"/>
      <use x="228.703125" xlink:href="#DejaVuSans-100"/>
      <use x="292.179688" xlink:href="#DejaVuSans-97"/>
      <use x="353.458984" xlink:href="#DejaVuSans-116"/>
      <use x="392.667969" xlink:href="#DejaVuSans-97"/>
     </g>
    </g>
    <g id="line2d_46">
     <path d="M 104.76 131.825937 
L 132.76 131.825937 
" style="fill:none;stroke:#f1c40f;"/>
    </g>
    <g id="line2d_47">
     <g>
      <use style="fill:#f1c40f;stroke:#f1c40f;stroke-width:0.75;" x="118.76" xlink:href="#mfb67e2b04e" y="131.825937"/>
     </g>
    </g>
    <g id="text_23">
     <!-- Predicted_data -->
     <defs>
      <path d="M 19.671875 64.796875 
L 19.671875 37.40625 
L 32.078125 37.40625 
Q 38.96875 37.40625 42.71875 40.96875 
Q 46.484375 44.53125 46.484375 51.125 
Q 46.484375 57.671875 42.71875 61.234375 
Q 38.96875 64.796875 32.078125 64.796875 
z
M 9.8125 72.90625 
L 32.078125 72.90625 
Q 44.34375 72.90625 50.609375 67.359375 
Q 56.890625 61.8125 56.890625 51.125 
Q 56.890625 40.328125 50.609375 34.8125 
Q 44.34375 29.296875 32.078125 29.296875 
L 19.671875 29.296875 
L 19.671875 0 
L 9.8125 0 
z
" id="DejaVuSans-80"/>
      <path d="M 50.984375 -16.609375 
L 50.984375 -23.578125 
L -0.984375 -23.578125 
L -0.984375 -16.609375 
z
" id="DejaVuSans-95"/>
     </defs>
     <g transform="translate(143.96 136.725937)scale(0.14 -0.14)">
      <use xlink:href="#DejaVuSans-80"/>
      <use x="58.552734" xlink:href="#DejaVuSans-114"/>
      <use x="97.416016" xlink:href="#DejaVuSans-101"/>
      <use x="158.939453" xlink:href="#DejaVuSans-100"/>
      <use x="222.416016" xlink:href="#DejaVuSans-105"/>
      <use x="250.199219" xlink:href="#DejaVuSans-99"/>
      <use x="305.179688" xlink:href="#DejaVuSans-116"/>
      <use x="344.388672" xlink:href="#DejaVuSans-101"/>
      <use x="405.912109" xlink:href="#DejaVuSans-100"/>
      <use x="469.388672" xlink:href="#DejaVuSans-95"/>
      <use x="519.388672" xlink:href="#DejaVuSans-100"/>
      <use x="582.865234" xlink:href="#DejaVuSans-97"/>
      <use x="644.144531" xlink:href="#DejaVuSans-116"/>
      <use x="683.353516" xlink:href="#DejaVuSans-97"/>
     </g>
    </g>
    <g id="line2d_48">
     <path d="M 104.76 152.764687 
L 132.76 152.764687 
" style="fill:none;stroke:#2ecc71;"/>
    </g>
    <g id="line2d_49">
     <g>
      <use style="fill:#2ecc71;stroke:#2ecc71;stroke-width:0.75;" x="118.76" xlink:href="#m490170bb23" y="152.764687"/>
     </g>
    </g>
    <g id="text_24">
     <!-- Future_Forecast -->
     <defs>
      <path d="M 9.8125 72.90625 
L 51.703125 72.90625 
L 51.703125 64.59375 
L 19.671875 64.59375 
L 19.671875 43.109375 
L 48.578125 43.109375 
L 48.578125 34.8125 
L 19.671875 34.8125 
L 19.671875 0 
L 9.8125 0 
z
" id="DejaVuSans-70"/>
     </defs>
     <g transform="translate(143.96 157.664687)scale(0.14 -0.14)">
      <use xlink:href="#DejaVuSans-70"/>
      <use x="52.019531" xlink:href="#DejaVuSans-117"/>
      <use x="115.398438" xlink:href="#DejaVuSans-116"/>
      <use x="154.607422" xlink:href="#DejaVuSans-117"/>
      <use x="217.986328" xlink:href="#DejaVuSans-114"/>
      <use x="256.849609" xlink:href="#DejaVuSans-101"/>
      <use x="318.373047" xlink:href="#DejaVuSans-95"/>
      <use x="368.373047" xlink:href="#DejaVuSans-70"/>
      <use x="422.267578" xlink:href="#DejaVuSans-111"/>
      <use x="483.449219" xlink:href="#DejaVuSans-114"/>
      <use x="522.3125" xlink:href="#DejaVuSans-101"/>
      <use x="583.835938" xlink:href="#DejaVuSans-99"/>
      <use x="638.816406" xlink:href="#DejaVuSans-97"/>
      <use x="700.095703" xlink:href="#DejaVuSans-115"/>
      <use x="752.195312" xlink:href="#DejaVuSans-116"/>
     </g>
    </g>
   </g>
  </g>
  <g id="text_25">
   <!-- COVID-19 confirmed cases and forecasting in India time -->
   <defs>
    <path d="M 67 4 
Q 61.8125 1.3125 56.203125 -0.046875 
Q 50.59375 -1.421875 44.484375 -1.421875 
Q 26.265625 -1.421875 15.625 8.765625 
Q 4.984375 18.953125 4.984375 36.375 
Q 4.984375 53.859375 15.625 64.03125 
Q 26.265625 74.21875 44.484375 74.21875 
Q 50.59375 74.21875 56.203125 72.84375 
Q 61.8125 71.484375 67 68.796875 
L 67 53.71875 
Q 61.765625 57.28125 56.6875 58.9375 
Q 51.609375 60.59375 46 60.59375 
Q 35.9375 60.59375 30.171875 54.140625 
Q 24.421875 47.703125 24.421875 36.375 
Q 24.421875 25.09375 30.171875 18.640625 
Q 35.9375 12.203125 46 12.203125 
Q 51.609375 12.203125 56.6875 13.859375 
Q 61.765625 15.53125 67 19.09375 
z
" id="DejaVuSans-Bold-67"/>
    <path d="M 42.484375 60.59375 
Q 33.890625 60.59375 29.15625 54.25 
Q 24.421875 47.90625 24.421875 36.375 
Q 24.421875 24.90625 29.15625 18.546875 
Q 33.890625 12.203125 42.484375 12.203125 
Q 51.125 12.203125 55.859375 18.546875 
Q 60.59375 24.90625 60.59375 36.375 
Q 60.59375 47.90625 55.859375 54.25 
Q 51.125 60.59375 42.484375 60.59375 
z
M 42.484375 74.21875 
Q 60.0625 74.21875 70.015625 64.15625 
Q 79.984375 54.109375 79.984375 36.375 
Q 79.984375 18.703125 70.015625 8.640625 
Q 60.0625 -1.421875 42.484375 -1.421875 
Q 24.953125 -1.421875 14.96875 8.640625 
Q 4.984375 18.703125 4.984375 36.375 
Q 4.984375 54.109375 14.96875 64.15625 
Q 24.953125 74.21875 42.484375 74.21875 
z
" id="DejaVuSans-Bold-79"/>
    <path d="M 0.484375 72.90625 
L 19.390625 72.90625 
L 38.71875 19.09375 
L 58.015625 72.90625 
L 76.90625 72.90625 
L 49.90625 0 
L 27.484375 0 
z
" id="DejaVuSans-Bold-86"/>
    <path d="M 9.1875 72.90625 
L 27.984375 72.90625 
L 27.984375 0 
L 9.1875 0 
z
" id="DejaVuSans-Bold-73"/>
    <path d="M 27.984375 58.6875 
L 27.984375 14.203125 
L 34.71875 14.203125 
Q 46.234375 14.203125 52.3125 19.921875 
Q 58.40625 25.640625 58.40625 36.53125 
Q 58.40625 47.359375 52.34375 53.015625 
Q 46.296875 58.6875 34.71875 58.6875 
z
M 9.1875 72.90625 
L 29 72.90625 
Q 45.609375 72.90625 53.734375 70.53125 
Q 61.859375 68.171875 67.671875 62.5 
Q 72.796875 57.5625 75.28125 51.109375 
Q 77.78125 44.671875 77.78125 36.53125 
Q 77.78125 28.265625 75.28125 21.796875 
Q 72.796875 15.328125 67.671875 10.40625 
Q 61.8125 4.734375 53.609375 2.359375 
Q 45.40625 0 29 0 
L 9.1875 0 
z
" id="DejaVuSans-Bold-68"/>
    <path d="M 5.421875 35.890625 
L 36.078125 35.890625 
L 36.078125 21.6875 
L 5.421875 21.6875 
z
" id="DejaVuSans-Bold-45"/>
    <path d="M 11.71875 12.984375 
L 28.328125 12.984375 
L 28.328125 60.109375 
L 11.28125 56.59375 
L 11.28125 69.390625 
L 28.21875 72.90625 
L 46.09375 72.90625 
L 46.09375 12.984375 
L 62.703125 12.984375 
L 62.703125 0 
L 11.71875 0 
z
" id="DejaVuSans-Bold-49"/>
    <path d="M 10.015625 1.609375 
L 10.015625 15.09375 
Q 14.5 12.984375 18.59375 11.9375 
Q 22.703125 10.890625 26.703125 10.890625 
Q 35.109375 10.890625 39.796875 15.546875 
Q 44.484375 20.21875 45.3125 29.390625 
Q 42 26.953125 38.234375 25.734375 
Q 34.46875 24.515625 30.078125 24.515625 
Q 18.890625 24.515625 12.03125 31.03125 
Q 5.171875 37.546875 5.171875 48.1875 
Q 5.171875 59.96875 12.8125 67.046875 
Q 20.453125 74.125 33.296875 74.125 
Q 47.5625 74.125 55.375 64.5 
Q 63.1875 54.890625 63.1875 37.3125 
Q 63.1875 19.234375 54.046875 8.90625 
Q 44.921875 -1.421875 29 -1.421875 
Q 23.875 -1.421875 19.1875 -0.65625 
Q 14.5 0.09375 10.015625 1.609375 
z
M 33.203125 36.71875 
Q 38.140625 36.71875 40.625 39.90625 
Q 43.109375 43.109375 43.109375 49.515625 
Q 43.109375 55.859375 40.625 59.078125 
Q 38.140625 62.3125 33.203125 62.3125 
Q 28.265625 62.3125 25.78125 59.078125 
Q 23.296875 55.859375 23.296875 49.515625 
Q 23.296875 43.109375 25.78125 39.90625 
Q 28.265625 36.71875 33.203125 36.71875 
z
" id="DejaVuSans-Bold-57"/>
    <path id="DejaVuSans-Bold-32"/>
    <path d="M 52.59375 52.984375 
L 52.59375 38.71875 
Q 49.03125 41.15625 45.4375 42.328125 
Q 41.84375 43.5 37.984375 43.5 
Q 30.671875 43.5 26.59375 39.234375 
Q 22.515625 34.96875 22.515625 27.296875 
Q 22.515625 19.625 26.59375 15.34375 
Q 30.671875 11.078125 37.984375 11.078125 
Q 42.09375 11.078125 45.78125 12.296875 
Q 49.46875 13.53125 52.59375 15.921875 
L 52.59375 1.609375 
Q 48.484375 0.09375 44.265625 -0.65625 
Q 40.046875 -1.421875 35.796875 -1.421875 
Q 21 -1.421875 12.640625 6.171875 
Q 4.296875 13.765625 4.296875 27.296875 
Q 4.296875 40.828125 12.640625 48.40625 
Q 21 56 35.796875 56 
Q 40.09375 56 44.265625 55.25 
Q 48.4375 54.5 52.59375 52.984375 
z
" id="DejaVuSans-Bold-99"/>
    <path d="M 34.421875 43.5 
Q 28.609375 43.5 25.5625 39.328125 
Q 22.515625 35.15625 22.515625 27.296875 
Q 22.515625 19.4375 25.5625 15.25 
Q 28.609375 11.078125 34.421875 11.078125 
Q 40.140625 11.078125 43.15625 15.25 
Q 46.1875 19.4375 46.1875 27.296875 
Q 46.1875 35.15625 43.15625 39.328125 
Q 40.140625 43.5 34.421875 43.5 
z
M 34.421875 56 
Q 48.53125 56 56.46875 48.375 
Q 64.40625 40.765625 64.40625 27.296875 
Q 64.40625 13.8125 56.46875 6.1875 
Q 48.53125 -1.421875 34.421875 -1.421875 
Q 20.265625 -1.421875 12.28125 6.1875 
Q 4.296875 13.8125 4.296875 27.296875 
Q 4.296875 40.765625 12.28125 48.375 
Q 20.265625 56 34.421875 56 
z
" id="DejaVuSans-Bold-111"/>
    <path d="M 63.375 33.296875 
L 63.375 0 
L 45.796875 0 
L 45.796875 5.421875 
L 45.796875 25.484375 
Q 45.796875 32.5625 45.484375 35.25 
Q 45.171875 37.9375 44.390625 39.203125 
Q 43.359375 40.921875 41.59375 41.875 
Q 39.84375 42.828125 37.59375 42.828125 
Q 32.125 42.828125 29 38.59375 
Q 25.875 34.375 25.875 26.90625 
L 25.875 0 
L 8.40625 0 
L 8.40625 54.6875 
L 25.875 54.6875 
L 25.875 46.6875 
Q 29.828125 51.46875 34.265625 53.734375 
Q 38.71875 56 44.09375 56 
Q 53.5625 56 58.46875 50.1875 
Q 63.375 44.390625 63.375 33.296875 
z
" id="DejaVuSans-Bold-110"/>
    <path d="M 44.390625 75.984375 
L 44.390625 64.5 
L 34.71875 64.5 
Q 31 64.5 29.53125 63.15625 
Q 28.078125 61.8125 28.078125 58.5 
L 28.078125 54.6875 
L 43.015625 54.6875 
L 43.015625 42.1875 
L 28.078125 42.1875 
L 28.078125 0 
L 10.59375 0 
L 10.59375 42.1875 
L 1.90625 42.1875 
L 1.90625 54.6875 
L 10.59375 54.6875 
L 10.59375 58.5 
Q 10.59375 67.4375 15.578125 71.703125 
Q 20.5625 75.984375 31 75.984375 
z
" id="DejaVuSans-Bold-102"/>
    <path d="M 8.40625 54.6875 
L 25.875 54.6875 
L 25.875 0 
L 8.40625 0 
z
M 8.40625 75.984375 
L 25.875 75.984375 
L 25.875 61.71875 
L 8.40625 61.71875 
z
" id="DejaVuSans-Bold-105"/>
    <path d="M 49.03125 39.796875 
Q 46.734375 40.875 44.453125 41.375 
Q 42.1875 41.890625 39.890625 41.890625 
Q 33.15625 41.890625 29.515625 37.5625 
Q 25.875 33.25 25.875 25.203125 
L 25.875 0 
L 8.40625 0 
L 8.40625 54.6875 
L 25.875 54.6875 
L 25.875 45.703125 
Q 29.25 51.078125 33.609375 53.53125 
Q 37.984375 56 44.09375 56 
Q 44.96875 56 45.984375 55.921875 
Q 47.015625 55.859375 48.96875 55.609375 
z
" id="DejaVuSans-Bold-114"/>
    <path d="M 59.078125 45.609375 
Q 62.40625 50.6875 66.96875 53.34375 
Q 71.53125 56 77 56 
Q 86.421875 56 91.359375 50.1875 
Q 96.296875 44.390625 96.296875 33.296875 
L 96.296875 0 
L 78.71875 0 
L 78.71875 28.515625 
Q 78.765625 29.15625 78.78125 29.828125 
Q 78.8125 30.515625 78.8125 31.78125 
Q 78.8125 37.59375 77.09375 40.203125 
Q 75.390625 42.828125 71.578125 42.828125 
Q 66.609375 42.828125 63.890625 38.71875 
Q 61.1875 34.625 61.078125 26.859375 
L 61.078125 0 
L 43.5 0 
L 43.5 28.515625 
Q 43.5 37.59375 41.9375 40.203125 
Q 40.375 42.828125 36.375 42.828125 
Q 31.34375 42.828125 28.609375 38.703125 
Q 25.875 34.578125 25.875 26.90625 
L 25.875 0 
L 8.296875 0 
L 8.296875 54.6875 
L 25.875 54.6875 
L 25.875 46.6875 
Q 29.109375 51.3125 33.28125 53.65625 
Q 37.453125 56 42.484375 56 
Q 48.140625 56 52.484375 53.265625 
Q 56.84375 50.53125 59.078125 45.609375 
z
" id="DejaVuSans-Bold-109"/>
    <path d="M 62.984375 27.484375 
L 62.984375 22.515625 
L 22.125 22.515625 
Q 22.75 16.359375 26.5625 13.28125 
Q 30.375 10.203125 37.203125 10.203125 
Q 42.71875 10.203125 48.5 11.84375 
Q 54.296875 13.484375 60.40625 16.796875 
L 60.40625 3.328125 
Q 54.203125 0.984375 48 -0.21875 
Q 41.796875 -1.421875 35.59375 -1.421875 
Q 20.75 -1.421875 12.515625 6.125 
Q 4.296875 13.671875 4.296875 27.296875 
Q 4.296875 40.671875 12.375 48.328125 
Q 20.453125 56 34.625 56 
Q 47.515625 56 55.25 48.234375 
Q 62.984375 40.484375 62.984375 27.484375 
z
M 45.015625 33.296875 
Q 45.015625 38.28125 42.109375 41.328125 
Q 39.203125 44.390625 34.515625 44.390625 
Q 29.4375 44.390625 26.265625 41.53125 
Q 23.09375 38.671875 22.3125 33.296875 
z
" id="DejaVuSans-Bold-101"/>
    <path d="M 45.609375 46.6875 
L 45.609375 75.984375 
L 63.1875 75.984375 
L 63.1875 0 
L 45.609375 0 
L 45.609375 7.90625 
Q 42 3.078125 37.640625 0.828125 
Q 33.296875 -1.421875 27.59375 -1.421875 
Q 17.484375 -1.421875 10.984375 6.609375 
Q 4.5 14.65625 4.5 27.296875 
Q 4.5 39.9375 10.984375 47.96875 
Q 17.484375 56 27.59375 56 
Q 33.25 56 37.625 53.734375 
Q 42 51.46875 45.609375 46.6875 
z
M 34.078125 11.28125 
Q 39.703125 11.28125 42.65625 15.375 
Q 45.609375 19.484375 45.609375 27.296875 
Q 45.609375 35.109375 42.65625 39.203125 
Q 39.703125 43.3125 34.078125 43.3125 
Q 28.515625 43.3125 25.5625 39.203125 
Q 22.609375 35.109375 22.609375 27.296875 
Q 22.609375 19.484375 25.5625 15.375 
Q 28.515625 11.28125 34.078125 11.28125 
z
" id="DejaVuSans-Bold-100"/>
    <path d="M 32.90625 24.609375 
Q 27.4375 24.609375 24.671875 22.75 
Q 21.921875 20.90625 21.921875 17.28125 
Q 21.921875 13.96875 24.140625 12.078125 
Q 26.375 10.203125 30.328125 10.203125 
Q 35.25 10.203125 38.625 13.734375 
Q 42 17.28125 42 22.609375 
L 42 24.609375 
z
M 59.625 31.203125 
L 59.625 0 
L 42 0 
L 42 8.109375 
Q 38.484375 3.125 34.078125 0.84375 
Q 29.6875 -1.421875 23.390625 -1.421875 
Q 14.890625 -1.421875 9.59375 3.53125 
Q 4.296875 8.5 4.296875 16.40625 
Q 4.296875 26.03125 10.90625 30.515625 
Q 17.53125 35.015625 31.6875 35.015625 
L 42 35.015625 
L 42 36.375 
Q 42 40.53125 38.71875 42.453125 
Q 35.453125 44.390625 28.515625 44.390625 
Q 22.90625 44.390625 18.0625 43.265625 
Q 13.234375 42.140625 9.078125 39.890625 
L 9.078125 53.21875 
Q 14.703125 54.59375 20.359375 55.296875 
Q 26.03125 56 31.6875 56 
Q 46.484375 56 53.046875 50.171875 
Q 59.625 44.34375 59.625 31.203125 
z
" id="DejaVuSans-Bold-97"/>
    <path d="M 51.125 52.984375 
L 51.125 39.703125 
Q 45.515625 42.046875 40.28125 43.21875 
Q 35.0625 44.390625 30.421875 44.390625 
Q 25.4375 44.390625 23.015625 43.140625 
Q 20.609375 41.890625 20.609375 39.3125 
Q 20.609375 37.203125 22.4375 36.078125 
Q 24.265625 34.96875 29 34.421875 
L 32.078125 33.984375 
Q 45.515625 32.28125 50.140625 28.375 
Q 54.78125 24.46875 54.78125 16.109375 
Q 54.78125 7.375 48.328125 2.96875 
Q 41.890625 -1.421875 29.109375 -1.421875 
Q 23.6875 -1.421875 17.890625 -0.5625 
Q 12.109375 0.296875 6 2 
L 6 15.28125 
Q 11.234375 12.75 16.71875 11.46875 
Q 22.21875 10.203125 27.875 10.203125 
Q 33.015625 10.203125 35.59375 11.609375 
Q 38.1875 13.03125 38.1875 15.828125 
Q 38.1875 18.171875 36.40625 19.3125 
Q 34.625 20.453125 29.296875 21.09375 
L 26.21875 21.484375 
Q 14.546875 22.953125 9.859375 26.90625 
Q 5.171875 30.859375 5.171875 38.921875 
Q 5.171875 47.609375 11.125 51.796875 
Q 17.09375 56 29.390625 56 
Q 34.234375 56 39.546875 55.265625 
Q 44.875 54.546875 51.125 52.984375 
z
" id="DejaVuSans-Bold-115"/>
    <path d="M 27.484375 70.21875 
L 27.484375 54.6875 
L 45.515625 54.6875 
L 45.515625 42.1875 
L 27.484375 42.1875 
L 27.484375 19 
Q 27.484375 15.1875 29 13.84375 
Q 30.515625 12.5 35.015625 12.5 
L 44 12.5 
L 44 0 
L 29 0 
Q 18.65625 0 14.328125 4.3125 
Q 10.015625 8.640625 10.015625 19 
L 10.015625 42.1875 
L 1.3125 42.1875 
L 1.3125 54.6875 
L 10.015625 54.6875 
L 10.015625 70.21875 
z
" id="DejaVuSans-Bold-116"/>
    <path d="M 45.609375 9.28125 
Q 42 4.5 37.640625 2.25 
Q 33.296875 0 27.59375 0 
Q 17.578125 0 11.03125 7.875 
Q 4.5 15.765625 4.5 27.984375 
Q 4.5 40.234375 11.03125 48.0625 
Q 17.578125 55.90625 27.59375 55.90625 
Q 33.296875 55.90625 37.640625 53.65625 
Q 42 51.421875 45.609375 46.578125 
L 45.609375 54.6875 
L 63.1875 54.6875 
L 63.1875 5.515625 
Q 63.1875 -7.671875 54.859375 -14.625 
Q 46.53125 -21.578125 30.71875 -21.578125 
Q 25.59375 -21.578125 20.796875 -20.796875 
Q 16.015625 -20.015625 11.1875 -18.40625 
L 11.1875 -4.78125 
Q 15.765625 -7.421875 20.15625 -8.71875 
Q 24.5625 -10.015625 29 -10.015625 
Q 37.59375 -10.015625 41.59375 -6.25 
Q 45.609375 -2.484375 45.609375 5.515625 
z
M 34.078125 43.3125 
Q 28.65625 43.3125 25.625 39.296875 
Q 22.609375 35.296875 22.609375 27.984375 
Q 22.609375 20.453125 25.53125 16.578125 
Q 28.46875 12.703125 34.078125 12.703125 
Q 39.546875 12.703125 42.578125 16.703125 
Q 45.609375 20.703125 45.609375 27.984375 
Q 45.609375 35.296875 42.578125 39.296875 
Q 39.546875 43.3125 34.078125 43.3125 
z
" id="DejaVuSans-Bold-103"/>
   </defs>
   <g style="fill:#ffffff;" transform="translate(323.58875 20.7975)scale(0.16 -0.16)">
    <use xlink:href="#DejaVuSans-Bold-67"/>
    <use x="73.388672" xlink:href="#DejaVuSans-Bold-79"/>
    <use x="155.773438" xlink:href="#DejaVuSans-Bold-86"/>
    <use x="233.166016" xlink:href="#DejaVuSans-Bold-73"/>
    <use x="270.373047" xlink:href="#DejaVuSans-Bold-68"/>
    <use x="355.255859" xlink:href="#DejaVuSans-Bold-45"/>
    <use x="396.759766" xlink:href="#DejaVuSans-Bold-49"/>
    <use x="466.339844" xlink:href="#DejaVuSans-Bold-57"/>
    <use x="535.919922" xlink:href="#DejaVuSans-Bold-32"/>
    <use x="570.734375" xlink:href="#DejaVuSans-Bold-99"/>
    <use x="630.011719" xlink:href="#DejaVuSans-Bold-111"/>
    <use x="698.712891" xlink:href="#DejaVuSans-Bold-110"/>
    <use x="769.904297" xlink:href="#DejaVuSans-Bold-102"/>
    <use x="813.410156" xlink:href="#DejaVuSans-Bold-105"/>
    <use x="847.6875" xlink:href="#DejaVuSans-Bold-114"/>
    <use x="897.003906" xlink:href="#DejaVuSans-Bold-109"/>
    <use x="1001.203125" xlink:href="#DejaVuSans-Bold-101"/>
    <use x="1069.025391" xlink:href="#DejaVuSans-Bold-100"/>
    <use x="1140.607422" xlink:href="#DejaVuSans-Bold-32"/>
    <use x="1175.421875" xlink:href="#DejaVuSans-Bold-99"/>
    <use x="1234.699219" xlink:href="#DejaVuSans-Bold-97"/>
    <use x="1302.179688" xlink:href="#DejaVuSans-Bold-115"/>
    <use x="1361.701172" xlink:href="#DejaVuSans-Bold-101"/>
    <use x="1429.523438" xlink:href="#DejaVuSans-Bold-115"/>
    <use x="1489.044922" xlink:href="#DejaVuSans-Bold-32"/>
    <use x="1523.859375" xlink:href="#DejaVuSans-Bold-97"/>
    <use x="1591.339844" xlink:href="#DejaVuSans-Bold-110"/>
    <use x="1662.53125" xlink:href="#DejaVuSans-Bold-100"/>
    <use x="1734.113281" xlink:href="#DejaVuSans-Bold-32"/>
    <use x="1768.927734" xlink:href="#DejaVuSans-Bold-102"/>
    <use x="1812.433594" xlink:href="#DejaVuSans-Bold-111"/>
    <use x="1881.134766" xlink:href="#DejaVuSans-Bold-114"/>
    <use x="1930.451172" xlink:href="#DejaVuSans-Bold-101"/>
    <use x="1998.273438" xlink:href="#DejaVuSans-Bold-99"/>
    <use x="2057.550781" xlink:href="#DejaVuSans-Bold-97"/>
    <use x="2125.03125" xlink:href="#DejaVuSans-Bold-115"/>
    <use x="2184.552734" xlink:href="#DejaVuSans-Bold-116"/>
    <use x="2232.355469" xlink:href="#DejaVuSans-Bold-105"/>
    <use x="2266.632812" xlink:href="#DejaVuSans-Bold-110"/>
    <use x="2337.824219" xlink:href="#DejaVuSans-Bold-103"/>
    <use x="2409.40625" xlink:href="#DejaVuSans-Bold-32"/>
    <use x="2444.220703" xlink:href="#DejaVuSans-Bold-105"/>
    <use x="2478.498047" xlink:href="#DejaVuSans-Bold-110"/>
    <use x="2549.689453" xlink:href="#DejaVuSans-Bold-32"/>
    <use x="2584.503906" xlink:href="#DejaVuSans-Bold-73"/>
    <use x="2621.710938" xlink:href="#DejaVuSans-Bold-110"/>
    <use x="2692.902344" xlink:href="#DejaVuSans-Bold-100"/>
    <use x="2764.484375" xlink:href="#DejaVuSans-Bold-105"/>
    <use x="2798.761719" xlink:href="#DejaVuSans-Bold-97"/>
    <use x="2866.242188" xlink:href="#DejaVuSans-Bold-32"/>
    <use x="2901.056641" xlink:href="#DejaVuSans-Bold-116"/>
    <use x="2948.859375" xlink:href="#DejaVuSans-Bold-105"/>
    <use x="2983.136719" xlink:href="#DejaVuSans-Bold-109"/>
    <use x="3087.335938" xlink:href="#DejaVuSans-Bold-101"/>
   </g>
  </g>
 </g>
 <defs>
  <clipPath id="pc11bf931c9">
   <rect height="349.92" width="1002.24" x="92.16" y="51.84"/>
  </clipPath>
 </defs>
</svg>
