<?xml version="1.0" encoding="utf-8" standalone="no"?>
<!DOCTYPE svg PUBLIC "-//W3C//DTD SVG 1.1//EN"
  "http://www.w3.org/Graphics/SVG/1.1/DTD/svg11.dtd">
<!-- Created with matplotlib (https://matplotlib.org/) -->
<svg height="432pt" version="1.1" viewBox="0 0 1152 432" width="1152pt" xmlns="http://www.w3.org/2000/svg" xmlns:xlink="http://www.w3.org/1999/xlink">
 <defs>
  <style type="text/css">
*{stroke-linecap:butt;stroke-linejoin:round;}
  </style>
 </defs>
 <g id="figure_1">
  <g id="patch_1">
   <path d="M 0 432 
L 1152 432 
L 1152 0 
L 0 0 
z
" style="fill:#f0f0f0;"/>
  </g>
  <g id="axes_1">
   <g id="patch_2">
    <path d="M 92.16 401.76 
L 1094.4 401.76 
L 1094.4 51.84 
L 92.16 51.84 
z
" style="fill:#f0f0f0;"/>
   </g>
   <g id="matplotlib.axis_1">
    <g id="xtick_1">
     <g id="line2d_1">
      <path clip-path="url(#pff2021eb87)" d="M 137.716364 401.76 
L 137.716364 51.84 
" style="fill:none;stroke:#cbcbcb;"/>
     </g>
     <g id="line2d_2"/>
     <g id="text_1">
      <!-- 0 -->
      <defs>
       <path d="M 31.78125 66.40625 
Q 24.171875 66.40625 20.328125 58.90625 
Q 16.5 51.421875 16.5 36.375 
Q 16.5 21.390625 20.328125 13.890625 
Q 24.171875 6.390625 31.78125 6.390625 
Q 39.453125 6.390625 43.28125 13.890625 
Q 47.125 21.390625 47.125 36.375 
Q 47.125 51.421875 43.28125 58.90625 
Q 39.453125 66.40625 31.78125 66.40625 
z
M 31.78125 74.21875 
Q 44.046875 74.21875 50.515625 64.515625 
Q 56.984375 54.828125 56.984375 36.375 
Q 56.984375 17.96875 50.515625 8.265625 
Q 44.046875 -1.421875 31.78125 -1.421875 
Q 19.53125 -1.421875 13.0625 8.265625 
Q 6.59375 17.96875 6.59375 36.375 
Q 6.59375 54.828125 13.0625 64.515625 
Q 19.53125 74.21875 31.78125 74.21875 
z
" id="DejaVuSans-48"/>
      </defs>
      <g transform="translate(133.262614 415.897813)scale(0.14 -0.14)">
       <use xlink:href="#DejaVuSans-48"/>
      </g>
     </g>
    </g>
    <g id="xtick_2">
     <g id="line2d_3">
      <path clip-path="url(#pff2021eb87)" d="M 263.389091 401.76 
L 263.389091 51.84 
" style="fill:none;stroke:#cbcbcb;"/>
     </g>
     <g id="line2d_4"/>
     <g id="text_2">
      <!-- 20 -->
      <defs>
       <path d="M 19.1875 8.296875 
L 53.609375 8.296875 
L 53.609375 0 
L 7.328125 0 
L 7.328125 8.296875 
Q 12.9375 14.109375 22.625 23.890625 
Q 32.328125 33.6875 34.8125 36.53125 
Q 39.546875 41.84375 41.421875 45.53125 
Q 43.3125 49.21875 43.3125 52.78125 
Q 43.3125 58.59375 39.234375 62.25 
Q 35.15625 65.921875 28.609375 65.921875 
Q 23.96875 65.921875 18.8125 64.3125 
Q 13.671875 62.703125 7.8125 59.421875 
L 7.8125 69.390625 
Q 13.765625 71.78125 18.9375 73 
Q 24.125 74.21875 28.421875 74.21875 
Q 39.75 74.21875 46.484375 68.546875 
Q 53.21875 62.890625 53.21875 53.421875 
Q 53.21875 48.921875 51.53125 44.890625 
Q 49.859375 40.875 45.40625 35.40625 
Q 44.1875 33.984375 37.640625 27.21875 
Q 31.109375 20.453125 19.1875 8.296875 
z
" id="DejaVuSans-50"/>
      </defs>
      <g transform="translate(254.481591 415.897813)scale(0.14 -0.14)">
       <use xlink:href="#DejaVuSans-50"/>
       <use x="63.623047" xlink:href="#DejaVuSans-48"/>
      </g>
     </g>
    </g>
    <g id="xtick_3">
     <g id="line2d_5">
      <path clip-path="url(#pff2021eb87)" d="M 389.061818 401.76 
L 389.061818 51.84 
" style="fill:none;stroke:#cbcbcb;"/>
     </g>
     <g id="line2d_6"/>
     <g id="text_3">
      <!-- 40 -->
      <defs>
       <path d="M 37.796875 64.3125 
L 12.890625 25.390625 
L 37.796875 25.390625 
z
M 35.203125 72.90625 
L 47.609375 72.90625 
L 47.609375 25.390625 
L 58.015625 25.390625 
L 58.015625 17.1875 
L 47.609375 17.1875 
L 47.609375 0 
L 37.796875 0 
L 37.796875 17.1875 
L 4.890625 17.1875 
L 4.890625 26.703125 
z
" id="DejaVuSans-52"/>
      </defs>
      <g transform="translate(380.154318 415.897813)scale(0.14 -0.14)">
       <use xlink:href="#DejaVuSans-52"/>
       <use x="63.623047" xlink:href="#DejaVuSans-48"/>
      </g>
     </g>
    </g>
    <g id="xtick_4">
     <g id="line2d_7">
      <path clip-path="url(#pff2021eb87)" d="M 514.734545 401.76 
L 514.734545 51.84 
" style="fill:none;stroke:#cbcbcb;"/>
     </g>
     <g id="line2d_8"/>
     <g id="text_4">
      <!-- 60 -->
      <defs>
       <path d="M 33.015625 40.375 
Q 26.375 40.375 22.484375 35.828125 
Q 18.609375 31.296875 18.609375 23.390625 
Q 18.609375 15.53125 22.484375 10.953125 
Q 26.375 6.390625 33.015625 6.390625 
Q 39.65625 6.390625 43.53125 10.953125 
Q 47.40625 15.53125 47.40625 23.390625 
Q 47.40625 31.296875 43.53125 35.828125 
Q 39.65625 40.375 33.015625 40.375 
z
M 52.59375 71.296875 
L 52.59375 62.3125 
Q 48.875 64.0625 45.09375 64.984375 
Q 41.3125 65.921875 37.59375 65.921875 
Q 27.828125 65.921875 22.671875 59.328125 
Q 17.53125 52.734375 16.796875 39.40625 
Q 19.671875 43.65625 24.015625 45.921875 
Q 28.375 48.1875 33.59375 48.1875 
Q 44.578125 48.1875 50.953125 41.515625 
Q 57.328125 34.859375 57.328125 23.390625 
Q 57.328125 12.15625 50.6875 5.359375 
Q 44.046875 -1.421875 33.015625 -1.421875 
Q 20.359375 -1.421875 13.671875 8.265625 
Q 6.984375 17.96875 6.984375 36.375 
Q 6.984375 53.65625 15.1875 63.9375 
Q 23.390625 74.21875 37.203125 74.21875 
Q 40.921875 74.21875 44.703125 73.484375 
Q 48.484375 72.75 52.59375 71.296875 
z
" id="DejaVuSans-54"/>
      </defs>
      <g transform="translate(505.827045 415.897813)scale(0.14 -0.14)">
       <use xlink:href="#DejaVuSans-54"/>
       <use x="63.623047" xlink:href="#DejaVuSans-48"/>
      </g>
     </g>
    </g>
    <g id="xtick_5">
     <g id="line2d_9">
      <path clip-path="url(#pff2021eb87)" d="M 640.407273 401.76 
L 640.407273 51.84 
" style="fill:none;stroke:#cbcbcb;"/>
     </g>
     <g id="line2d_10"/>
     <g id="text_5">
      <!-- 80 -->
      <defs>
       <path d="M 31.78125 34.625 
Q 24.75 34.625 20.71875 30.859375 
Q 16.703125 27.09375 16.703125 20.515625 
Q 16.703125 13.921875 20.71875 10.15625 
Q 24.75 6.390625 31.78125 6.390625 
Q 38.8125 6.390625 42.859375 10.171875 
Q 46.921875 13.96875 46.921875 20.515625 
Q 46.921875 27.09375 42.890625 30.859375 
Q 38.875 34.625 31.78125 34.625 
z
M 21.921875 38.8125 
Q 15.578125 40.375 12.03125 44.71875 
Q 8.5 49.078125 8.5 55.328125 
Q 8.5 64.0625 14.71875 69.140625 
Q 20.953125 74.21875 31.78125 74.21875 
Q 42.671875 74.21875 48.875 69.140625 
Q 55.078125 64.0625 55.078125 55.328125 
Q 55.078125 49.078125 51.53125 44.71875 
Q 48 40.375 41.703125 38.8125 
Q 48.828125 37.15625 52.796875 32.3125 
Q 56.78125 27.484375 56.78125 20.515625 
Q 56.78125 9.90625 50.3125 4.234375 
Q 43.84375 -1.421875 31.78125 -1.421875 
Q 19.734375 -1.421875 13.25 4.234375 
Q 6.78125 9.90625 6.78125 20.515625 
Q 6.78125 27.484375 10.78125 32.3125 
Q 14.796875 37.15625 21.921875 38.8125 
z
M 18.3125 54.390625 
Q 18.3125 48.734375 21.84375 45.5625 
Q 25.390625 42.390625 31.78125 42.390625 
Q 38.140625 42.390625 41.71875 45.5625 
Q 45.3125 48.734375 45.3125 54.390625 
Q 45.3125 60.0625 41.71875 63.234375 
Q 38.140625 66.40625 31.78125 66.40625 
Q 25.390625 66.40625 21.84375 63.234375 
Q 18.3125 60.0625 18.3125 54.390625 
z
" id="DejaVuSans-56"/>
      </defs>
      <g transform="translate(631.499773 415.897813)scale(0.14 -0.14)">
       <use xlink:href="#DejaVuSans-56"/>
       <use x="63.623047" xlink:href="#DejaVuSans-48"/>
      </g>
     </g>
    </g>
    <g id="xtick_6">
     <g id="line2d_11">
      <path clip-path="url(#pff2021eb87)" d="M 766.08 401.76 
L 766.08 51.84 
" style="fill:none;stroke:#cbcbcb;"/>
     </g>
     <g id="line2d_12"/>
     <g id="text_6">
      <!-- 100 -->
      <defs>
       <path d="M 12.40625 8.296875 
L 28.515625 8.296875 
L 28.515625 63.921875 
L 10.984375 60.40625 
L 10.984375 69.390625 
L 28.421875 72.90625 
L 38.28125 72.90625 
L 38.28125 8.296875 
L 54.390625 8.296875 
L 54.390625 0 
L 12.40625 0 
z
" id="DejaVuSans-49"/>
      </defs>
      <g transform="translate(752.71875 415.897813)scale(0.14 -0.14)">
       <use xlink:href="#DejaVuSans-49"/>
       <use x="63.623047" xlink:href="#DejaVuSans-48"/>
       <use x="127.246094" xlink:href="#DejaVuSans-48"/>
      </g>
     </g>
    </g>
    <g id="xtick_7">
     <g id="line2d_13">
      <path clip-path="url(#pff2021eb87)" d="M 891.752727 401.76 
L 891.752727 51.84 
" style="fill:none;stroke:#cbcbcb;"/>
     </g>
     <g id="line2d_14"/>
     <g id="text_7">
      <!-- 120 -->
      <g transform="translate(878.391477 415.897813)scale(0.14 -0.14)">
       <use xlink:href="#DejaVuSans-49"/>
       <use x="63.623047" xlink:href="#DejaVuSans-50"/>
       <use x="127.246094" xlink:href="#DejaVuSans-48"/>
      </g>
     </g>
    </g>
    <g id="xtick_8">
     <g id="line2d_15">
      <path clip-path="url(#pff2021eb87)" d="M 1017.425455 401.76 
L 1017.425455 51.84 
" style="fill:none;stroke:#cbcbcb;"/>
     </g>
     <g id="line2d_16"/>
     <g id="text_8">
      <!-- 140 -->
      <g transform="translate(1004.064205 415.897813)scale(0.14 -0.14)">
       <use xlink:href="#DejaVuSans-49"/>
       <use x="63.623047" xlink:href="#DejaVuSans-52"/>
       <use x="127.246094" xlink:href="#DejaVuSans-48"/>
      </g>
     </g>
    </g>
    <g id="text_9">
     <!-- Days since january 30th -->
     <defs>
      <path d="M 19.671875 64.796875 
L 19.671875 8.109375 
L 31.59375 8.109375 
Q 46.6875 8.109375 53.6875 14.9375 
Q 60.6875 21.78125 60.6875 36.53125 
Q 60.6875 51.171875 53.6875 57.984375 
Q 46.6875 64.796875 31.59375 64.796875 
z
M 9.8125 72.90625 
L 30.078125 72.90625 
Q 51.265625 72.90625 61.171875 64.09375 
Q 71.09375 55.28125 71.09375 36.53125 
Q 71.09375 17.671875 61.125 8.828125 
Q 51.171875 0 30.078125 0 
L 9.8125 0 
z
" id="DejaVuSans-68"/>
      <path d="M 34.28125 27.484375 
Q 23.390625 27.484375 19.1875 25 
Q 14.984375 22.515625 14.984375 16.5 
Q 14.984375 11.71875 18.140625 8.90625 
Q 21.296875 6.109375 26.703125 6.109375 
Q 34.1875 6.109375 38.703125 11.40625 
Q 43.21875 16.703125 43.21875 25.484375 
L 43.21875 27.484375 
z
M 52.203125 31.203125 
L 52.203125 0 
L 43.21875 0 
L 43.21875 8.296875 
Q 40.140625 3.328125 35.546875 0.953125 
Q 30.953125 -1.421875 24.3125 -1.421875 
Q 15.921875 -1.421875 10.953125 3.296875 
Q 6 8.015625 6 15.921875 
Q 6 25.140625 12.171875 29.828125 
Q 18.359375 34.515625 30.609375 34.515625 
L 43.21875 34.515625 
L 43.21875 35.40625 
Q 43.21875 41.609375 39.140625 45 
Q 35.0625 48.390625 27.6875 48.390625 
Q 23 48.390625 18.546875 47.265625 
Q 14.109375 46.140625 10.015625 43.890625 
L 10.015625 52.203125 
Q 14.9375 54.109375 19.578125 55.046875 
Q 24.21875 56 28.609375 56 
Q 40.484375 56 46.34375 49.84375 
Q 52.203125 43.703125 52.203125 31.203125 
z
" id="DejaVuSans-97"/>
      <path d="M 32.171875 -5.078125 
Q 28.375 -14.84375 24.75 -17.8125 
Q 21.140625 -20.796875 15.09375 -20.796875 
L 7.90625 -20.796875 
L 7.90625 -13.28125 
L 13.1875 -13.28125 
Q 16.890625 -13.28125 18.9375 -11.515625 
Q 21 -9.765625 23.484375 -3.21875 
L 25.09375 0.875 
L 2.984375 54.6875 
L 12.5 54.6875 
L 29.59375 11.921875 
L 46.6875 54.6875 
L 56.203125 54.6875 
z
" id="DejaVuSans-121"/>
      <path d="M 44.28125 53.078125 
L 44.28125 44.578125 
Q 40.484375 46.53125 36.375 47.5 
Q 32.28125 48.484375 27.875 48.484375 
Q 21.1875 48.484375 17.84375 46.4375 
Q 14.5 44.390625 14.5 40.28125 
Q 14.5 37.15625 16.890625 35.375 
Q 19.28125 33.59375 26.515625 31.984375 
L 29.59375 31.296875 
Q 39.15625 29.25 43.1875 25.515625 
Q 47.21875 21.78125 47.21875 15.09375 
Q 47.21875 7.46875 41.1875 3.015625 
Q 35.15625 -1.421875 24.609375 -1.421875 
Q 20.21875 -1.421875 15.453125 -0.5625 
Q 10.6875 0.296875 5.421875 2 
L 5.421875 11.28125 
Q 10.40625 8.6875 15.234375 7.390625 
Q 20.0625 6.109375 24.8125 6.109375 
Q 31.15625 6.109375 34.5625 8.28125 
Q 37.984375 10.453125 37.984375 14.40625 
Q 37.984375 18.0625 35.515625 20.015625 
Q 33.0625 21.96875 24.703125 23.78125 
L 21.578125 24.515625 
Q 13.234375 26.265625 9.515625 29.90625 
Q 5.8125 33.546875 5.8125 39.890625 
Q 5.8125 47.609375 11.28125 51.796875 
Q 16.75 56 26.8125 56 
Q 31.78125 56 36.171875 55.265625 
Q 40.578125 54.546875 44.28125 53.078125 
z
" id="DejaVuSans-115"/>
      <path id="DejaVuSans-32"/>
      <path d="M 9.421875 54.6875 
L 18.40625 54.6875 
L 18.40625 0 
L 9.421875 0 
z
M 9.421875 75.984375 
L 18.40625 75.984375 
L 18.40625 64.59375 
L 9.421875 64.59375 
z
" id="DejaVuSans-105"/>
      <path d="M 54.890625 33.015625 
L 54.890625 0 
L 45.90625 0 
L 45.90625 32.71875 
Q 45.90625 40.484375 42.875 44.328125 
Q 39.84375 48.1875 33.796875 48.1875 
Q 26.515625 48.1875 22.3125 43.546875 
Q 18.109375 38.921875 18.109375 30.90625 
L 18.109375 0 
L 9.078125 0 
L 9.078125 54.6875 
L 18.109375 54.6875 
L 18.109375 46.1875 
Q 21.34375 51.125 25.703125 53.5625 
Q 30.078125 56 35.796875 56 
Q 45.21875 56 50.046875 50.171875 
Q 54.890625 44.34375 54.890625 33.015625 
z
" id="DejaVuSans-110"/>
      <path d="M 48.78125 52.59375 
L 48.78125 44.1875 
Q 44.96875 46.296875 41.140625 47.34375 
Q 37.3125 48.390625 33.40625 48.390625 
Q 24.65625 48.390625 19.8125 42.84375 
Q 14.984375 37.3125 14.984375 27.296875 
Q 14.984375 17.28125 19.8125 11.734375 
Q 24.65625 6.203125 33.40625 6.203125 
Q 37.3125 6.203125 41.140625 7.25 
Q 44.96875 8.296875 48.78125 10.40625 
L 48.78125 2.09375 
Q 45.015625 0.34375 40.984375 -0.53125 
Q 36.96875 -1.421875 32.421875 -1.421875 
Q 20.0625 -1.421875 12.78125 6.34375 
Q 5.515625 14.109375 5.515625 27.296875 
Q 5.515625 40.671875 12.859375 48.328125 
Q 20.21875 56 33.015625 56 
Q 37.15625 56 41.109375 55.140625 
Q 45.0625 54.296875 48.78125 52.59375 
z
" id="DejaVuSans-99"/>
      <path d="M 56.203125 29.59375 
L 56.203125 25.203125 
L 14.890625 25.203125 
Q 15.484375 15.921875 20.484375 11.0625 
Q 25.484375 6.203125 34.421875 6.203125 
Q 39.59375 6.203125 44.453125 7.46875 
Q 49.3125 8.734375 54.109375 11.28125 
L 54.109375 2.78125 
Q 49.265625 0.734375 44.1875 -0.34375 
Q 39.109375 -1.421875 33.890625 -1.421875 
Q 20.796875 -1.421875 13.15625 6.1875 
Q 5.515625 13.8125 5.515625 26.8125 
Q 5.515625 40.234375 12.765625 48.109375 
Q 20.015625 56 32.328125 56 
Q 43.359375 56 49.78125 48.890625 
Q 56.203125 41.796875 56.203125 29.59375 
z
M 47.21875 32.234375 
Q 47.125 39.59375 43.09375 43.984375 
Q 39.0625 48.390625 32.421875 48.390625 
Q 24.90625 48.390625 20.390625 44.140625 
Q 15.875 39.890625 15.1875 32.171875 
z
" id="DejaVuSans-101"/>
      <path d="M 9.421875 54.6875 
L 18.40625 54.6875 
L 18.40625 -0.984375 
Q 18.40625 -11.421875 14.421875 -16.109375 
Q 10.453125 -20.796875 1.609375 -20.796875 
L -1.8125 -20.796875 
L -1.8125 -13.1875 
L 0.59375 -13.1875 
Q 5.71875 -13.1875 7.5625 -10.8125 
Q 9.421875 -8.453125 9.421875 -0.984375 
z
M 9.421875 75.984375 
L 18.40625 75.984375 
L 18.40625 64.59375 
L 9.421875 64.59375 
z
" id="DejaVuSans-106"/>
      <path d="M 8.5 21.578125 
L 8.5 54.6875 
L 17.484375 54.6875 
L 17.484375 21.921875 
Q 17.484375 14.15625 20.5 10.265625 
Q 23.53125 6.390625 29.59375 6.390625 
Q 36.859375 6.390625 41.078125 11.03125 
Q 45.3125 15.671875 45.3125 23.6875 
L 45.3125 54.6875 
L 54.296875 54.6875 
L 54.296875 0 
L 45.3125 0 
L 45.3125 8.40625 
Q 42.046875 3.421875 37.71875 1 
Q 33.40625 -1.421875 27.6875 -1.421875 
Q 18.265625 -1.421875 13.375 4.4375 
Q 8.5 10.296875 8.5 21.578125 
z
M 31.109375 56 
z
" id="DejaVuSans-117"/>
      <path d="M 41.109375 46.296875 
Q 39.59375 47.171875 37.8125 47.578125 
Q 36.03125 48 33.890625 48 
Q 26.265625 48 22.1875 43.046875 
Q 18.109375 38.09375 18.109375 28.8125 
L 18.109375 0 
L 9.078125 0 
L 9.078125 54.6875 
L 18.109375 54.6875 
L 18.109375 46.1875 
Q 20.953125 51.171875 25.484375 53.578125 
Q 30.03125 56 36.53125 56 
Q 37.453125 56 38.578125 55.875 
Q 39.703125 55.765625 41.0625 55.515625 
z
" id="DejaVuSans-114"/>
      <path d="M 40.578125 39.3125 
Q 47.65625 37.796875 51.625 33 
Q 55.609375 28.21875 55.609375 21.1875 
Q 55.609375 10.40625 48.1875 4.484375 
Q 40.765625 -1.421875 27.09375 -1.421875 
Q 22.515625 -1.421875 17.65625 -0.515625 
Q 12.796875 0.390625 7.625 2.203125 
L 7.625 11.71875 
Q 11.71875 9.328125 16.59375 8.109375 
Q 21.484375 6.890625 26.8125 6.890625 
Q 36.078125 6.890625 40.9375 10.546875 
Q 45.796875 14.203125 45.796875 21.1875 
Q 45.796875 27.640625 41.28125 31.265625 
Q 36.765625 34.90625 28.71875 34.90625 
L 20.21875 34.90625 
L 20.21875 43.015625 
L 29.109375 43.015625 
Q 36.375 43.015625 40.234375 45.921875 
Q 44.09375 48.828125 44.09375 54.296875 
Q 44.09375 59.90625 40.109375 62.90625 
Q 36.140625 65.921875 28.71875 65.921875 
Q 24.65625 65.921875 20.015625 65.03125 
Q 15.375 64.15625 9.8125 62.3125 
L 9.8125 71.09375 
Q 15.4375 72.65625 20.34375 73.4375 
Q 25.25 74.21875 29.59375 74.21875 
Q 40.828125 74.21875 47.359375 69.109375 
Q 53.90625 64.015625 53.90625 55.328125 
Q 53.90625 49.265625 50.4375 45.09375 
Q 46.96875 40.921875 40.578125 39.3125 
z
" id="DejaVuSans-51"/>
      <path d="M 18.3125 70.21875 
L 18.3125 54.6875 
L 36.8125 54.6875 
L 36.8125 47.703125 
L 18.3125 47.703125 
L 18.3125 18.015625 
Q 18.3125 11.328125 20.140625 9.421875 
Q 21.96875 7.515625 27.59375 7.515625 
L 36.8125 7.515625 
L 36.8125 0 
L 27.59375 0 
Q 17.1875 0 13.234375 3.875 
Q 9.28125 7.765625 9.28125 18.015625 
L 9.28125 47.703125 
L 2.6875 47.703125 
L 2.6875 54.6875 
L 9.28125 54.6875 
L 9.28125 70.21875 
z
" id="DejaVuSans-116"/>
      <path d="M 54.890625 33.015625 
L 54.890625 0 
L 45.90625 0 
L 45.90625 32.71875 
Q 45.90625 40.484375 42.875 44.328125 
Q 39.84375 48.1875 33.796875 48.1875 
Q 26.515625 48.1875 22.3125 43.546875 
Q 18.109375 38.921875 18.109375 30.90625 
L 18.109375 0 
L 9.078125 0 
L 9.078125 75.984375 
L 18.109375 75.984375 
L 18.109375 46.1875 
Q 21.34375 51.125 25.703125 53.5625 
Q 30.078125 56 35.796875 56 
Q 45.21875 56 50.046875 50.171875 
Q 54.890625 44.34375 54.890625 33.015625 
z
" id="DejaVuSans-104"/>
     </defs>
     <g transform="translate(491.481187 435.57475)scale(0.168 -0.168)">
      <use xlink:href="#DejaVuSans-68"/>
      <use x="77.001953" xlink:href="#DejaVuSans-97"/>
      <use x="138.28125" xlink:href="#DejaVuSans-121"/>
      <use x="197.460938" xlink:href="#DejaVuSans-115"/>
      <use x="249.560547" xlink:href="#DejaVuSans-32"/>
      <use x="281.347656" xlink:href="#DejaVuSans-115"/>
      <use x="333.447266" xlink:href="#DejaVuSans-105"/>
      <use x="361.230469" xlink:href="#DejaVuSans-110"/>
      <use x="424.609375" xlink:href="#DejaVuSans-99"/>
      <use x="479.589844" xlink:href="#DejaVuSans-101"/>
      <use x="541.113281" xlink:href="#DejaVuSans-32"/>
      <use x="572.900391" xlink:href="#DejaVuSans-106"/>
      <use x="600.683594" xlink:href="#DejaVuSans-97"/>
      <use x="661.962891" xlink:href="#DejaVuSans-110"/>
      <use x="725.341797" xlink:href="#DejaVuSans-117"/>
      <use x="788.720703" xlink:href="#DejaVuSans-97"/>
      <use x="850" xlink:href="#DejaVuSans-114"/>
      <use x="891.113281" xlink:href="#DejaVuSans-121"/>
      <use x="950.292969" xlink:href="#DejaVuSans-32"/>
      <use x="982.080078" xlink:href="#DejaVuSans-51"/>
      <use x="1045.703125" xlink:href="#DejaVuSans-48"/>
      <use x="1109.326172" xlink:href="#DejaVuSans-116"/>
      <use x="1148.535156" xlink:href="#DejaVuSans-104"/>
     </g>
    </g>
   </g>
   <g id="matplotlib.axis_2">
    <g id="ytick_1">
     <g id="line2d_17">
      <path clip-path="url(#pff2021eb87)" d="M 92.16 385.854936 
L 1094.4 385.854936 
" style="fill:none;stroke:#cbcbcb;"/>
     </g>
     <g id="line2d_18"/>
     <g id="text_10">
      <!-- 0 -->
      <g transform="translate(79.7525 391.173842)scale(0.14 -0.14)">
       <use xlink:href="#DejaVuSans-48"/>
      </g>
     </g>
    </g>
    <g id="ytick_2">
     <g id="line2d_19">
      <path clip-path="url(#pff2021eb87)" d="M 92.16 346.779726 
L 1094.4 346.779726 
" style="fill:none;stroke:#cbcbcb;"/>
     </g>
     <g id="line2d_20"/>
     <g id="text_11">
      <!-- 100000 -->
      <g transform="translate(35.215 352.098632)scale(0.14 -0.14)">
       <use xlink:href="#DejaVuSans-49"/>
       <use x="63.623047" xlink:href="#DejaVuSans-48"/>
       <use x="127.246094" xlink:href="#DejaVuSans-48"/>
       <use x="190.869141" xlink:href="#DejaVuSans-48"/>
       <use x="254.492188" xlink:href="#DejaVuSans-48"/>
       <use x="318.115234" xlink:href="#DejaVuSans-48"/>
      </g>
     </g>
    </g>
    <g id="ytick_3">
     <g id="line2d_21">
      <path clip-path="url(#pff2021eb87)" d="M 92.16 307.704516 
L 1094.4 307.704516 
" style="fill:none;stroke:#cbcbcb;"/>
     </g>
     <g id="line2d_22"/>
     <g id="text_12">
      <!-- 200000 -->
      <g transform="translate(35.215 313.023422)scale(0.14 -0.14)">
       <use xlink:href="#DejaVuSans-50"/>
       <use x="63.623047" xlink:href="#DejaVuSans-48"/>
       <use x="127.246094" xlink:href="#DejaVuSans-48"/>
       <use x="190.869141" xlink:href="#DejaVuSans-48"/>
       <use x="254.492188" xlink:href="#DejaVuSans-48"/>
       <use x="318.115234" xlink:href="#DejaVuSans-48"/>
      </g>
     </g>
    </g>
    <g id="ytick_4">
     <g id="line2d_23">
      <path clip-path="url(#pff2021eb87)" d="M 92.16 268.629306 
L 1094.4 268.629306 
" style="fill:none;stroke:#cbcbcb;"/>
     </g>
     <g id="line2d_24"/>
     <g id="text_13">
      <!-- 300000 -->
      <g transform="translate(35.215 273.948212)scale(0.14 -0.14)">
       <use xlink:href="#DejaVuSans-51"/>
       <use x="63.623047" xlink:href="#DejaVuSans-48"/>
       <use x="127.246094" xlink:href="#DejaVuSans-48"/>
       <use x="190.869141" xlink:href="#DejaVuSans-48"/>
       <use x="254.492188" xlink:href="#DejaVuSans-48"/>
       <use x="318.115234" xlink:href="#DejaVuSans-48"/>
      </g>
     </g>
    </g>
    <g id="ytick_5">
     <g id="line2d_25">
      <path clip-path="url(#pff2021eb87)" d="M 92.16 229.554095 
L 1094.4 229.554095 
" style="fill:none;stroke:#cbcbcb;"/>
     </g>
     <g id="line2d_26"/>
     <g id="text_14">
      <!-- 400000 -->
      <g transform="translate(35.215 234.873002)scale(0.14 -0.14)">
       <use xlink:href="#DejaVuSans-52"/>
       <use x="63.623047" xlink:href="#DejaVuSans-48"/>
       <use x="127.246094" xlink:href="#DejaVuSans-48"/>
       <use x="190.869141" xlink:href="#DejaVuSans-48"/>
       <use x="254.492188" xlink:href="#DejaVuSans-48"/>
       <use x="318.115234" xlink:href="#DejaVuSans-48"/>
      </g>
     </g>
    </g>
    <g id="ytick_6">
     <g id="line2d_27">
      <path clip-path="url(#pff2021eb87)" d="M 92.16 190.478885 
L 1094.4 190.478885 
" style="fill:none;stroke:#cbcbcb;"/>
     </g>
     <g id="line2d_28"/>
     <g id="text_15">
      <!-- 500000 -->
      <defs>
       <path d="M 10.796875 72.90625 
L 49.515625 72.90625 
L 49.515625 64.59375 
L 19.828125 64.59375 
L 19.828125 46.734375 
Q 21.96875 47.46875 24.109375 47.828125 
Q 26.265625 48.1875 28.421875 48.1875 
Q 40.625 48.1875 47.75 41.5 
Q 54.890625 34.8125 54.890625 23.390625 
Q 54.890625 11.625 47.5625 5.09375 
Q 40.234375 -1.421875 26.90625 -1.421875 
Q 22.3125 -1.421875 17.546875 -0.640625 
Q 12.796875 0.140625 7.71875 1.703125 
L 7.71875 11.625 
Q 12.109375 9.234375 16.796875 8.0625 
Q 21.484375 6.890625 26.703125 6.890625 
Q 35.15625 6.890625 40.078125 11.328125 
Q 45.015625 15.765625 45.015625 23.390625 
Q 45.015625 31 40.078125 35.4375 
Q 35.15625 39.890625 26.703125 39.890625 
Q 22.75 39.890625 18.8125 39.015625 
Q 14.890625 38.140625 10.796875 36.28125 
z
" id="DejaVuSans-53"/>
      </defs>
      <g transform="translate(35.215 195.797792)scale(0.14 -0.14)">
       <use xlink:href="#DejaVuSans-53"/>
       <use x="63.623047" xlink:href="#DejaVuSans-48"/>
       <use x="127.246094" xlink:href="#DejaVuSans-48"/>
       <use x="190.869141" xlink:href="#DejaVuSans-48"/>
       <use x="254.492188" xlink:href="#DejaVuSans-48"/>
       <use x="318.115234" xlink:href="#DejaVuSans-48"/>
      </g>
     </g>
    </g>
    <g id="ytick_7">
     <g id="line2d_29">
      <path clip-path="url(#pff2021eb87)" d="M 92.16 151.403675 
L 1094.4 151.403675 
" style="fill:none;stroke:#cbcbcb;"/>
     </g>
     <g id="line2d_30"/>
     <g id="text_16">
      <!-- 600000 -->
      <g transform="translate(35.215 156.722581)scale(0.14 -0.14)">
       <use xlink:href="#DejaVuSans-54"/>
       <use x="63.623047" xlink:href="#DejaVuSans-48"/>
       <use x="127.246094" xlink:href="#DejaVuSans-48"/>
       <use x="190.869141" xlink:href="#DejaVuSans-48"/>
       <use x="254.492188" xlink:href="#DejaVuSans-48"/>
       <use x="318.115234" xlink:href="#DejaVuSans-48"/>
      </g>
     </g>
    </g>
    <g id="ytick_8">
     <g id="line2d_31">
      <path clip-path="url(#pff2021eb87)" d="M 92.16 112.328465 
L 1094.4 112.328465 
" style="fill:none;stroke:#cbcbcb;"/>
     </g>
     <g id="line2d_32"/>
     <g id="text_17">
      <!-- 700000 -->
      <defs>
       <path d="M 8.203125 72.90625 
L 55.078125 72.90625 
L 55.078125 68.703125 
L 28.609375 0 
L 18.3125 0 
L 43.21875 64.59375 
L 8.203125 64.59375 
z
" id="DejaVuSans-55"/>
      </defs>
      <g transform="translate(35.215 117.647371)scale(0.14 -0.14)">
       <use xlink:href="#DejaVuSans-55"/>
       <use x="63.623047" xlink:href="#DejaVuSans-48"/>
       <use x="127.246094" xlink:href="#DejaVuSans-48"/>
       <use x="190.869141" xlink:href="#DejaVuSans-48"/>
       <use x="254.492188" xlink:href="#DejaVuSans-48"/>
       <use x="318.115234" xlink:href="#DejaVuSans-48"/>
      </g>
     </g>
    </g>
    <g id="ytick_9">
     <g id="line2d_33">
      <path clip-path="url(#pff2021eb87)" d="M 92.16 73.253255 
L 1094.4 73.253255 
" style="fill:none;stroke:#cbcbcb;"/>
     </g>
     <g id="line2d_34"/>
     <g id="text_18">
      <!-- 800000 -->
      <g transform="translate(35.215 78.572161)scale(0.14 -0.14)">
       <use xlink:href="#DejaVuSans-56"/>
       <use x="63.623047" xlink:href="#DejaVuSans-48"/>
       <use x="127.246094" xlink:href="#DejaVuSans-48"/>
       <use x="190.869141" xlink:href="#DejaVuSans-48"/>
       <use x="254.492188" xlink:href="#DejaVuSans-48"/>
       <use x="318.115234" xlink:href="#DejaVuSans-48"/>
      </g>
     </g>
    </g>
    <g id="text_19">
     <!-- Confirmed cases -->
     <defs>
      <path d="M 64.40625 67.28125 
L 64.40625 56.890625 
Q 59.421875 61.53125 53.78125 63.8125 
Q 48.140625 66.109375 41.796875 66.109375 
Q 29.296875 66.109375 22.65625 58.46875 
Q 16.015625 50.828125 16.015625 36.375 
Q 16.015625 21.96875 22.65625 14.328125 
Q 29.296875 6.6875 41.796875 6.6875 
Q 48.140625 6.6875 53.78125 8.984375 
Q 59.421875 11.28125 64.40625 15.921875 
L 64.40625 5.609375 
Q 59.234375 2.09375 53.4375 0.328125 
Q 47.65625 -1.421875 41.21875 -1.421875 
Q 24.65625 -1.421875 15.125 8.703125 
Q 5.609375 18.84375 5.609375 36.375 
Q 5.609375 53.953125 15.125 64.078125 
Q 24.65625 74.21875 41.21875 74.21875 
Q 47.75 74.21875 53.53125 72.484375 
Q 59.328125 70.75 64.40625 67.28125 
z
" id="DejaVuSans-67"/>
      <path d="M 30.609375 48.390625 
Q 23.390625 48.390625 19.1875 42.75 
Q 14.984375 37.109375 14.984375 27.296875 
Q 14.984375 17.484375 19.15625 11.84375 
Q 23.34375 6.203125 30.609375 6.203125 
Q 37.796875 6.203125 41.984375 11.859375 
Q 46.1875 17.53125 46.1875 27.296875 
Q 46.1875 37.015625 41.984375 42.703125 
Q 37.796875 48.390625 30.609375 48.390625 
z
M 30.609375 56 
Q 42.328125 56 49.015625 48.375 
Q 55.71875 40.765625 55.71875 27.296875 
Q 55.71875 13.875 49.015625 6.21875 
Q 42.328125 -1.421875 30.609375 -1.421875 
Q 18.84375 -1.421875 12.171875 6.21875 
Q 5.515625 13.875 5.515625 27.296875 
Q 5.515625 40.765625 12.171875 48.375 
Q 18.84375 56 30.609375 56 
z
" id="DejaVuSans-111"/>
      <path d="M 37.109375 75.984375 
L 37.109375 68.5 
L 28.515625 68.5 
Q 23.6875 68.5 21.796875 66.546875 
Q 19.921875 64.59375 19.921875 59.515625 
L 19.921875 54.6875 
L 34.71875 54.6875 
L 34.71875 47.703125 
L 19.921875 47.703125 
L 19.921875 0 
L 10.890625 0 
L 10.890625 47.703125 
L 2.296875 47.703125 
L 2.296875 54.6875 
L 10.890625 54.6875 
L 10.890625 58.5 
Q 10.890625 67.625 15.140625 71.796875 
Q 19.390625 75.984375 28.609375 75.984375 
z
" id="DejaVuSans-102"/>
      <path d="M 52 44.1875 
Q 55.375 50.25 60.0625 53.125 
Q 64.75 56 71.09375 56 
Q 79.640625 56 84.28125 50.015625 
Q 88.921875 44.046875 88.921875 33.015625 
L 88.921875 0 
L 79.890625 0 
L 79.890625 32.71875 
Q 79.890625 40.578125 77.09375 44.375 
Q 74.3125 48.1875 68.609375 48.1875 
Q 61.625 48.1875 57.5625 43.546875 
Q 53.515625 38.921875 53.515625 30.90625 
L 53.515625 0 
L 44.484375 0 
L 44.484375 32.71875 
Q 44.484375 40.625 41.703125 44.40625 
Q 38.921875 48.1875 33.109375 48.1875 
Q 26.21875 48.1875 22.15625 43.53125 
Q 18.109375 38.875 18.109375 30.90625 
L 18.109375 0 
L 9.078125 0 
L 9.078125 54.6875 
L 18.109375 54.6875 
L 18.109375 46.1875 
Q 21.1875 51.21875 25.484375 53.609375 
Q 29.78125 56 35.6875 56 
Q 41.65625 56 45.828125 52.96875 
Q 50 49.953125 52 44.1875 
z
" id="DejaVuSans-109"/>
      <path d="M 45.40625 46.390625 
L 45.40625 75.984375 
L 54.390625 75.984375 
L 54.390625 0 
L 45.40625 0 
L 45.40625 8.203125 
Q 42.578125 3.328125 38.25 0.953125 
Q 33.9375 -1.421875 27.875 -1.421875 
Q 17.96875 -1.421875 11.734375 6.484375 
Q 5.515625 14.40625 5.515625 27.296875 
Q 5.515625 40.1875 11.734375 48.09375 
Q 17.96875 56 27.875 56 
Q 33.9375 56 38.25 53.625 
Q 42.578125 51.265625 45.40625 46.390625 
z
M 14.796875 27.296875 
Q 14.796875 17.390625 18.875 11.75 
Q 22.953125 6.109375 30.078125 6.109375 
Q 37.203125 6.109375 41.296875 11.75 
Q 45.40625 17.390625 45.40625 27.296875 
Q 45.40625 37.203125 41.296875 42.84375 
Q 37.203125 48.484375 30.078125 48.484375 
Q 22.953125 48.484375 18.875 42.84375 
Q 14.796875 37.203125 14.796875 27.296875 
z
" id="DejaVuSans-100"/>
     </defs>
     <g transform="translate(27.721125 296.765437)rotate(-90)scale(0.168 -0.168)">
      <use xlink:href="#DejaVuSans-67"/>
      <use x="69.824219" xlink:href="#DejaVuSans-111"/>
      <use x="131.005859" xlink:href="#DejaVuSans-110"/>
      <use x="194.384766" xlink:href="#DejaVuSans-102"/>
      <use x="229.589844" xlink:href="#DejaVuSans-105"/>
      <use x="257.373047" xlink:href="#DejaVuSans-114"/>
      <use x="296.736328" xlink:href="#DejaVuSans-109"/>
      <use x="394.148438" xlink:href="#DejaVuSans-101"/>
      <use x="455.671875" xlink:href="#DejaVuSans-100"/>
      <use x="519.148438" xlink:href="#DejaVuSans-32"/>
      <use x="550.935547" xlink:href="#DejaVuSans-99"/>
      <use x="605.916016" xlink:href="#DejaVuSans-97"/>
      <use x="667.195312" xlink:href="#DejaVuSans-115"/>
      <use x="719.294922" xlink:href="#DejaVuSans-101"/>
      <use x="780.818359" xlink:href="#DejaVuSans-115"/>
     </g>
    </g>
   </g>
   <g id="line2d_35">
    <path clip-path="url(#pff2021eb87)" d="M 137.716364 385.854545 
L 144 385.854545 
L 150.283636 385.854545 
L 156.567273 385.854155 
L 162.850909 385.853764 
L 169.134545 385.853764 
L 175.418182 385.853764 
L 181.701818 385.853764 
L 187.985455 385.853764 
L 194.269091 385.853764 
L 200.552727 385.853764 
L 206.836364 385.853764 
L 213.12 385.853764 
L 219.403636 385.853764 
L 225.687273 385.853764 
L 231.970909 385.853764 
L 238.254545 385.853764 
L 244.538182 385.853764 
L 250.821818 385.853764 
L 257.105455 385.853764 
L 263.389091 385.853764 
L 269.672727 385.853764 
L 275.956364 385.853764 
L 282.24 385.853764 
L 288.523636 385.853764 
L 294.807273 385.853764 
L 301.090909 385.853764 
L 307.374545 385.853764 
L 313.658182 385.853764 
L 319.941818 385.853764 
L 326.225455 385.853764 
L 332.509091 385.853764 
L 338.792727 385.852982 
L 345.076364 385.852592 
L 351.36 385.843995 
L 357.643636 385.843214 
L 363.927273 385.842823 
L 370.210909 385.841651 
L 376.494545 385.839697 
L 382.778182 385.83618 
L 389.061818 385.830319 
L 395.345455 385.827193 
L 401.629091 385.823285 
L 407.912727 385.819378 
L 414.196364 385.815079 
L 420.48 385.811172 
L 426.763636 385.805701 
L 433.047273 385.797886 
L 439.330909 385.788118 
L 445.614545 385.777567 
L 451.898182 385.754904 
L 458.181818 385.724425 
L 464.465455 385.697463 
L 470.749091 385.660732 
L 477.032727 385.631817 
L 483.316364 385.598212 
L 489.6 385.569687 
L 495.883636 385.509902 
L 502.167273 385.45676 
L 508.450909 385.40987 
L 514.734545 385.336799 
L 521.018182 385.216057 
L 527.301818 385.050378 
L 533.585455 384.860472 
L 539.869091 384.641651 
L 546.152727 384.415405 
L 552.436364 384.177437 
L 558.72 383.988313 
L 565.003636 383.764412 
L 571.287273 383.543638 
L 577.570909 383.225956 
L 583.854545 382.885611 
L 590.138182 382.551909 
L 596.421818 382.255719 
L 602.705455 381.770014 
L 608.989091 381.367148 
L 615.272727 381.020942 
L 621.556364 380.606354 
L 627.84 380.246081 
L 634.123636 379.710359 
L 640.407273 379.092971 
L 646.690909 378.608829 
L 652.974545 378.008243 
L 659.258182 377.503392 
L 665.541818 376.852008 
L 671.825455 376.301829 
L 678.109091 375.584799 
L 684.392727 374.95686 
L 690.676364 374.344161 
L 696.96 373.60095 
L 703.243636 372.934718 
L 709.527273 372.230973 
L 715.810909 371.294731 
L 722.094545 370.292843 
L 728.378182 369.139343 
L 734.661818 367.710753 
L 740.945455 366.549829 
L 747.229091 365.14234 
L 753.512727 363.835665 
L 759.796364 362.530943 
L 766.08 361.290305 
L 772.363636 359.605773 
L 778.647273 358.202191 
L 784.930909 356.810332 
L 791.214545 355.35439 
L 797.498182 353.794899 
L 803.781818 352.306914 
L 810.065455 350.433649 
L 816.349091 348.460742 
L 822.632727 346.652341 
L 828.916364 344.247652 
L 835.2 342.01255 
L 841.483636 339.65905 
L 847.767273 337.105095 
L 854.050909 334.501513 
L 860.334545 331.722094 
" style="fill:none;stroke:#2980b9;"/>
    <defs>
     <path d="M 0 4 
C 1.060812 4 2.078319 3.578535 2.828427 2.828427 
C 3.578535 2.078319 4 1.060812 4 0 
C 4 -1.060812 3.578535 -2.078319 2.828427 -2.828427 
C 2.078319 -3.578535 1.060812 -4 0 -4 
C -1.060812 -4 -2.078319 -3.578535 -2.828427 -2.828427 
C -3.578535 -2.078319 -4 -1.060812 -4 0 
C -4 1.060812 -3.578535 2.078319 -2.828427 2.828427 
C -2.078319 3.578535 -1.060812 4 0 4 
z
" id="m82d2132c05" style="stroke:#2980b9;stroke-width:0.75;"/>
    </defs>
    <g clip-path="url(#pff2021eb87)">
     <use style="fill:#2980b9;stroke:#2980b9;stroke-width:0.75;" x="137.716364" xlink:href="#m82d2132c05" y="385.854545"/>
     <use style="fill:#2980b9;stroke:#2980b9;stroke-width:0.75;" x="144" xlink:href="#m82d2132c05" y="385.854545"/>
     <use style="fill:#2980b9;stroke:#2980b9;stroke-width:0.75;" x="150.283636" xlink:href="#m82d2132c05" y="385.854545"/>
     <use style="fill:#2980b9;stroke:#2980b9;stroke-width:0.75;" x="156.567273" xlink:href="#m82d2132c05" y="385.854155"/>
     <use style="fill:#2980b9;stroke:#2980b9;stroke-width:0.75;" x="162.850909" xlink:href="#m82d2132c05" y="385.853764"/>
     <use style="fill:#2980b9;stroke:#2980b9;stroke-width:0.75;" x="169.134545" xlink:href="#m82d2132c05" y="385.853764"/>
     <use style="fill:#2980b9;stroke:#2980b9;stroke-width:0.75;" x="175.418182" xlink:href="#m82d2132c05" y="385.853764"/>
     <use style="fill:#2980b9;stroke:#2980b9;stroke-width:0.75;" x="181.701818" xlink:href="#m82d2132c05" y="385.853764"/>
     <use style="fill:#2980b9;stroke:#2980b9;stroke-width:0.75;" x="187.985455" xlink:href="#m82d2132c05" y="385.853764"/>
     <use style="fill:#2980b9;stroke:#2980b9;stroke-width:0.75;" x="194.269091" xlink:href="#m82d2132c05" y="385.853764"/>
     <use style="fill:#2980b9;stroke:#2980b9;stroke-width:0.75;" x="200.552727" xlink:href="#m82d2132c05" y="385.853764"/>
     <use style="fill:#2980b9;stroke:#2980b9;stroke-width:0.75;" x="206.836364" xlink:href="#m82d2132c05" y="385.853764"/>
     <use style="fill:#2980b9;stroke:#2980b9;stroke-width:0.75;" x="213.12" xlink:href="#m82d2132c05" y="385.853764"/>
     <use style="fill:#2980b9;stroke:#2980b9;stroke-width:0.75;" x="219.403636" xlink:href="#m82d2132c05" y="385.853764"/>
     <use style="fill:#2980b9;stroke:#2980b9;stroke-width:0.75;" x="225.687273" xlink:href="#m82d2132c05" y="385.853764"/>
     <use style="fill:#2980b9;stroke:#2980b9;stroke-width:0.75;" x="231.970909" xlink:href="#m82d2132c05" y="385.853764"/>
     <use style="fill:#2980b9;stroke:#2980b9;stroke-width:0.75;" x="238.254545" xlink:href="#m82d2132c05" y="385.853764"/>
     <use style="fill:#2980b9;stroke:#2980b9;stroke-width:0.75;" x="244.538182" xlink:href="#m82d2132c05" y="385.853764"/>
     <use style="fill:#2980b9;stroke:#2980b9;stroke-width:0.75;" x="250.821818" xlink:href="#m82d2132c05" y="385.853764"/>
     <use style="fill:#2980b9;stroke:#2980b9;stroke-width:0.75;" x="257.105455" xlink:href="#m82d2132c05" y="385.853764"/>
     <use style="fill:#2980b9;stroke:#2980b9;stroke-width:0.75;" x="263.389091" xlink:href="#m82d2132c05" y="385.853764"/>
     <use style="fill:#2980b9;stroke:#2980b9;stroke-width:0.75;" x="269.672727" xlink:href="#m82d2132c05" y="385.853764"/>
     <use style="fill:#2980b9;stroke:#2980b9;stroke-width:0.75;" x="275.956364" xlink:href="#m82d2132c05" y="385.853764"/>
     <use style="fill:#2980b9;stroke:#2980b9;stroke-width:0.75;" x="282.24" xlink:href="#m82d2132c05" y="385.853764"/>
     <use style="fill:#2980b9;stroke:#2980b9;stroke-width:0.75;" x="288.523636" xlink:href="#m82d2132c05" y="385.853764"/>
     <use style="fill:#2980b9;stroke:#2980b9;stroke-width:0.75;" x="294.807273" xlink:href="#m82d2132c05" y="385.853764"/>
     <use style="fill:#2980b9;stroke:#2980b9;stroke-width:0.75;" x="301.090909" xlink:href="#m82d2132c05" y="385.853764"/>
     <use style="fill:#2980b9;stroke:#2980b9;stroke-width:0.75;" x="307.374545" xlink:href="#m82d2132c05" y="385.853764"/>
     <use style="fill:#2980b9;stroke:#2980b9;stroke-width:0.75;" x="313.658182" xlink:href="#m82d2132c05" y="385.853764"/>
     <use style="fill:#2980b9;stroke:#2980b9;stroke-width:0.75;" x="319.941818" xlink:href="#m82d2132c05" y="385.853764"/>
     <use style="fill:#2980b9;stroke:#2980b9;stroke-width:0.75;" x="326.225455" xlink:href="#m82d2132c05" y="385.853764"/>
     <use style="fill:#2980b9;stroke:#2980b9;stroke-width:0.75;" x="332.509091" xlink:href="#m82d2132c05" y="385.853764"/>
     <use style="fill:#2980b9;stroke:#2980b9;stroke-width:0.75;" x="338.792727" xlink:href="#m82d2132c05" y="385.852982"/>
     <use style="fill:#2980b9;stroke:#2980b9;stroke-width:0.75;" x="345.076364" xlink:href="#m82d2132c05" y="385.852592"/>
     <use style="fill:#2980b9;stroke:#2980b9;stroke-width:0.75;" x="351.36" xlink:href="#m82d2132c05" y="385.843995"/>
     <use style="fill:#2980b9;stroke:#2980b9;stroke-width:0.75;" x="357.643636" xlink:href="#m82d2132c05" y="385.843214"/>
     <use style="fill:#2980b9;stroke:#2980b9;stroke-width:0.75;" x="363.927273" xlink:href="#m82d2132c05" y="385.842823"/>
     <use style="fill:#2980b9;stroke:#2980b9;stroke-width:0.75;" x="370.210909" xlink:href="#m82d2132c05" y="385.841651"/>
     <use style="fill:#2980b9;stroke:#2980b9;stroke-width:0.75;" x="376.494545" xlink:href="#m82d2132c05" y="385.839697"/>
     <use style="fill:#2980b9;stroke:#2980b9;stroke-width:0.75;" x="382.778182" xlink:href="#m82d2132c05" y="385.83618"/>
     <use style="fill:#2980b9;stroke:#2980b9;stroke-width:0.75;" x="389.061818" xlink:href="#m82d2132c05" y="385.830319"/>
     <use style="fill:#2980b9;stroke:#2980b9;stroke-width:0.75;" x="395.345455" xlink:href="#m82d2132c05" y="385.827193"/>
     <use style="fill:#2980b9;stroke:#2980b9;stroke-width:0.75;" x="401.629091" xlink:href="#m82d2132c05" y="385.823285"/>
     <use style="fill:#2980b9;stroke:#2980b9;stroke-width:0.75;" x="407.912727" xlink:href="#m82d2132c05" y="385.819378"/>
     <use style="fill:#2980b9;stroke:#2980b9;stroke-width:0.75;" x="414.196364" xlink:href="#m82d2132c05" y="385.815079"/>
     <use style="fill:#2980b9;stroke:#2980b9;stroke-width:0.75;" x="420.48" xlink:href="#m82d2132c05" y="385.811172"/>
     <use style="fill:#2980b9;stroke:#2980b9;stroke-width:0.75;" x="426.763636" xlink:href="#m82d2132c05" y="385.805701"/>
     <use style="fill:#2980b9;stroke:#2980b9;stroke-width:0.75;" x="433.047273" xlink:href="#m82d2132c05" y="385.797886"/>
     <use style="fill:#2980b9;stroke:#2980b9;stroke-width:0.75;" x="439.330909" xlink:href="#m82d2132c05" y="385.788118"/>
     <use style="fill:#2980b9;stroke:#2980b9;stroke-width:0.75;" x="445.614545" xlink:href="#m82d2132c05" y="385.777567"/>
     <use style="fill:#2980b9;stroke:#2980b9;stroke-width:0.75;" x="451.898182" xlink:href="#m82d2132c05" y="385.754904"/>
     <use style="fill:#2980b9;stroke:#2980b9;stroke-width:0.75;" x="458.181818" xlink:href="#m82d2132c05" y="385.724425"/>
     <use style="fill:#2980b9;stroke:#2980b9;stroke-width:0.75;" x="464.465455" xlink:href="#m82d2132c05" y="385.697463"/>
     <use style="fill:#2980b9;stroke:#2980b9;stroke-width:0.75;" x="470.749091" xlink:href="#m82d2132c05" y="385.660732"/>
     <use style="fill:#2980b9;stroke:#2980b9;stroke-width:0.75;" x="477.032727" xlink:href="#m82d2132c05" y="385.631817"/>
     <use style="fill:#2980b9;stroke:#2980b9;stroke-width:0.75;" x="483.316364" xlink:href="#m82d2132c05" y="385.598212"/>
     <use style="fill:#2980b9;stroke:#2980b9;stroke-width:0.75;" x="489.6" xlink:href="#m82d2132c05" y="385.569687"/>
     <use style="fill:#2980b9;stroke:#2980b9;stroke-width:0.75;" x="495.883636" xlink:href="#m82d2132c05" y="385.509902"/>
     <use style="fill:#2980b9;stroke:#2980b9;stroke-width:0.75;" x="502.167273" xlink:href="#m82d2132c05" y="385.45676"/>
     <use style="fill:#2980b9;stroke:#2980b9;stroke-width:0.75;" x="508.450909" xlink:href="#m82d2132c05" y="385.40987"/>
     <use style="fill:#2980b9;stroke:#2980b9;stroke-width:0.75;" x="514.734545" xlink:href="#m82d2132c05" y="385.336799"/>
     <use style="fill:#2980b9;stroke:#2980b9;stroke-width:0.75;" x="521.018182" xlink:href="#m82d2132c05" y="385.216057"/>
     <use style="fill:#2980b9;stroke:#2980b9;stroke-width:0.75;" x="527.301818" xlink:href="#m82d2132c05" y="385.050378"/>
     <use style="fill:#2980b9;stroke:#2980b9;stroke-width:0.75;" x="533.585455" xlink:href="#m82d2132c05" y="384.860472"/>
     <use style="fill:#2980b9;stroke:#2980b9;stroke-width:0.75;" x="539.869091" xlink:href="#m82d2132c05" y="384.641651"/>
     <use style="fill:#2980b9;stroke:#2980b9;stroke-width:0.75;" x="546.152727" xlink:href="#m82d2132c05" y="384.415405"/>
     <use style="fill:#2980b9;stroke:#2980b9;stroke-width:0.75;" x="552.436364" xlink:href="#m82d2132c05" y="384.177437"/>
     <use style="fill:#2980b9;stroke:#2980b9;stroke-width:0.75;" x="558.72" xlink:href="#m82d2132c05" y="383.988313"/>
     <use style="fill:#2980b9;stroke:#2980b9;stroke-width:0.75;" x="565.003636" xlink:href="#m82d2132c05" y="383.764412"/>
     <use style="fill:#2980b9;stroke:#2980b9;stroke-width:0.75;" x="571.287273" xlink:href="#m82d2132c05" y="383.543638"/>
     <use style="fill:#2980b9;stroke:#2980b9;stroke-width:0.75;" x="577.570909" xlink:href="#m82d2132c05" y="383.225956"/>
     <use style="fill:#2980b9;stroke:#2980b9;stroke-width:0.75;" x="583.854545" xlink:href="#m82d2132c05" y="382.885611"/>
     <use style="fill:#2980b9;stroke:#2980b9;stroke-width:0.75;" x="590.138182" xlink:href="#m82d2132c05" y="382.551909"/>
     <use style="fill:#2980b9;stroke:#2980b9;stroke-width:0.75;" x="596.421818" xlink:href="#m82d2132c05" y="382.255719"/>
     <use style="fill:#2980b9;stroke:#2980b9;stroke-width:0.75;" x="602.705455" xlink:href="#m82d2132c05" y="381.770014"/>
     <use style="fill:#2980b9;stroke:#2980b9;stroke-width:0.75;" x="608.989091" xlink:href="#m82d2132c05" y="381.367148"/>
     <use style="fill:#2980b9;stroke:#2980b9;stroke-width:0.75;" x="615.272727" xlink:href="#m82d2132c05" y="381.020942"/>
     <use style="fill:#2980b9;stroke:#2980b9;stroke-width:0.75;" x="621.556364" xlink:href="#m82d2132c05" y="380.606354"/>
     <use style="fill:#2980b9;stroke:#2980b9;stroke-width:0.75;" x="627.84" xlink:href="#m82d2132c05" y="380.246081"/>
     <use style="fill:#2980b9;stroke:#2980b9;stroke-width:0.75;" x="634.123636" xlink:href="#m82d2132c05" y="379.710359"/>
     <use style="fill:#2980b9;stroke:#2980b9;stroke-width:0.75;" x="640.407273" xlink:href="#m82d2132c05" y="379.092971"/>
     <use style="fill:#2980b9;stroke:#2980b9;stroke-width:0.75;" x="646.690909" xlink:href="#m82d2132c05" y="378.608829"/>
     <use style="fill:#2980b9;stroke:#2980b9;stroke-width:0.75;" x="652.974545" xlink:href="#m82d2132c05" y="378.008243"/>
     <use style="fill:#2980b9;stroke:#2980b9;stroke-width:0.75;" x="659.258182" xlink:href="#m82d2132c05" y="377.503392"/>
     <use style="fill:#2980b9;stroke:#2980b9;stroke-width:0.75;" x="665.541818" xlink:href="#m82d2132c05" y="376.852008"/>
     <use style="fill:#2980b9;stroke:#2980b9;stroke-width:0.75;" x="671.825455" xlink:href="#m82d2132c05" y="376.301829"/>
     <use style="fill:#2980b9;stroke:#2980b9;stroke-width:0.75;" x="678.109091" xlink:href="#m82d2132c05" y="375.584799"/>
     <use style="fill:#2980b9;stroke:#2980b9;stroke-width:0.75;" x="684.392727" xlink:href="#m82d2132c05" y="374.95686"/>
     <use style="fill:#2980b9;stroke:#2980b9;stroke-width:0.75;" x="690.676364" xlink:href="#m82d2132c05" y="374.344161"/>
     <use style="fill:#2980b9;stroke:#2980b9;stroke-width:0.75;" x="696.96" xlink:href="#m82d2132c05" y="373.60095"/>
     <use style="fill:#2980b9;stroke:#2980b9;stroke-width:0.75;" x="703.243636" xlink:href="#m82d2132c05" y="372.934718"/>
     <use style="fill:#2980b9;stroke:#2980b9;stroke-width:0.75;" x="709.527273" xlink:href="#m82d2132c05" y="372.230973"/>
     <use style="fill:#2980b9;stroke:#2980b9;stroke-width:0.75;" x="715.810909" xlink:href="#m82d2132c05" y="371.294731"/>
     <use style="fill:#2980b9;stroke:#2980b9;stroke-width:0.75;" x="722.094545" xlink:href="#m82d2132c05" y="370.292843"/>
     <use style="fill:#2980b9;stroke:#2980b9;stroke-width:0.75;" x="728.378182" xlink:href="#m82d2132c05" y="369.139343"/>
     <use style="fill:#2980b9;stroke:#2980b9;stroke-width:0.75;" x="734.661818" xlink:href="#m82d2132c05" y="367.710753"/>
     <use style="fill:#2980b9;stroke:#2980b9;stroke-width:0.75;" x="740.945455" xlink:href="#m82d2132c05" y="366.549829"/>
     <use style="fill:#2980b9;stroke:#2980b9;stroke-width:0.75;" x="747.229091" xlink:href="#m82d2132c05" y="365.14234"/>
     <use style="fill:#2980b9;stroke:#2980b9;stroke-width:0.75;" x="753.512727" xlink:href="#m82d2132c05" y="363.835665"/>
     <use style="fill:#2980b9;stroke:#2980b9;stroke-width:0.75;" x="759.796364" xlink:href="#m82d2132c05" y="362.530943"/>
     <use style="fill:#2980b9;stroke:#2980b9;stroke-width:0.75;" x="766.08" xlink:href="#m82d2132c05" y="361.290305"/>
     <use style="fill:#2980b9;stroke:#2980b9;stroke-width:0.75;" x="772.363636" xlink:href="#m82d2132c05" y="359.605773"/>
     <use style="fill:#2980b9;stroke:#2980b9;stroke-width:0.75;" x="778.647273" xlink:href="#m82d2132c05" y="358.202191"/>
     <use style="fill:#2980b9;stroke:#2980b9;stroke-width:0.75;" x="784.930909" xlink:href="#m82d2132c05" y="356.810332"/>
     <use style="fill:#2980b9;stroke:#2980b9;stroke-width:0.75;" x="791.214545" xlink:href="#m82d2132c05" y="355.35439"/>
     <use style="fill:#2980b9;stroke:#2980b9;stroke-width:0.75;" x="797.498182" xlink:href="#m82d2132c05" y="353.794899"/>
     <use style="fill:#2980b9;stroke:#2980b9;stroke-width:0.75;" x="803.781818" xlink:href="#m82d2132c05" y="352.306914"/>
     <use style="fill:#2980b9;stroke:#2980b9;stroke-width:0.75;" x="810.065455" xlink:href="#m82d2132c05" y="350.433649"/>
     <use style="fill:#2980b9;stroke:#2980b9;stroke-width:0.75;" x="816.349091" xlink:href="#m82d2132c05" y="348.460742"/>
     <use style="fill:#2980b9;stroke:#2980b9;stroke-width:0.75;" x="822.632727" xlink:href="#m82d2132c05" y="346.652341"/>
     <use style="fill:#2980b9;stroke:#2980b9;stroke-width:0.75;" x="828.916364" xlink:href="#m82d2132c05" y="344.247652"/>
     <use style="fill:#2980b9;stroke:#2980b9;stroke-width:0.75;" x="835.2" xlink:href="#m82d2132c05" y="342.01255"/>
     <use style="fill:#2980b9;stroke:#2980b9;stroke-width:0.75;" x="841.483636" xlink:href="#m82d2132c05" y="339.65905"/>
     <use style="fill:#2980b9;stroke:#2980b9;stroke-width:0.75;" x="847.767273" xlink:href="#m82d2132c05" y="337.105095"/>
     <use style="fill:#2980b9;stroke:#2980b9;stroke-width:0.75;" x="854.050909" xlink:href="#m82d2132c05" y="334.501513"/>
     <use style="fill:#2980b9;stroke:#2980b9;stroke-width:0.75;" x="860.334545" xlink:href="#m82d2132c05" y="331.722094"/>
    </g>
   </g>
   <g id="line2d_36">
    <path clip-path="url(#pff2021eb87)" d="M 703.243636 372.934718 
L 709.527273 372.230973 
L 715.810909 371.294731 
L 722.094545 370.292843 
L 728.378182 369.139343 
L 734.661818 367.710753 
L 740.945455 366.549829 
L 747.229091 365.14234 
L 753.512727 363.835665 
L 759.796364 362.530943 
L 766.08 361.290305 
L 772.363636 359.605773 
L 778.647273 358.202191 
L 784.930909 356.810332 
L 791.214545 355.35439 
L 797.498182 353.794899 
L 803.781818 352.306914 
L 810.065455 350.433649 
L 816.349091 348.460742 
L 822.632727 346.652341 
L 828.916364 344.247652 
L 835.2 342.01255 
L 841.483636 339.65905 
" style="fill:none;stroke:#3498db;"/>
    <defs>
     <path d="M 0 4 
C 1.060812 4 2.078319 3.578535 2.828427 2.828427 
C 3.578535 2.078319 4 1.060812 4 0 
C 4 -1.060812 3.578535 -2.078319 2.828427 -2.828427 
C 2.078319 -3.578535 1.060812 -4 0 -4 
C -1.060812 -4 -2.078319 -3.578535 -2.828427 -2.828427 
C -3.578535 -2.078319 -4 -1.060812 -4 0 
C -4 1.060812 -3.578535 2.078319 -2.828427 2.828427 
C -2.078319 3.578535 -1.060812 4 0 4 
z
" id="me18e09628a" style="stroke:#3498db;stroke-width:0.75;"/>
    </defs>
    <g clip-path="url(#pff2021eb87)">
     <use style="fill:#3498db;stroke:#3498db;stroke-width:0.75;" x="703.243636" xlink:href="#me18e09628a" y="372.934718"/>
     <use style="fill:#3498db;stroke:#3498db;stroke-width:0.75;" x="709.527273" xlink:href="#me18e09628a" y="372.230973"/>
     <use style="fill:#3498db;stroke:#3498db;stroke-width:0.75;" x="715.810909" xlink:href="#me18e09628a" y="371.294731"/>
     <use style="fill:#3498db;stroke:#3498db;stroke-width:0.75;" x="722.094545" xlink:href="#me18e09628a" y="370.292843"/>
     <use style="fill:#3498db;stroke:#3498db;stroke-width:0.75;" x="728.378182" xlink:href="#me18e09628a" y="369.139343"/>
     <use style="fill:#3498db;stroke:#3498db;stroke-width:0.75;" x="734.661818" xlink:href="#me18e09628a" y="367.710753"/>
     <use style="fill:#3498db;stroke:#3498db;stroke-width:0.75;" x="740.945455" xlink:href="#me18e09628a" y="366.549829"/>
     <use style="fill:#3498db;stroke:#3498db;stroke-width:0.75;" x="747.229091" xlink:href="#me18e09628a" y="365.14234"/>
     <use style="fill:#3498db;stroke:#3498db;stroke-width:0.75;" x="753.512727" xlink:href="#me18e09628a" y="363.835665"/>
     <use style="fill:#3498db;stroke:#3498db;stroke-width:0.75;" x="759.796364" xlink:href="#me18e09628a" y="362.530943"/>
     <use style="fill:#3498db;stroke:#3498db;stroke-width:0.75;" x="766.08" xlink:href="#me18e09628a" y="361.290305"/>
     <use style="fill:#3498db;stroke:#3498db;stroke-width:0.75;" x="772.363636" xlink:href="#me18e09628a" y="359.605773"/>
     <use style="fill:#3498db;stroke:#3498db;stroke-width:0.75;" x="778.647273" xlink:href="#me18e09628a" y="358.202191"/>
     <use style="fill:#3498db;stroke:#3498db;stroke-width:0.75;" x="784.930909" xlink:href="#me18e09628a" y="356.810332"/>
     <use style="fill:#3498db;stroke:#3498db;stroke-width:0.75;" x="791.214545" xlink:href="#me18e09628a" y="355.35439"/>
     <use style="fill:#3498db;stroke:#3498db;stroke-width:0.75;" x="797.498182" xlink:href="#me18e09628a" y="353.794899"/>
     <use style="fill:#3498db;stroke:#3498db;stroke-width:0.75;" x="803.781818" xlink:href="#me18e09628a" y="352.306914"/>
     <use style="fill:#3498db;stroke:#3498db;stroke-width:0.75;" x="810.065455" xlink:href="#me18e09628a" y="350.433649"/>
     <use style="fill:#3498db;stroke:#3498db;stroke-width:0.75;" x="816.349091" xlink:href="#me18e09628a" y="348.460742"/>
     <use style="fill:#3498db;stroke:#3498db;stroke-width:0.75;" x="822.632727" xlink:href="#me18e09628a" y="346.652341"/>
     <use style="fill:#3498db;stroke:#3498db;stroke-width:0.75;" x="828.916364" xlink:href="#me18e09628a" y="344.247652"/>
     <use style="fill:#3498db;stroke:#3498db;stroke-width:0.75;" x="835.2" xlink:href="#me18e09628a" y="342.01255"/>
     <use style="fill:#3498db;stroke:#3498db;stroke-width:0.75;" x="841.483636" xlink:href="#me18e09628a" y="339.65905"/>
    </g>
   </g>
   <g id="line2d_37">
    <path clip-path="url(#pff2021eb87)" d="M 847.767273 337.105095 
L 854.050909 334.501513 
L 860.334545 331.722094 
" style="fill:none;stroke:#e67e22;"/>
    <defs>
     <path d="M 0 4 
C 1.060812 4 2.078319 3.578535 2.828427 2.828427 
C 3.578535 2.078319 4 1.060812 4 0 
C 4 -1.060812 3.578535 -2.078319 2.828427 -2.828427 
C 2.078319 -3.578535 1.060812 -4 0 -4 
C -1.060812 -4 -2.078319 -3.578535 -2.828427 -2.828427 
C -3.578535 -2.078319 -4 -1.060812 -4 0 
C -4 1.060812 -3.578535 2.078319 -2.828427 2.828427 
C -2.078319 3.578535 -1.060812 4 0 4 
z
" id="m7d7a530b7b" style="stroke:#e67e22;stroke-width:0.75;"/>
    </defs>
    <g clip-path="url(#pff2021eb87)">
     <use style="fill:#e67e22;stroke:#e67e22;stroke-width:0.75;" x="847.767273" xlink:href="#m7d7a530b7b" y="337.105095"/>
     <use style="fill:#e67e22;stroke:#e67e22;stroke-width:0.75;" x="854.050909" xlink:href="#m7d7a530b7b" y="334.501513"/>
     <use style="fill:#e67e22;stroke:#e67e22;stroke-width:0.75;" x="860.334545" xlink:href="#m7d7a530b7b" y="331.722094"/>
    </g>
   </g>
   <g id="line2d_38">
    <path clip-path="url(#pff2021eb87)" d="M 847.767273 335.411777 
L 854.050909 332.423699 
L 860.334545 329.258619 
" style="fill:none;stroke:#f1c40f;"/>
    <defs>
     <path d="M 0 4 
C 1.060812 4 2.078319 3.578535 2.828427 2.828427 
C 3.578535 2.078319 4 1.060812 4 0 
C 4 -1.060812 3.578535 -2.078319 2.828427 -2.828427 
C 2.078319 -3.578535 1.060812 -4 0 -4 
C -1.060812 -4 -2.078319 -3.578535 -2.828427 -2.828427 
C -3.578535 -2.078319 -4 -1.060812 -4 0 
C -4 1.060812 -3.578535 2.078319 -2.828427 2.828427 
C -2.078319 3.578535 -1.060812 4 0 4 
z
" id="m52a4c940e1" style="stroke:#f1c40f;stroke-width:0.75;"/>
    </defs>
    <g clip-path="url(#pff2021eb87)">
     <use style="fill:#f1c40f;stroke:#f1c40f;stroke-width:0.75;" x="847.767273" xlink:href="#m52a4c940e1" y="335.411777"/>
     <use style="fill:#f1c40f;stroke:#f1c40f;stroke-width:0.75;" x="854.050909" xlink:href="#m52a4c940e1" y="332.423699"/>
     <use style="fill:#f1c40f;stroke:#f1c40f;stroke-width:0.75;" x="860.334545" xlink:href="#m52a4c940e1" y="329.258619"/>
    </g>
   </g>
   <g id="line2d_39">
    <path clip-path="url(#pff2021eb87)" d="M 866.618182 325.906049 
L 872.901818 322.354886 
L 879.185455 318.593363 
L 885.469091 314.609021 
L 891.752727 310.388661 
L 898.036364 305.918301 
L 904.32 301.183133 
L 910.603636 296.167469 
L 916.887273 290.854695 
L 923.170909 285.227211 
L 929.454545 279.266374 
L 935.738182 272.952438 
L 942.021818 266.264487 
L 948.305455 259.180364 
L 954.589091 251.676602 
L 960.872727 243.728344 
L 967.156364 235.309259 
L 973.44 226.391456 
L 979.723636 216.945393 
L 986.007273 206.939779 
L 992.290909 196.341467 
L 998.574545 185.115347 
L 1004.858182 173.224232 
L 1011.141818 160.628728 
L 1017.425455 147.28711 
L 1023.709091 133.15518 
L 1029.992727 118.186125 
L 1036.276364 102.330355 
L 1042.56 85.535344 
L 1048.843636 67.745455 
" style="fill:none;stroke:#2ecc71;"/>
    <defs>
     <path d="M 0 4 
C 1.060812 4 2.078319 3.578535 2.828427 2.828427 
C 3.578535 2.078319 4 1.060812 4 0 
C 4 -1.060812 3.578535 -2.078319 2.828427 -2.828427 
C 2.078319 -3.578535 1.060812 -4 0 -4 
C -1.060812 -4 -2.078319 -3.578535 -2.828427 -2.828427 
C -3.578535 -2.078319 -4 -1.060812 -4 0 
C -4 1.060812 -3.578535 2.078319 -2.828427 2.828427 
C -2.078319 3.578535 -1.060812 4 0 4 
z
" id="m26e60be925" style="stroke:#2ecc71;stroke-width:0.75;"/>
    </defs>
    <g clip-path="url(#pff2021eb87)">
     <use style="fill:#2ecc71;stroke:#2ecc71;stroke-width:0.75;" x="866.618182" xlink:href="#m26e60be925" y="325.906049"/>
     <use style="fill:#2ecc71;stroke:#2ecc71;stroke-width:0.75;" x="872.901818" xlink:href="#m26e60be925" y="322.354886"/>
     <use style="fill:#2ecc71;stroke:#2ecc71;stroke-width:0.75;" x="879.185455" xlink:href="#m26e60be925" y="318.593363"/>
     <use style="fill:#2ecc71;stroke:#2ecc71;stroke-width:0.75;" x="885.469091" xlink:href="#m26e60be925" y="314.609021"/>
     <use style="fill:#2ecc71;stroke:#2ecc71;stroke-width:0.75;" x="891.752727" xlink:href="#m26e60be925" y="310.388661"/>
     <use style="fill:#2ecc71;stroke:#2ecc71;stroke-width:0.75;" x="898.036364" xlink:href="#m26e60be925" y="305.918301"/>
     <use style="fill:#2ecc71;stroke:#2ecc71;stroke-width:0.75;" x="904.32" xlink:href="#m26e60be925" y="301.183133"/>
     <use style="fill:#2ecc71;stroke:#2ecc71;stroke-width:0.75;" x="910.603636" xlink:href="#m26e60be925" y="296.167469"/>
     <use style="fill:#2ecc71;stroke:#2ecc71;stroke-width:0.75;" x="916.887273" xlink:href="#m26e60be925" y="290.854695"/>
     <use style="fill:#2ecc71;stroke:#2ecc71;stroke-width:0.75;" x="923.170909" xlink:href="#m26e60be925" y="285.227211"/>
     <use style="fill:#2ecc71;stroke:#2ecc71;stroke-width:0.75;" x="929.454545" xlink:href="#m26e60be925" y="279.266374"/>
     <use style="fill:#2ecc71;stroke:#2ecc71;stroke-width:0.75;" x="935.738182" xlink:href="#m26e60be925" y="272.952438"/>
     <use style="fill:#2ecc71;stroke:#2ecc71;stroke-width:0.75;" x="942.021818" xlink:href="#m26e60be925" y="266.264487"/>
     <use style="fill:#2ecc71;stroke:#2ecc71;stroke-width:0.75;" x="948.305455" xlink:href="#m26e60be925" y="259.180364"/>
     <use style="fill:#2ecc71;stroke:#2ecc71;stroke-width:0.75;" x="954.589091" xlink:href="#m26e60be925" y="251.676602"/>
     <use style="fill:#2ecc71;stroke:#2ecc71;stroke-width:0.75;" x="960.872727" xlink:href="#m26e60be925" y="243.728344"/>
     <use style="fill:#2ecc71;stroke:#2ecc71;stroke-width:0.75;" x="967.156364" xlink:href="#m26e60be925" y="235.309259"/>
     <use style="fill:#2ecc71;stroke:#2ecc71;stroke-width:0.75;" x="973.44" xlink:href="#m26e60be925" y="226.391456"/>
     <use style="fill:#2ecc71;stroke:#2ecc71;stroke-width:0.75;" x="979.723636" xlink:href="#m26e60be925" y="216.945393"/>
     <use style="fill:#2ecc71;stroke:#2ecc71;stroke-width:0.75;" x="986.007273" xlink:href="#m26e60be925" y="206.939779"/>
     <use style="fill:#2ecc71;stroke:#2ecc71;stroke-width:0.75;" x="992.290909" xlink:href="#m26e60be925" y="196.341467"/>
     <use style="fill:#2ecc71;stroke:#2ecc71;stroke-width:0.75;" x="998.574545" xlink:href="#m26e60be925" y="185.115347"/>
     <use style="fill:#2ecc71;stroke:#2ecc71;stroke-width:0.75;" x="1004.858182" xlink:href="#m26e60be925" y="173.224232"/>
     <use style="fill:#2ecc71;stroke:#2ecc71;stroke-width:0.75;" x="1011.141818" xlink:href="#m26e60be925" y="160.628728"/>
     <use style="fill:#2ecc71;stroke:#2ecc71;stroke-width:0.75;" x="1017.425455" xlink:href="#m26e60be925" y="147.28711"/>
     <use style="fill:#2ecc71;stroke:#2ecc71;stroke-width:0.75;" x="1023.709091" xlink:href="#m26e60be925" y="133.15518"/>
     <use style="fill:#2ecc71;stroke:#2ecc71;stroke-width:0.75;" x="1029.992727" xlink:href="#m26e60be925" y="118.186125"/>
     <use style="fill:#2ecc71;stroke:#2ecc71;stroke-width:0.75;" x="1036.276364" xlink:href="#m26e60be925" y="102.330355"/>
     <use style="fill:#2ecc71;stroke:#2ecc71;stroke-width:0.75;" x="1042.56" xlink:href="#m26e60be925" y="85.535344"/>
     <use style="fill:#2ecc71;stroke:#2ecc71;stroke-width:0.75;" x="1048.843636" xlink:href="#m26e60be925" y="67.745455"/>
    </g>
   </g>
   <g id="patch_3">
    <path d="M 92.16 401.76 
L 92.16 51.84 
" style="fill:none;stroke:#f0f0f0;stroke-linecap:square;stroke-linejoin:miter;stroke-width:3;"/>
   </g>
   <g id="patch_4">
    <path d="M 1094.4 401.76 
L 1094.4 51.84 
" style="fill:none;stroke:#f0f0f0;stroke-linecap:square;stroke-linejoin:miter;stroke-width:3;"/>
   </g>
   <g id="patch_5">
    <path d="M 92.16 401.76 
L 1094.4 401.76 
" style="fill:none;stroke:#f0f0f0;stroke-linecap:square;stroke-linejoin:miter;stroke-width:3;"/>
   </g>
   <g id="patch_6">
    <path d="M 92.16 51.84 
L 1094.4 51.84 
" style="fill:none;stroke:#f0f0f0;stroke-linecap:square;stroke-linejoin:miter;stroke-width:3;"/>
   </g>
   <g id="legend_1">
    <g id="patch_7">
     <path d="M 101.96 166.565625 
L 272.565312 166.565625 
Q 275.365312 166.565625 275.365312 163.765625 
L 275.365312 61.64 
Q 275.365312 58.84 272.565312 58.84 
L 101.96 58.84 
Q 99.16 58.84 99.16 61.64 
L 99.16 163.765625 
Q 99.16 166.565625 101.96 166.565625 
z
" style="fill:#f0f0f0;opacity:0.8;stroke:#cccccc;stroke-linejoin:miter;stroke-width:0.5;"/>
    </g>
    <g id="line2d_40">
     <path d="M 104.76 70.177812 
L 132.76 70.177812 
" style="fill:none;stroke:#2980b9;"/>
    </g>
    <g id="line2d_41">
     <g>
      <use style="fill:#2980b9;stroke:#2980b9;stroke-width:0.75;" x="118.76" xlink:href="#m82d2132c05" y="70.177812"/>
     </g>
    </g>
    <g id="text_20">
     <!-- Unused train data -->
     <defs>
      <path d="M 8.6875 72.90625 
L 18.609375 72.90625 
L 18.609375 28.609375 
Q 18.609375 16.890625 22.84375 11.734375 
Q 27.09375 6.59375 36.625 6.59375 
Q 46.09375 6.59375 50.34375 11.734375 
Q 54.59375 16.890625 54.59375 28.609375 
L 54.59375 72.90625 
L 64.5 72.90625 
L 64.5 27.390625 
Q 64.5 13.140625 57.4375 5.859375 
Q 50.390625 -1.421875 36.625 -1.421875 
Q 22.796875 -1.421875 15.734375 5.859375 
Q 8.6875 13.140625 8.6875 27.390625 
z
" id="DejaVuSans-85"/>
     </defs>
     <g transform="translate(143.96 75.077812)scale(0.14 -0.14)">
      <use xlink:href="#DejaVuSans-85"/>
      <use x="73.193359" xlink:href="#DejaVuSans-110"/>
      <use x="136.572266" xlink:href="#DejaVuSans-117"/>
      <use x="199.951172" xlink:href="#DejaVuSans-115"/>
      <use x="252.050781" xlink:href="#DejaVuSans-101"/>
      <use x="313.574219" xlink:href="#DejaVuSans-100"/>
      <use x="377.050781" xlink:href="#DejaVuSans-32"/>
      <use x="408.837891" xlink:href="#DejaVuSans-116"/>
      <use x="448.046875" xlink:href="#DejaVuSans-114"/>
      <use x="489.160156" xlink:href="#DejaVuSans-97"/>
      <use x="550.439453" xlink:href="#DejaVuSans-105"/>
      <use x="578.222656" xlink:href="#DejaVuSans-110"/>
      <use x="641.601562" xlink:href="#DejaVuSans-32"/>
      <use x="673.388672" xlink:href="#DejaVuSans-100"/>
      <use x="736.865234" xlink:href="#DejaVuSans-97"/>
      <use x="798.144531" xlink:href="#DejaVuSans-116"/>
      <use x="837.353516" xlink:href="#DejaVuSans-97"/>
     </g>
    </g>
    <g id="line2d_42">
     <path d="M 104.76 90.727187 
L 132.76 90.727187 
" style="fill:none;stroke:#3498db;"/>
    </g>
    <g id="line2d_43">
     <g>
      <use style="fill:#3498db;stroke:#3498db;stroke-width:0.75;" x="118.76" xlink:href="#me18e09628a" y="90.727187"/>
     </g>
    </g>
    <g id="text_21">
     <!-- Train data -->
     <defs>
      <path d="M -0.296875 72.90625 
L 61.375 72.90625 
L 61.375 64.59375 
L 35.5 64.59375 
L 35.5 0 
L 25.59375 0 
L 25.59375 64.59375 
L -0.296875 64.59375 
z
" id="DejaVuSans-84"/>
     </defs>
     <g transform="translate(143.96 95.627187)scale(0.14 -0.14)">
      <use xlink:href="#DejaVuSans-84"/>
      <use x="46.333984" xlink:href="#DejaVuSans-114"/>
      <use x="87.447266" xlink:href="#DejaVuSans-97"/>
      <use x="148.726562" xlink:href="#DejaVuSans-105"/>
      <use x="176.509766" xlink:href="#DejaVuSans-110"/>
      <use x="239.888672" xlink:href="#DejaVuSans-32"/>
      <use x="271.675781" xlink:href="#DejaVuSans-100"/>
      <use x="335.152344" xlink:href="#DejaVuSans-97"/>
      <use x="396.431641" xlink:href="#DejaVuSans-116"/>
      <use x="435.640625" xlink:href="#DejaVuSans-97"/>
     </g>
    </g>
    <g id="line2d_44">
     <path d="M 104.76 111.276562 
L 132.76 111.276562 
" style="fill:none;stroke:#e67e22;"/>
    </g>
    <g id="line2d_45">
     <g>
      <use style="fill:#e67e22;stroke:#e67e22;stroke-width:0.75;" x="118.76" xlink:href="#m7d7a530b7b" y="111.276562"/>
     </g>
    </g>
    <g id="text_22">
     <!-- Test data -->
     <g transform="translate(143.96 116.176562)scale(0.14 -0.14)">
      <use xlink:href="#DejaVuSans-84"/>
      <use x="44.083984" xlink:href="#DejaVuSans-101"/>
      <use x="105.607422" xlink:href="#DejaVuSans-115"/>
      <use x="157.707031" xlink:href="#DejaVuSans-116"/>
      <use x="196.916016" xlink:href="#DejaVuSans-32"/>
      <use x="228.703125" xlink:href="#DejaVuSans-100"/>
      <use x="292.179688" xlink:href="#DejaVuSans-97"/>
      <use x="353.458984" xlink:href="#DejaVuSans-116"/>
      <use x="392.667969" xlink:href="#DejaVuSans-97"/>
     </g>
    </g>
    <g id="line2d_46">
     <path d="M 104.76 131.825937 
L 132.76 131.825937 
" style="fill:none;stroke:#f1c40f;"/>
    </g>
    <g id="line2d_47">
     <g>
      <use style="fill:#f1c40f;stroke:#f1c40f;stroke-width:0.75;" x="118.76" xlink:href="#m52a4c940e1" y="131.825937"/>
     </g>
    </g>
    <g id="text_23">
     <!-- Predicted_data -->
     <defs>
      <path d="M 19.671875 64.796875 
L 19.671875 37.40625 
L 32.078125 37.40625 
Q 38.96875 37.40625 42.71875 40.96875 
Q 46.484375 44.53125 46.484375 51.125 
Q 46.484375 57.671875 42.71875 61.234375 
Q 38.96875 64.796875 32.078125 64.796875 
z
M 9.8125 72.90625 
L 32.078125 72.90625 
Q 44.34375 72.90625 50.609375 67.359375 
Q 56.890625 61.8125 56.890625 51.125 
Q 56.890625 40.328125 50.609375 34.8125 
Q 44.34375 29.296875 32.078125 29.296875 
L 19.671875 29.296875 
L 19.671875 0 
L 9.8125 0 
z
" id="DejaVuSans-80"/>
      <path d="M 50.984375 -16.609375 
L 50.984375 -23.578125 
L -0.984375 -23.578125 
L -0.984375 -16.609375 
z
" id="DejaVuSans-95"/>
     </defs>
     <g transform="translate(143.96 136.725937)scale(0.14 -0.14)">
      <use xlink:href="#DejaVuSans-80"/>
      <use x="58.552734" xlink:href="#DejaVuSans-114"/>
      <use x="97.416016" xlink:href="#DejaVuSans-101"/>
      <use x="158.939453" xlink:href="#DejaVuSans-100"/>
      <use x="222.416016" xlink:href="#DejaVuSans-105"/>
      <use x="250.199219" xlink:href="#DejaVuSans-99"/>
      <use x="305.179688" xlink:href="#DejaVuSans-116"/>
      <use x="344.388672" xlink:href="#DejaVuSans-101"/>
      <use x="405.912109" xlink:href="#DejaVuSans-100"/>
      <use x="469.388672" xlink:href="#DejaVuSans-95"/>
      <use x="519.388672" xlink:href="#DejaVuSans-100"/>
      <use x="582.865234" xlink:href="#DejaVuSans-97"/>
      <use x="644.144531" xlink:href="#DejaVuSans-116"/>
      <use x="683.353516" xlink:href="#DejaVuSans-97"/>
     </g>
    </g>
    <g id="line2d_48">
     <path d="M 104.76 152.764687 
L 132.76 152.764687 
" style="fill:none;stroke:#2ecc71;"/>
    </g>
    <g id="line2d_49">
     <g>
      <use style="fill:#2ecc71;stroke:#2ecc71;stroke-width:0.75;" x="118.76" xlink:href="#m26e60be925" y="152.764687"/>
     </g>
    </g>
    <g id="text_24">
     <!-- Future_Forecast -->
     <defs>
      <path d="M 9.8125 72.90625 
L 51.703125 72.90625 
L 51.703125 64.59375 
L 19.671875 64.59375 
L 19.671875 43.109375 
L 48.578125 43.109375 
L 48.578125 34.8125 
L 19.671875 34.8125 
L 19.671875 0 
L 9.8125 0 
z
" id="DejaVuSans-70"/>
     </defs>
     <g transform="translate(143.96 157.664687)scale(0.14 -0.14)">
      <use xlink:href="#DejaVuSans-70"/>
      <use x="52.019531" xlink:href="#DejaVuSans-117"/>
      <use x="115.398438" xlink:href="#DejaVuSans-116"/>
      <use x="154.607422" xlink:href="#DejaVuSans-117"/>
      <use x="217.986328" xlink:href="#DejaVuSans-114"/>
      <use x="256.849609" xlink:href="#DejaVuSans-101"/>
      <use x="318.373047" xlink:href="#DejaVuSans-95"/>
      <use x="368.373047" xlink:href="#DejaVuSans-70"/>
      <use x="422.267578" xlink:href="#DejaVuSans-111"/>
      <use x="483.449219" xlink:href="#DejaVuSans-114"/>
      <use x="522.3125" xlink:href="#DejaVuSans-101"/>
      <use x="583.835938" xlink:href="#DejaVuSans-99"/>
      <use x="638.816406" xlink:href="#DejaVuSans-97"/>
      <use x="700.095703" xlink:href="#DejaVuSans-115"/>
      <use x="752.195312" xlink:href="#DejaVuSans-116"/>
     </g>
    </g>
   </g>
  </g>
  <g id="text_25">
   <!-- COVID-19 confirmed cases and forecasting in India time -->
   <defs>
    <path d="M 67 4 
Q 61.8125 1.3125 56.203125 -0.046875 
Q 50.59375 -1.421875 44.484375 -1.421875 
Q 26.265625 -1.421875 15.625 8.765625 
Q 4.984375 18.953125 4.984375 36.375 
Q 4.984375 53.859375 15.625 64.03125 
Q 26.265625 74.21875 44.484375 74.21875 
Q 50.59375 74.21875 56.203125 72.84375 
Q 61.8125 71.484375 67 68.796875 
L 67 53.71875 
Q 61.765625 57.28125 56.6875 58.9375 
Q 51.609375 60.59375 46 60.59375 
Q 35.9375 60.59375 30.171875 54.140625 
Q 24.421875 47.703125 24.421875 36.375 
Q 24.421875 25.09375 30.171875 18.640625 
Q 35.9375 12.203125 46 12.203125 
Q 51.609375 12.203125 56.6875 13.859375 
Q 61.765625 15.53125 67 19.09375 
z
" id="DejaVuSans-Bold-67"/>
    <path d="M 42.484375 60.59375 
Q 33.890625 60.59375 29.15625 54.25 
Q 24.421875 47.90625 24.421875 36.375 
Q 24.421875 24.90625 29.15625 18.546875 
Q 33.890625 12.203125 42.484375 12.203125 
Q 51.125 12.203125 55.859375 18.546875 
Q 60.59375 24.90625 60.59375 36.375 
Q 60.59375 47.90625 55.859375 54.25 
Q 51.125 60.59375 42.484375 60.59375 
z
M 42.484375 74.21875 
Q 60.0625 74.21875 70.015625 64.15625 
Q 79.984375 54.109375 79.984375 36.375 
Q 79.984375 18.703125 70.015625 8.640625 
Q 60.0625 -1.421875 42.484375 -1.421875 
Q 24.953125 -1.421875 14.96875 8.640625 
Q 4.984375 18.703125 4.984375 36.375 
Q 4.984375 54.109375 14.96875 64.15625 
Q 24.953125 74.21875 42.484375 74.21875 
z
" id="DejaVuSans-Bold-79"/>
    <path d="M 0.484375 72.90625 
L 19.390625 72.90625 
L 38.71875 19.09375 
L 58.015625 72.90625 
L 76.90625 72.90625 
L 49.90625 0 
L 27.484375 0 
z
" id="DejaVuSans-Bold-86"/>
    <path d="M 9.1875 72.90625 
L 27.984375 72.90625 
L 27.984375 0 
L 9.1875 0 
z
" id="DejaVuSans-Bold-73"/>
    <path d="M 27.984375 58.6875 
L 27.984375 14.203125 
L 34.71875 14.203125 
Q 46.234375 14.203125 52.3125 19.921875 
Q 58.40625 25.640625 58.40625 36.53125 
Q 58.40625 47.359375 52.34375 53.015625 
Q 46.296875 58.6875 34.71875 58.6875 
z
M 9.1875 72.90625 
L 29 72.90625 
Q 45.609375 72.90625 53.734375 70.53125 
Q 61.859375 68.171875 67.671875 62.5 
Q 72.796875 57.5625 75.28125 51.109375 
Q 77.78125 44.671875 77.78125 36.53125 
Q 77.78125 28.265625 75.28125 21.796875 
Q 72.796875 15.328125 67.671875 10.40625 
Q 61.8125 4.734375 53.609375 2.359375 
Q 45.40625 0 29 0 
L 9.1875 0 
z
" id="DejaVuSans-Bold-68"/>
    <path d="M 5.421875 35.890625 
L 36.078125 35.890625 
L 36.078125 21.6875 
L 5.421875 21.6875 
z
" id="DejaVuSans-Bold-45"/>
    <path d="M 11.71875 12.984375 
L 28.328125 12.984375 
L 28.328125 60.109375 
L 11.28125 56.59375 
L 11.28125 69.390625 
L 28.21875 72.90625 
L 46.09375 72.90625 
L 46.09375 12.984375 
L 62.703125 12.984375 
L 62.703125 0 
L 11.71875 0 
z
" id="DejaVuSans-Bold-49"/>
    <path d="M 10.015625 1.609375 
L 10.015625 15.09375 
Q 14.5 12.984375 18.59375 11.9375 
Q 22.703125 10.890625 26.703125 10.890625 
Q 35.109375 10.890625 39.796875 15.546875 
Q 44.484375 20.21875 45.3125 29.390625 
Q 42 26.953125 38.234375 25.734375 
Q 34.46875 24.515625 30.078125 24.515625 
Q 18.890625 24.515625 12.03125 31.03125 
Q 5.171875 37.546875 5.171875 48.1875 
Q 5.171875 59.96875 12.8125 67.046875 
Q 20.453125 74.125 33.296875 74.125 
Q 47.5625 74.125 55.375 64.5 
Q 63.1875 54.890625 63.1875 37.3125 
Q 63.1875 19.234375 54.046875 8.90625 
Q 44.921875 -1.421875 29 -1.421875 
Q 23.875 -1.421875 19.1875 -0.65625 
Q 14.5 0.09375 10.015625 1.609375 
z
M 33.203125 36.71875 
Q 38.140625 36.71875 40.625 39.90625 
Q 43.109375 43.109375 43.109375 49.515625 
Q 43.109375 55.859375 40.625 59.078125 
Q 38.140625 62.3125 33.203125 62.3125 
Q 28.265625 62.3125 25.78125 59.078125 
Q 23.296875 55.859375 23.296875 49.515625 
Q 23.296875 43.109375 25.78125 39.90625 
Q 28.265625 36.71875 33.203125 36.71875 
z
" id="DejaVuSans-Bold-57"/>
    <path id="DejaVuSans-Bold-32"/>
    <path d="M 52.59375 52.984375 
L 52.59375 38.71875 
Q 49.03125 41.15625 45.4375 42.328125 
Q 41.84375 43.5 37.984375 43.5 
Q 30.671875 43.5 26.59375 39.234375 
Q 22.515625 34.96875 22.515625 27.296875 
Q 22.515625 19.625 26.59375 15.34375 
Q 30.671875 11.078125 37.984375 11.078125 
Q 42.09375 11.078125 45.78125 12.296875 
Q 49.46875 13.53125 52.59375 15.921875 
L 52.59375 1.609375 
Q 48.484375 0.09375 44.265625 -0.65625 
Q 40.046875 -1.421875 35.796875 -1.421875 
Q 21 -1.421875 12.640625 6.171875 
Q 4.296875 13.765625 4.296875 27.296875 
Q 4.296875 40.828125 12.640625 48.40625 
Q 21 56 35.796875 56 
Q 40.09375 56 44.265625 55.25 
Q 48.4375 54.5 52.59375 52.984375 
z
" id="DejaVuSans-Bold-99"/>
    <path d="M 34.421875 43.5 
Q 28.609375 43.5 25.5625 39.328125 
Q 22.515625 35.15625 22.515625 27.296875 
Q 22.515625 19.4375 25.5625 15.25 
Q 28.609375 11.078125 34.421875 11.078125 
Q 40.140625 11.078125 43.15625 15.25 
Q 46.1875 19.4375 46.1875 27.296875 
Q 46.1875 35.15625 43.15625 39.328125 
Q 40.140625 43.5 34.421875 43.5 
z
M 34.421875 56 
Q 48.53125 56 56.46875 48.375 
Q 64.40625 40.765625 64.40625 27.296875 
Q 64.40625 13.8125 56.46875 6.1875 
Q 48.53125 -1.421875 34.421875 -1.421875 
Q 20.265625 -1.421875 12.28125 6.1875 
Q 4.296875 13.8125 4.296875 27.296875 
Q 4.296875 40.765625 12.28125 48.375 
Q 20.265625 56 34.421875 56 
z
" id="DejaVuSans-Bold-111"/>
    <path d="M 63.375 33.296875 
L 63.375 0 
L 45.796875 0 
L 45.796875 5.421875 
L 45.796875 25.484375 
Q 45.796875 32.5625 45.484375 35.25 
Q 45.171875 37.9375 44.390625 39.203125 
Q 43.359375 40.921875 41.59375 41.875 
Q 39.84375 42.828125 37.59375 42.828125 
Q 32.125 42.828125 29 38.59375 
Q 25.875 34.375 25.875 26.90625 
L 25.875 0 
L 8.40625 0 
L 8.40625 54.6875 
L 25.875 54.6875 
L 25.875 46.6875 
Q 29.828125 51.46875 34.265625 53.734375 
Q 38.71875 56 44.09375 56 
Q 53.5625 56 58.46875 50.1875 
Q 63.375 44.390625 63.375 33.296875 
z
" id="DejaVuSans-Bold-110"/>
    <path d="M 44.390625 75.984375 
L 44.390625 64.5 
L 34.71875 64.5 
Q 31 64.5 29.53125 63.15625 
Q 28.078125 61.8125 28.078125 58.5 
L 28.078125 54.6875 
L 43.015625 54.6875 
L 43.015625 42.1875 
L 28.078125 42.1875 
L 28.078125 0 
L 10.59375 0 
L 10.59375 42.1875 
L 1.90625 42.1875 
L 1.90625 54.6875 
L 10.59375 54.6875 
L 10.59375 58.5 
Q 10.59375 67.4375 15.578125 71.703125 
Q 20.5625 75.984375 31 75.984375 
z
" id="DejaVuSans-Bold-102"/>
    <path d="M 8.40625 54.6875 
L 25.875 54.6875 
L 25.875 0 
L 8.40625 0 
z
M 8.40625 75.984375 
L 25.875 75.984375 
L 25.875 61.71875 
L 8.40625 61.71875 
z
" id="DejaVuSans-Bold-105"/>
    <path d="M 49.03125 39.796875 
Q 46.734375 40.875 44.453125 41.375 
Q 42.1875 41.890625 39.890625 41.890625 
Q 33.15625 41.890625 29.515625 37.5625 
Q 25.875 33.25 25.875 25.203125 
L 25.875 0 
L 8.40625 0 
L 8.40625 54.6875 
L 25.875 54.6875 
L 25.875 45.703125 
Q 29.25 51.078125 33.609375 53.53125 
Q 37.984375 56 44.09375 56 
Q 44.96875 56 45.984375 55.921875 
Q 47.015625 55.859375 48.96875 55.609375 
z
" id="DejaVuSans-Bold-114"/>
    <path d="M 59.078125 45.609375 
Q 62.40625 50.6875 66.96875 53.34375 
Q 71.53125 56 77 56 
Q 86.421875 56 91.359375 50.1875 
Q 96.296875 44.390625 96.296875 33.296875 
L 96.296875 0 
L 78.71875 0 
L 78.71875 28.515625 
Q 78.765625 29.15625 78.78125 29.828125 
Q 78.8125 30.515625 78.8125 31.78125 
Q 78.8125 37.59375 77.09375 40.203125 
Q 75.390625 42.828125 71.578125 42.828125 
Q 66.609375 42.828125 63.890625 38.71875 
Q 61.1875 34.625 61.078125 26.859375 
L 61.078125 0 
L 43.5 0 
L 43.5 28.515625 
Q 43.5 37.59375 41.9375 40.203125 
Q 40.375 42.828125 36.375 42.828125 
Q 31.34375 42.828125 28.609375 38.703125 
Q 25.875 34.578125 25.875 26.90625 
L 25.875 0 
L 8.296875 0 
L 8.296875 54.6875 
L 25.875 54.6875 
L 25.875 46.6875 
Q 29.109375 51.3125 33.28125 53.65625 
Q 37.453125 56 42.484375 56 
Q 48.140625 56 52.484375 53.265625 
Q 56.84375 50.53125 59.078125 45.609375 
z
" id="DejaVuSans-Bold-109"/>
    <path d="M 62.984375 27.484375 
L 62.984375 22.515625 
L 22.125 22.515625 
Q 22.75 16.359375 26.5625 13.28125 
Q 30.375 10.203125 37.203125 10.203125 
Q 42.71875 10.203125 48.5 11.84375 
Q 54.296875 13.484375 60.40625 16.796875 
L 60.40625 3.328125 
Q 54.203125 0.984375 48 -0.21875 
Q 41.796875 -1.421875 35.59375 -1.421875 
Q 20.75 -1.421875 12.515625 6.125 
Q 4.296875 13.671875 4.296875 27.296875 
Q 4.296875 40.671875 12.375 48.328125 
Q 20.453125 56 34.625 56 
Q 47.515625 56 55.25 48.234375 
Q 62.984375 40.484375 62.984375 27.484375 
z
M 45.015625 33.296875 
Q 45.015625 38.28125 42.109375 41.328125 
Q 39.203125 44.390625 34.515625 44.390625 
Q 29.4375 44.390625 26.265625 41.53125 
Q 23.09375 38.671875 22.3125 33.296875 
z
" id="DejaVuSans-Bold-101"/>
    <path d="M 45.609375 46.6875 
L 45.609375 75.984375 
L 63.1875 75.984375 
L 63.1875 0 
L 45.609375 0 
L 45.609375 7.90625 
Q 42 3.078125 37.640625 0.828125 
Q 33.296875 -1.421875 27.59375 -1.421875 
Q 17.484375 -1.421875 10.984375 6.609375 
Q 4.5 14.65625 4.5 27.296875 
Q 4.5 39.9375 10.984375 47.96875 
Q 17.484375 56 27.59375 56 
Q 33.25 56 37.625 53.734375 
Q 42 51.46875 45.609375 46.6875 
z
M 34.078125 11.28125 
Q 39.703125 11.28125 42.65625 15.375 
Q 45.609375 19.484375 45.609375 27.296875 
Q 45.609375 35.109375 42.65625 39.203125 
Q 39.703125 43.3125 34.078125 43.3125 
Q 28.515625 43.3125 25.5625 39.203125 
Q 22.609375 35.109375 22.609375 27.296875 
Q 22.609375 19.484375 25.5625 15.375 
Q 28.515625 11.28125 34.078125 11.28125 
z
" id="DejaVuSans-Bold-100"/>
    <path d="M 32.90625 24.609375 
Q 27.4375 24.609375 24.671875 22.75 
Q 21.921875 20.90625 21.921875 17.28125 
Q 21.921875 13.96875 24.140625 12.078125 
Q 26.375 10.203125 30.328125 10.203125 
Q 35.25 10.203125 38.625 13.734375 
Q 42 17.28125 42 22.609375 
L 42 24.609375 
z
M 59.625 31.203125 
L 59.625 0 
L 42 0 
L 42 8.109375 
Q 38.484375 3.125 34.078125 0.84375 
Q 29.6875 -1.421875 23.390625 -1.421875 
Q 14.890625 -1.421875 9.59375 3.53125 
Q 4.296875 8.5 4.296875 16.40625 
Q 4.296875 26.03125 10.90625 30.515625 
Q 17.53125 35.015625 31.6875 35.015625 
L 42 35.015625 
L 42 36.375 
Q 42 40.53125 38.71875 42.453125 
Q 35.453125 44.390625 28.515625 44.390625 
Q 22.90625 44.390625 18.0625 43.265625 
Q 13.234375 42.140625 9.078125 39.890625 
L 9.078125 53.21875 
Q 14.703125 54.59375 20.359375 55.296875 
Q 26.03125 56 31.6875 56 
Q 46.484375 56 53.046875 50.171875 
Q 59.625 44.34375 59.625 31.203125 
z
" id="DejaVuSans-Bold-97"/>
    <path d="M 51.125 52.984375 
L 51.125 39.703125 
Q 45.515625 42.046875 40.28125 43.21875 
Q 35.0625 44.390625 30.421875 44.390625 
Q 25.4375 44.390625 23.015625 43.140625 
Q 20.609375 41.890625 20.609375 39.3125 
Q 20.609375 37.203125 22.4375 36.078125 
Q 24.265625 34.96875 29 34.421875 
L 32.078125 33.984375 
Q 45.515625 32.28125 50.140625 28.375 
Q 54.78125 24.46875 54.78125 16.109375 
Q 54.78125 7.375 48.328125 2.96875 
Q 41.890625 -1.421875 29.109375 -1.421875 
Q 23.6875 -1.421875 17.890625 -0.5625 
Q 12.109375 0.296875 6 2 
L 6 15.28125 
Q 11.234375 12.75 16.71875 11.46875 
Q 22.21875 10.203125 27.875 10.203125 
Q 33.015625 10.203125 35.59375 11.609375 
Q 38.1875 13.03125 38.1875 15.828125 
Q 38.1875 18.171875 36.40625 19.3125 
Q 34.625 20.453125 29.296875 21.09375 
L 26.21875 21.484375 
Q 14.546875 22.953125 9.859375 26.90625 
Q 5.171875 30.859375 5.171875 38.921875 
Q 5.171875 47.609375 11.125 51.796875 
Q 17.09375 56 29.390625 56 
Q 34.234375 56 39.546875 55.265625 
Q 44.875 54.546875 51.125 52.984375 
z
" id="DejaVuSans-Bold-115"/>
    <path d="M 27.484375 70.21875 
L 27.484375 54.6875 
L 45.515625 54.6875 
L 45.515625 42.1875 
L 27.484375 42.1875 
L 27.484375 19 
Q 27.484375 15.1875 29 13.84375 
Q 30.515625 12.5 35.015625 12.5 
L 44 12.5 
L 44 0 
L 29 0 
Q 18.65625 0 14.328125 4.3125 
Q 10.015625 8.640625 10.015625 19 
L 10.015625 42.1875 
L 1.3125 42.1875 
L 1.3125 54.6875 
L 10.015625 54.6875 
L 10.015625 70.21875 
z
" id="DejaVuSans-Bold-116"/>
    <path d="M 45.609375 9.28125 
Q 42 4.5 37.640625 2.25 
Q 33.296875 0 27.59375 0 
Q 17.578125 0 11.03125 7.875 
Q 4.5 15.765625 4.5 27.984375 
Q 4.5 40.234375 11.03125 48.0625 
Q 17.578125 55.90625 27.59375 55.90625 
Q 33.296875 55.90625 37.640625 53.65625 
Q 42 51.421875 45.609375 46.578125 
L 45.609375 54.6875 
L 63.1875 54.6875 
L 63.1875 5.515625 
Q 63.1875 -7.671875 54.859375 -14.625 
Q 46.53125 -21.578125 30.71875 -21.578125 
Q 25.59375 -21.578125 20.796875 -20.796875 
Q 16.015625 -20.015625 11.1875 -18.40625 
L 11.1875 -4.78125 
Q 15.765625 -7.421875 20.15625 -8.71875 
Q 24.5625 -10.015625 29 -10.015625 
Q 37.59375 -10.015625 41.59375 -6.25 
Q 45.609375 -2.484375 45.609375 5.515625 
z
M 34.078125 43.3125 
Q 28.65625 43.3125 25.625 39.296875 
Q 22.609375 35.296875 22.609375 27.984375 
Q 22.609375 20.453125 25.53125 16.578125 
Q 28.46875 12.703125 34.078125 12.703125 
Q 39.546875 12.703125 42.578125 16.703125 
Q 45.609375 20.703125 45.609375 27.984375 
Q 45.609375 35.296875 42.578125 39.296875 
Q 39.546875 43.3125 34.078125 43.3125 
z
" id="DejaVuSans-Bold-103"/>
   </defs>
   <g style="fill:#ffffff;" transform="translate(323.58875 20.7975)scale(0.16 -0.16)">
    <use xlink:href="#DejaVuSans-Bold-67"/>
    <use x="73.388672" xlink:href="#DejaVuSans-Bold-79"/>
    <use x="155.773438" xlink:href="#DejaVuSans-Bold-86"/>
    <use x="233.166016" xlink:href="#DejaVuSans-Bold-73"/>
    <use x="270.373047" xlink:href="#DejaVuSans-Bold-68"/>
    <use x="355.255859" xlink:href="#DejaVuSans-Bold-45"/>
    <use x="396.759766" xlink:href="#DejaVuSans-Bold-49"/>
    <use x="466.339844" xlink:href="#DejaVuSans-Bold-57"/>
    <use x="535.919922" xlink:href="#DejaVuSans-Bold-32"/>
    <use x="570.734375" xlink:href="#DejaVuSans-Bold-99"/>
    <use x="630.011719" xlink:href="#DejaVuSans-Bold-111"/>
    <use x="698.712891" xlink:href="#DejaVuSans-Bold-110"/>
    <use x="769.904297" xlink:href="#DejaVuSans-Bold-102"/>
    <use x="813.410156" xlink:href="#DejaVuSans-Bold-105"/>
    <use x="847.6875" xlink:href="#DejaVuSans-Bold-114"/>
    <use x="897.003906" xlink:href="#DejaVuSans-Bold-109"/>
    <use x="1001.203125" xlink:href="#DejaVuSans-Bold-101"/>
    <use x="1069.025391" xlink:href="#DejaVuSans-Bold-100"/>
    <use x="1140.607422" xlink:href="#DejaVuSans-Bold-32"/>
    <use x="1175.421875" xlink:href="#DejaVuSans-Bold-99"/>
    <use x="1234.699219" xlink:href="#DejaVuSans-Bold-97"/>
    <use x="1302.179688" xlink:href="#DejaVuSans-Bold-115"/>
    <use x="1361.701172" xlink:href="#DejaVuSans-Bold-101"/>
    <use x="1429.523438" xlink:href="#DejaVuSans-Bold-115"/>
    <use x="1489.044922" xlink:href="#DejaVuSans-Bold-32"/>
    <use x="1523.859375" xlink:href="#DejaVuSans-Bold-97"/>
    <use x="1591.339844" xlink:href="#DejaVuSans-Bold-110"/>
    <use x="1662.53125" xlink:href="#DejaVuSans-Bold-100"/>
    <use x="1734.113281" xlink:href="#DejaVuSans-Bold-32"/>
    <use x="1768.927734" xlink:href="#DejaVuSans-Bold-102"/>
    <use x="1812.433594" xlink:href="#DejaVuSans-Bold-111"/>
    <use x="1881.134766" xlink:href="#DejaVuSans-Bold-114"/>
    <use x="1930.451172" xlink:href="#DejaVuSans-Bold-101"/>
    <use x="1998.273438" xlink:href="#DejaVuSans-Bold-99"/>
    <use x="2057.550781" xlink:href="#DejaVuSans-Bold-97"/>
    <use x="2125.03125" xlink:href="#DejaVuSans-Bold-115"/>
    <use x="2184.552734" xlink:href="#DejaVuSans-Bold-116"/>
    <use x="2232.355469" xlink:href="#DejaVuSans-Bold-105"/>
    <use x="2266.632812" xlink:href="#DejaVuSans-Bold-110"/>
    <use x="2337.824219" xlink:href="#DejaVuSans-Bold-103"/>
    <use x="2409.40625" xlink:href="#DejaVuSans-Bold-32"/>
    <use x="2444.220703" xlink:href="#DejaVuSans-Bold-105"/>
    <use x="2478.498047" xlink:href="#DejaVuSans-Bold-110"/>
    <use x="2549.689453" xlink:href="#DejaVuSans-Bold-32"/>
    <use x="2584.503906" xlink:href="#DejaVuSans-Bold-73"/>
    <use x="2621.710938" xlink:href="#DejaVuSans-Bold-110"/>
    <use x="2692.902344" xlink:href="#DejaVuSans-Bold-100"/>
    <use x="2764.484375" xlink:href="#DejaVuSans-Bold-105"/>
    <use x="2798.761719" xlink:href="#DejaVuSans-Bold-97"/>
    <use x="2866.242188" xlink:href="#DejaVuSans-Bold-32"/>
    <use x="2901.056641" xlink:href="#DejaVuSans-Bold-116"/>
    <use x="2948.859375" xlink:href="#DejaVuSans-Bold-105"/>
    <use x="2983.136719" xlink:href="#DejaVuSans-Bold-109"/>
    <use x="3087.335938" xlink:href="#DejaVuSans-Bold-101"/>
   </g>
  </g>
 </g>
 <defs>
  <clipPath id="pff2021eb87">
   <rect height="349.92" width="1002.24" x="92.16" y="51.84"/>
  </clipPath>
 </defs>
</svg>
